<svg xmlns="http://www.w3.org/2000/svg" viewBox="0 0 202.4 367"><defs><style>.cls-1{fill:#f2adf2;}</style></defs><g id="Lager_2" data-name="Lager 2"><g id="Lager_1-2" data-name="Lager 1"><path d="M156.9.3C109,47.1,55.5,97.5,6.2,142.7l-.7-4.1c63.7,26.6,130.5,55.3,194.9,80.2C140.8,267.5,76.6,319.4,16.6,367,37,328.39,60,284.9,81,246.5c32.84,30,69.58,64.23,101.9,94.7l-.4.4C149.62,313.38,112.5,281,80,252.2l3.8-.7c-17.14,33.11-37.53,72.74-55.1,105.6l-4.6-3.8c55.68-44,117-91.87,173.2-135.1l.3,2.1C133.48,193.11,65,167.15,0,141.8,49.84,95.21,105.15,45,156.5,0l.4.3Z"/><path class="cls-1" d="M176.5,317.5c-25.9-21.6-53.8-45.2-79.2-67.1l2.6-.4c-16.65,31.67-41.3,78.63-58.3,109.5l-2.3-2c51.62-38.33,109-82.34,159.4-122.2l.3,2.3C137,212.06,65.49,182.42,3.6,156.1,51.2,112.68,101.89,64.76,150,23.2,104.2,67.4,55.7,113.4,9.2,156.9l-.7-3.7c61.69,26,132.5,56.21,193.9,82.9C148.16,276.27,88.68,322.67,35.7,364.3c17.71-34.72,43.61-82.83,62.6-117.8C124,269.3,151.75,294,177.1,317.2l-.6.3Z"/></g></g></svg>