<svg id="Lager_1" data-name="Lager 1" xmlns="http://www.w3.org/2000/svg" viewBox="0 0 1366 768"><defs><style>.cls-1{fill:#f2adf2;}.cls-2,.cls-3{isolation:isolate;font-family:Microsoft-Yi-Baiti, Microsoft Yi Baiti;font-style:italic;}.cls-2{font-size:68.68px;}.cls-3{font-size:39.97px;}</style></defs><path d="M630.4,286.5C582.5,333.3,529,383.7,479.7,428.9l-.7-4.1c63.7,26.6,130.5,55.3,194.9,80.2-59.6,48.7-123.8,100.6-183.8,148.2l6.7-12.7c17.4-33,38.3-72.1,56.1-105l1.6-2.8,2.3,2.1c32,29.3,68.1,62.9,99.6,92.6l-.4.4c-24-20.6-53.2-46-77-66.9l-25.5-22.5,3.8-.7-13.7,26.5c-12.2,23.5-28.9,55.8-41.4,79.1l-4.6-3.8c14.4-11.4,28.7-22.6,43.2-34,40.3-31.7,89.6-70,130-101.1l.3,2.1c-8-3.4-16.1-6.7-24-10-54.6-22.8-114.7-45.4-169.9-67.1l-3.7-1.4,2.8-2.7c35-32.7,79.1-72.7,114.9-104.8,6.4-5.8,12.9-11.5,19.3-17.2s12.9-11.5,19.5-17.1l.4.3Z"/><path class="cls-1" d="M650,603.7c-25.9-21.6-53.8-45.2-79.2-67.1l2.6-.4-28.9,54.9c-8.5,15.9-20.8,39-29.4,54.6l-2.3-2c23.8-17.9,57-42.5,80.2-60.5,19.8-15.2,59.6-46.2,79.2-61.7l.3,2.3c-44.1-18.1-100.2-41.5-144.4-59.9l-47.9-20.3-3.1-1.3c12.7-11.8,25.5-23.5,38.3-35.3,34.9-31.3,73.3-68.1,108.1-97.6-45.8,44.2-94.3,90.2-140.8,133.7l-.7-3.7c52.1,21.9,115.9,49.2,167.9,71.6l23.9,10.4,2.1.9-1.8,1.3c-51.4,38.3-109,82.8-159.2,122.5l-5.7,4.4c5.8-11.2,11.7-22.8,17.6-33.9,9.7-18.5,34.7-65,45-83.9,19.3,17.1,40.4,36,59.6,53.2l19.2,17.5-.6.3Z"/><text class="cls-2" transform="translate(569.53 436.24)">SEZEN ERDAL</text><text class="cls-3" transform="translate(718.21 491.89)">Frontend Developer</text></svg>