<?xml version="1.0" encoding="utf-8"?>
<!-- Generator: Adobe Illustrator 26.0.2, SVG Export Plug-In . SVG Version: 6.00 Build 0)  -->
<svg version="1.1" id="Lager_1" xmlns="http://www.w3.org/2000/svg" xmlns:xlink="http://www.w3.org/1999/xlink" x="0px" y="0px"
	 viewBox="0 0 219.7 143.2" style="enable-background:new 0 0 219.7 143.2;" xml:space="preserve">
<style type="text/css">
	.st0{fill:#232123;}
	.st1{fill:#222022;}
</style>
<g>
	<g>
		
			<rect x="87.4" y="60.5" transform="matrix(0.6708 -0.7416 0.7416 0.6708 2.3679 139.6813)" class="st0" width="142.3" height="13.4"/>
		<g>
			<g>
				<g>
					<path class="st1" d="M211.1,19c0.1,0.1,0.1,0-0.2-0.3l-0.3-0.1L211.1,19z"/>
					<path class="st1" d="M209,16.9c-0.4-0.3-1-0.6-0.9-0.2c0.5,0.2,0.6,0.3,1.1,0.6c0.4,0.3,0.6,0.6,0.5,0.5
						c0.1,0.1,0.5,0.5,0.8,0.6C210.1,17.9,209.6,17.4,209,16.9C208.8,16.8,208.9,16.9,209,16.9z"/>
					<path class="st1" d="M177.8,34.3l0.3-0.1C178,34.1,177.9,34.2,177.8,34.3z"/>
					<path class="st1" d="M158.9,54c0.1-0.2,0.1-0.3,0.1-0.4C158.8,53.8,158.8,54,158.9,54z"/>
					<path class="st1" d="M154.9,56.7c0.1-0.1,0.2-0.1,0.2-0.2C155,56.6,154.9,56.6,154.9,56.7z"/>
					<path class="st1" d="M177.8,34.3l-0.7,0.4C177.3,34.8,177.6,34.5,177.8,34.3z"/>
					<path class="st1" d="M204,13.3c0.1,0.1,0.2,0.1,0.4,0.2L204,13.3L204,13.3z"/>
					<path class="st1" d="M185.7,25.1l0.2-0.2c0-0.1,0-0.2-0.1-0.3L185.7,25.1z"/>
					<path class="st1" d="M192,18.3c-0.2,0.1,0.1,0.5,0.2,0.7c-0.1-0.2,0-0.4,0.1-0.5C192.2,18.4,192.1,18.4,192,18.3z"/>
					<path class="st1" d="M203.1,11.2l0.2,0.2C203.3,11.3,203.2,11.2,203.1,11.2z"/>
					<path class="st1" d="M181,29.8c-0.1-0.1-0.2-0.1-0.2-0.1C180.8,29.7,180.9,29.8,181,29.8z"/>
					<path class="st1" d="M203.6,26.4L203.6,26.4L203.6,26.4z"/>
					<path class="st1" d="M211.3,18.9l-0.1,0.1c0,0,0,0,0,0.1L211.3,18.9z"/>
					<path class="st1" d="M148.3,62.2L148.3,62.2C148.4,62,148.3,62.1,148.3,62.2z"/>
					<path class="st1" d="M112.3,124.9c-0.4-0.8,0.2-0.5,0.6-0.4c0.5,0.1,0.8,0.1,0.2-0.8c0,0.2-0.4,0.1-0.8,0.2
						C112,124,111.7,124.1,112.3,124.9z"/>
					<path class="st1" d="M203.8,13.1l-0.3-0.2C203.7,13,203.8,13.1,203.8,13.1z"/>
					<path class="st1" d="M113.1,123.8L113.1,123.8l-0.1-0.2C113.1,123.7,113.1,123.7,113.1,123.8z"/>
					<path class="st1" d="M135.4,77.1c0.1,0.1,0.3,0.1,0.4,0.1C135.7,77.2,135.6,77.1,135.4,77.1z"/>
					<path class="st1" d="M146.2,67.1l-0.3,0.2C146,67.3,146.1,67.2,146.2,67.1z"/>
					<path class="st1" d="M131.2,83.6c-0.2,0.1-0.3,0.1-0.4,0.3c0.1,0,0.1,0,0.1,0C130.9,83.8,130.9,83.7,131.2,83.6z"/>
					<path class="st1" d="M125.9,89.6c0.1,0,0.2,0,0.2,0c0-0.1,0.1-0.1,0.1-0.2L125.9,89.6z"/>
					<path class="st1" d="M187.1,44c0.2-0.1,0.3-0.1,0.4-0.1C187.3,43.9,188.1,43,187.1,44z"/>
					<path class="st1" d="M204.1,13.2c-0.1,0-0.1,0-0.3-0.1C203.9,13.2,204,13.2,204.1,13.2C204.1,13.3,204.1,13.3,204.1,13.2z"/>
					<path class="st1" d="M136.2,88.6l-1,0.8C135.6,89.2,135.9,88.9,136.2,88.6z"/>
					<path class="st1" d="M148.3,85.6l0.2-0.2C148.4,85.5,148.3,85.5,148.3,85.6z"/>
					<path class="st1" d="M132.8,92.3c-0.4,0-0.7,0-0.9,0.1c0,0.1,0,0.2,0.1,0.3L132.8,92.3z"/>
					<path class="st1" d="M187.5,43.9L187.5,43.9L187.5,43.9z"/>
					<path class="st1" d="M192.8,37.5c-0.8,0.9-0.2,0.6-0.2,0.9c-0.9,1.1-0.6,0.3-1.1,0.6c-0.6,0.7-0.8,1.4-1.3,1.9
						c-0.1,0-0.2,0.1-0.1-0.1c-0.5,0.9-1.9,2.1-2.4,3.1c-0.1,0-0.1,0.1-0.2,0.1c0.2,0,0.4,0.1,0.4,0.2c-0.4,0.4-0.5,0.9-0.8,0.9
						c0.2-0.2,0.2-0.3,0.2-0.5l-0.3,0.5c-0.6,0.2,0.4-0.6,0.3-0.8c-0.7,0.9-1.4,2-2,2.6c-0.4-0.1,1.3-1.5,0.3-0.9l1-0.9
						c-1,0.4,0.6-0.6-0.4-0.2c-1.2,1.2-1.2,1.5-2.4,2.7c-0.1,0.4,0.3,0.1,0.2,0.5c-1.4,2-1.9,0.8-2.8,2.4c-0.1,0.5,0.1,0.9-1,1.7
						v-0.6c-1.2,1.2-0.2,1.1-1.6,2.2c0.1-0.3,0.8-1,0.6-0.9c-1,0.6-0.4,0.7-1,1.4l-0.4-0.1c-1.2,1.3-2.3,2.9-3.6,4.4
						c0-0.2,0.1-0.5-0.3-0.2c-1.5,1.9-3.6,3.8-5.5,5.4l-0.3,0.9c-0.1,0.2-0.4,0.2-0.3,0c-0.7,0.6,0.1,0.2,0,0.6
						c-0.3,0.4-0.6,0.4-0.5,0c-0.9,1.4-2.6,3.9-4.1,4.9l0.1-0.3c-1,0.9-0.4,1.7-1.5,2.3l0.1-0.2c-2.1,2-4,4.7-6,5.8
						c0.2,0.7-2.2,1.9-1.6,2.7c-1.5,0.9-1.3,0.5-3.1,2c-0.5,0.4-0.2,1.1-0.6,1.7l-0.4-0.3l-0.3,1.1h-0.8l-0.4,0.6
						c0.2-0.2,0.6-0.3,0.7-0.2c-0.6,1-2.2,1.8-2.4,1.6l-1.5,2.3c-0.1-0.2,0.1-0.6,0.3-0.9c-0.6,1.4-0.6-0.2-1.1,1.1
						c0.2,0,0.2,0.3,0.2,0.4c-0.7,0.3-1.7,1.3-2.4,2.2l-0.1-0.4c-1.4,1.4-2.7,3.2-4.3,4.8c0.7-0.5,1.1,0.1,0.7,0.7l-0.6-0.2
						c0,0.6,0.6-0.3,0.4,0.6c-0.6,0.6-0.9-0.1-0.7-0.5l-0.5,0.9c-0.2-0.1-0.1-0.3-0.2-0.5c0,0.6-1.7,0.9-1.6,1.7l-0.2-0.1
						c-1.5,1.6-2.1,2.5-3.3,3.9c0.4,0.4-0.2,0.8-0.2,1.5c-1,0.9-2.4,1.7-3.4,2.9c-0.6,1,0.1,0.6,0,1.2c-0.4-0.3-1.5,0.9-1.2,0.1
						c-1.3,1.5-1.6,1.9-2.9,4c0.3,0,0.6-0.2,0.7,0c-0.2,0.4-0.9,0.6-1,0.4V113c-1.2,2.6-5.5,3.6-6.1,5.9v-0.1l-0.5,1l-0.3,0.5
						c0,0.1-0.1,0.2-0.1,0.2v0.1c-0.2,0.1-0.2,0-0.2-0.2s-0.1-0.3-0.3-0.4c0.1,0.6-0.2,0.9-0.4,1c0,0,0,0-0.1,0l-0.1-0.1
						c0-0.1-0.1-0.1-0.1-0.2c-0.1-0.1-0.2-0.1-0.4-0.1c1.2-1.3-4.4-3.9-4-5c-0.1,0.1-0.2,0.2-0.3,0.3c-0.4,0.2,0.1-0.2,0.2-0.3
						c-0.3,0.1-0.3,0.3-0.5,0.3c-0.3-0.1-0.5-0.3-0.6-0.4c0.1,0.1,4.6-3.2,7.4-5.5c1.3-1.1-1.2-2.4,1.2-3.2l0.3,1.1
						c1.6-3.3,5-5.1,6.6-8.3c0,0.3,0.3,0.5,0,0.7c1,0,1.9-1.9,1.4-2.3c0.4-0.3,0.5,0.3,0.9,0.2c0.8-0.2,0.5-2,1.3-1.7
						c0.1,0,0,0.3,0,0.4c0.1-0.6,1.6-1.5,0.6-1.8c1.2-0.7,1.4-2.1,2.5-2.5c-0.3-1.1,1.8-1.3,1-2.4c1,1,2.4-0.9,2.4-1.9
						c0.1,0.5,0.8-0.2,1,0.4c0.6-0.7,1-1.5,0.3-1.9c2.4-0.1,1.3-3.5,3.6-2.7c1.3-2.6,2.6-4.8,4-6.9c1,1-1.7,2.1-0.5,3.1
						c1.1-2.1,1.1-4,2.9-5.5c0.5-0.3,0.2,0.7,0.3,1c1.1-2.1,3.1-3.3,3.9-5.4c0.1,0.1,0.1,0.4,0,0.6c0.2-0.3,0.8-0.6,0.3-1l-0.1,0.4
						c-1.1-0.1-0.4-2.5-0.7-2.9c0.9,1.8,1.7-1.2,2.7,1.2c0.1-0.3,0.1-0.7-0.3-1c0.4-0.2,0.6-0.1,0.7,0.5c0.7-1.3-0.1-1.4,0.8-2.4
						c0.2,0.2,0.1,0.5,0.3,0.8c0-0.9,0-1.8,1-2.5c0.1,0.2,0.4,0.2,0.1,0.5c1.2-1.5,1-3.5,2.9-4.7c0.5,1.3,0.8-0.3,1.7,0.4l0.5-1.1
						h-0.7c0.7-0.7,0.7-1.9,1.5-2.3l-0.2,0.9l1.1-1.5l-1,0.5c0.3-1.1-1.1-0.9,0-1.6c-0.1,0.3,0.7-0.7,1.5-0.7l0,0
						c0.1-0.6,0.1-1.2,0.8-1.6c0.4,0.1,0.8,0.9,1,1c-0.3-1,1.4-1.9,1.1-3c0,0.3,0.4,0.7,0.6,0.7l-0.3-0.8c0.5-0.2,0.6-0.2,0.9,0.2
						c1-1-1.3-0.6,0.2-1.4c0,0.1,0.1,0.2,0,0.4c1.3-1,1.8-2.7,3.1-3.6c1.1,0.3-0.7,1.2,0.3,1.4c1.3-1.8,2.1-4.2,3.7-5.7l-0.3,0.2
						c-0.8-1.1,1.5-0.7,1.8-2c-0.1,0.3,0.3,0.8,0.3,0.6c1.1-1,1.7-2.5,2.9-4.4l0.1,0.4c0.8-0.5,1.6-1.6,2.3-2.2
						c-0.1-0.4,0.3-0.8-0.2-0.8c1.6-0.5,2.3-1.7,3-2.8c0.7-1.2,1.3-2.3,2.7-2.8c-0.2,0.2-0.3,0.7-0.1,0.5l1.2-1.8
						c-0.5-0.2-0.4,0-1,0.1c0-0.4,0.2-1,0.6-1.4c-0.4,0.9,0.6,0.5,1,0.3c-0.1,0-0.2-0.3-0.3-0.3c1.3-0.3-0.5-0.7,0.9-1.5l0.1,0.2
						c0.3-0.5,0.4-1.1,0.9-1.5c0.5,0.1-0.2,0.6,0,0.9c0.5-0.7,0.5-1.9,1.3-2.2c-0.1,0.4-0.5,0.8-0.6,1.1c1-0.3,0.9-0.4,1.4-0.9h-0.1
						l1.1-1l-0.4,0.2c-0.1-1.6,1.3-1.8,1.7-3.4c-0.5,1.5,0.1,0.4,0.4,0.8c0.3-0.2,0.8-0.5,0.8-0.3c0.2-0.8,1-0.7,1.2-1.8
						c0.1,0.1,0.5-0.6,0.6-0.2c0.5-0.8-0.3,0-0.4-0.2c0.6-1.4,2.5-2.2,3.4-4.1c0.1-0.2,0.2-0.3,0.2-0.4c0.1-0.1,0.1-0.2,0.2-0.3
						c0.1-0.2,0.2-0.5,0.3-0.7c0.3,0.1,0.6,0.3,1.3,0.8c0.1,0.2,0,0.2-0.2,0.2c-0.2-0.1-0.3-0.2-0.3-0.2c0.2,0.3,0.5,0.6,0.8,0.8
						c0.3,0.2,0.6,0.5,0.9,0.7c-0.2-0.1-0.1,0.1,0,0.3c0.5,0.4,0.5,0.1,1.1,0.7c-0.2,0-0.4-0.1-0.7-0.2c0.7,0.4,1.3,0.8,2,1.3
						c0.1,0.2-0.5-0.2-0.8-0.3c0.7,0.5,1.9,1.4,2.2,1.5l-0.4-0.4c0.3,0.2,0,0.2-0.2,0.1c-0.7-0.4-0.8-0.8-0.8-0.9l0.5,0.3
						c-0.2-0.7-1.8-1.5-2.6-2.2l0.6,0.1l-1.1-0.6c-0.1-0.2-0.1-0.5,0.4-0.2c-0.5-0.7-0.6-0.4-1-1c0-0.1,0-0.1,0.1,0l-1.3-0.5
						c0.2,0,0-0.4,0.4,0.1c-0.6-0.7-1.2-1.3-1.6-1.3c-0.4,0.5-0.6,0.9-0.9,1l0.1-0.1c-0.2,0.2-0.4,0.5-0.5,0.6s-0.1,0.2-0.2,0.3
						c-0.1,0.1,0,0.2,0,0.2c0.1,0.1,0.3,0.1-0.1,0.8c-0.5,0-0.9,0.1-1.4,0.1l0.2,0.4c-0.2,0.1-0.5,0.4-0.5,0.3
						c-0.3,0.8,0.2,0,0.1,0.5c-1,0.5-1.7,2.2-2.4,1.9c0,0.5,0.8-0.5,0.3,0.4c-0.8-0.3-0.7,1-1.6,1.4c-0.1-0.5,0.6-1-0.3-0.6
						c0.1,0.9-1.3,1.2-1.8,1.8c0.4,0.4-1,1.4-1.7,2.5c-0.1-0.2-1.9,1.5-2.9,2.3l-0.1-0.1c0.4,0.6-0.6,1.5-1.1,2.2
						c-0.3-0.3-0.3-0.6-0.1-1l-0.6,0.6c0,0.3-0.1,0.6-0.4,1l-0.3-0.5c-0.8,0.8-1.1,2.1-2.4,2.9c0.4,0.4,1.9,0.2,1.1,1.6
						c-0.3-0.2-0.7-0.5-0.5-0.8c-0.1,0.1-0.1,0.5-0.4,0.6V29c-0.6,0.3,0.1,0.5-0.3,0.9c-0.3-0.3-0.5,0.1-0.7-0.2
						c0.1-0.1,0.4-0.2,0.5-0.5c-0.5,0.4-1.1,0.7-1.6,0.7c0.2,0.1,0.4,0.4,0.2,0.8c-0.7,0.9-0.7-0.1-1.3,0.3c0,0.4-0.7,0.7-0.2,1.2
						c-0.2,0.2-0.5,0.1-0.7,0c-0.2,0.6-1.8,2.1-0.8,2.1l0.1-0.1v0.1l0,0l0,0c-0.8,1.9-3,2.7-4.1,4.3l-0.2-0.2c-0.6,1-1.6,2-1.7,2.9
						c-0.2,0.2-0.9,0.3-1,0c-0.4,0.8-0.3,1-1.5,1.7c0.3-0.9-0.5-0.1,0.4-0.9c-0.9,0.7-1.4,0.6-1.7,2c-0.2-0.8-1.2,0-1.4,0.6l0.9-0.2
						c-0.3,0.5-0.7,0.9-1.2,1.2l-0.5-0.8c-2.4,0.9-1.4,4.3-4,4.3c0.1,0.9,1.2-0.6,1.4,0.3c-0.8,0.7-2.6,0.6-2.8,0.8
						c-1.4,0.7,0.1,1.9-1.2,2.8c0.4,0.1,1.2,0.6,0.7,1.6c-0.8,0.7-2,0-1.7-0.7c0.2-0.2,0.3-0.2,0.4-0.1c0.1-0.3,0.3-0.8-0.2-0.7
						l0.2,0.3c-0.6,0.1-1.6,1.2-1.8,0.6c-0.3,0.8,0.2,0.6,0.7,0.3c-1.3,0.7-1.5,1.6-2.7,2.4c0.3,0,0.7,0.1,0.6,0.3
						c-1.7,1.2-0.1,1.1-0.9,2.3c-0.9,0.2-0.8-1.1-1.4,0.3c-0.9,0.4-0.8-0.5-0.8-1c-0.4,1.4-2,1.4-2.6,1.9l0.2-0.7
						c-0.1,0.4-0.4,0.7-0.6,0.9l0.8,0.2c-0.4,0.2-0.6,0.4-0.8,0.2c0.1,0.6,1.1,0.6,1.1,1.6c-0.6,0.1-0.8,1.5-1.6,0.9
						c1.4-1-0.9-0.5,0-1.7c-0.1,0.3-0.3,0.5-0.7,0.7c-0.1,0-0.1-0.2-0.1-0.3c-1.7,0.6,0.3,1.3-0.8,2.5c-0.3-0.5-1-0.4-1.1-0.1
						c0.5-0.5,0.9,0.4,0.8,1.1c-1,0.5-0.5,1.1-0.9,1.4l0.6-0.3c0.3,0.5-0.1,0.9-0.5,1.5c-0.4-0.2,0.2-0.7-0.1-0.6
						c0.2,1.3-2,0.7-2.3,2c-0.6,0.1-0.8-0.7-1.3-0.5c-0.3,1.4-1.5,0.5-2,1.9c0.8,0.2,0.7,0,0.6,1.2l1.1-2l-0.1,1.8
						c0.5-0.5,0.6-1.4,1-1.6c0,0.9-0.1,0.7,0.6,0.9c-1.5-0.1-0.7,1.8-2,2l-1.4-1.3c-1.7,0.6-1.2,2.7-2.9,3.9l0.7-0.3
						c0.4,0.7-0.8,1-1,1.7c-0.4-0.5-0.9-0.3-1.4-0.4c0.4,0.3-1,1.1-0.2,2.1l-1.2,0.1c-1.4,1,0.1,2.6-1.2,3.7c-0.2-0.8-1-0.6-0.6-1.7
						c-0.4,0.4-0.8,0.7-0.4,1c-0.5,0-0.4,1.7-1.1,1.6c0.1,0.4,0.5,0.8,0.1,1.3c-0.1,0-0.2-0.2-0.2-0.2c0.2,0.2-0.3,1,0.5,1.1
						c-2.5-0.1-3,3.5-5.2,3.5c-0.6,1-1.4,2.2-2.1,3c-0.1-0.2-0.2-0.2,0-0.3c-1.4,0.7,0.7,1.8-0.9,2.7c-1.3,0,0.2-1-0.4-0.9
						c-1.6-1.2-1.1,1.7-2.7,1.7l0.1-0.3c-1.1,0.2-0.8,2.1-1.9,3c0,0-0.1-0.2-0.2-0.2c0.1,1.4-0.9,2.9-1.6,4.1
						c-0.3-0.8,0.1-0.7-0.6-1c-0.3,0.5,1,0.7,0.4,1.7c-0.6,0-1.4,0.4-2,0l0.7-0.9c-1.1-0.3-0.9,1.1-1.5,1.5l-0.3-0.4
						c-1,1.4-0.2,2.2-1.5,3.5l0.4,0.1c0.1,1.5-1,0.2-1.1,1.5l-1-0.5c-0.2,0.7-0.8,2.5-1.5,3.5c-0.1-1,0.5-2.3,0.7-3.3
						c-0.4,0.5-1.4,1.8-1.3,2.4c0.1-0.3,0.1-0.7,0.4-0.8c0,0.6-0.1,1.1-0.3,1.7c-0.1,0.3-0.2,0.5-0.4,0.8s-0.4,0.6-0.7,0.9
						c-1-0.8-2.3,1-3.8,2.5c0.7,0.7,1.3,1.4,1.2,2c0.9,0.6,1.7,1.2,2.4,1.8l0.5,0.4l0.3,0.3c0.2,0.2,0.4,0.4,0.6,0.7
						c0.8,0.9,1.6,1.9,2.7,2.8c0.2-1.7,0.6,0.5,1.4-0.7c0.7,0.5,0.9,0.7,0.9,0.8c0.5,0.8,1.1,1.8,1.8,2.7c0.5,1-0.8-0.3-0.8,0.2
						c0.9,0.8,1.1,1.2,1.2,1.5c0.1,0.2,0.1,0.3,0.2,0.6c0.1,0.1,0.1,0.2,0.2,0.4l0.1,0.1l0.1,0.1c0.1,0,0.1-0.1,0.2-0.1
						c-0.3-0.4,0.5-1.6,1.6-2.3c-0.5,0.2-1,0.4-1.5,0.6c1-1.6,1.5-1.7,2.2-2c0.3-0.1,0.6-0.3,1-0.6c0.2-0.2,0.4-0.4,0.6-0.7
						c0.1-0.1,0.2-0.3,0.3-0.4l0.1-0.1v-0.1c0-0.1,0-0.1,0.1-0.2c0,0.1,0,0.2-0.1,0.4l-0.2,0.6c0.3-0.5,1-1.3,1.6-2.2
						c0.5-0.8,1-1.6,0.9-2.3c0.2,0,0.7,0,0.4,0.4c1.7-1.7,2.7-4.8,4.4-5.8l0.1,0.3c0.2-0.4,0.1-1,0.7-1.2c0.1,0.1,0.1,0.3,0.3,0.2
						c0.1-0.3,0.4-1.3,0.9-1.6l-0.1,0.6c1.9-1.5,1.8-3.3,2.9-4.9c0.7,0.6,2.1-0.6,2.8-1.2l0.1,0.1c1.9-2,2.5-4,4-6.1
						c1.7-0.6,3.8-3.7,5.8-5.3c-0.4,0.2-0.4-0.5-0.2-0.9c0.5-0.3,0.7-1.6,1.2-1l-0.2,0.1c0.8,0.1,1.5-0.9,2.1-1.6l-0.6-0.7
						c2.6-1,4-5.2,5.7-5.5c0.2-0.6,0.7-1.2,1-1.7l0.3,0.3c1.2-1.2,1.8-1.8,3-3.4v0.5c0.8-0.9,0-2,0.7-2.8l0.7,0.2
						c1.3-1.5,3.1-2.7,4-4.6c0,0.1,0.1,0.2-0.1,0.5c0.6-0.7,2.7-2.5,1.9-2.8c0.4,0.3,1.4-1.5,2-2.5l0.2,0.4c0.3-1,0.2-1.1,0.9-2.2
						c0.2-0.2,0.4,0,0.1,0.2c0.8-0.6,0.3-0.8,1.2-1.6l-0.1,0.5c0.7-0.8,0.6-0.8,0.8-1.4c0.3-0.6,1.4-1.4,1.7-1.3
						c-0.1-0.2,0.1-0.8,0.6-1.2c0.1,0,0,0.2,0,0.3c1.3-1.2,1.4-2.2,2.5-2.9c0.1,0.1,0.2,0,0.3,0c-0.9,1-1.7,1.9-1.6,1.8
						c0.2,0.2,1-0.6,0.7,0.4c0.4-0.8,1.1-2.3,1.9-3.1c0.1,0,0.1,0,0.2,0v0.1c0.2-0.2,0.3-0.4,0.4-0.6c0.3-0.2,0.4-0.4,0.7-0.6
						c0.3,0.1,0.9-0.9,1.3-1.3c-0.3-0.2,0.3-0.7-0.4-0.3c0.1-0.1,0,0.1-0.3,0.4c0,0.1-0.1,0.1-0.1,0.2l0,0c-0.2,0.3-0.6,0.6-0.9,1.1
						c0.2-0.4,0.4-0.9,0.9-1.2c0-0.4,0.1-0.7,0.1-0.9c0.8-0.3,2-1.2,2.3-1.2c1-1.4,2.6-3.1,2.9-4.3c0.3-0.4,0.5-0.3,0.7-0.4
						c-0.1,0.2-0.4,0.5-0.4,0.7c0.5-0.8,1.9-2.2,1.8-2.6c0.9-0.8-0.2,0.7,0.9-0.6l-0.1,0.2c2.6-2.1,3-4.6,5.9-6.9
						c-0.2,0.2-0.3,0.2-0.4,0.3c3-3,5.6-6.6,8.6-9.5c0.8-0.8,0.8-1,1.2-1.6l0.3-0.1l0.7-1c1.1-1.4,2.3-2,3.6-3.8l-0.3,0.2
						c0.5-0.6,1.6-1.9,1.6-1.7c0-0.1,0.1-0.3,0.3-0.5h0.1l1.2-1.5c1-1.1,0,0.3,1.5-1.3c0.5-0.6,1.4-1.8,1.2-1.6
						c-0.2,0.2-0.6,0.6-0.6,0.6l0.5-0.6c0-0.2,0.3-0.7-1.1,0.6l-0.8,1L209,21l0.7-0.8c-0.5,0.4-0.7,0.7-1,1.1
						c-0.1,0-0.2,0.2-0.4,0.3l-0.7,1c-0.2,0.1,0.3-0.5-0.3,0.1c-0.3,0.5,0.5-0.3-0.1,0.4c-0.5,0.4-0.4,0.2-0.8,0.8
						c-0.1,0,0-0.1,0.2-0.3c-0.4,0.5-1.1,1.2-1.3,1.6c-0.5,0.4-1.4,1.6-1.6,1.4c-0.1,0.2-0.6,0.9-1,1.4c0.5-1-1.5,1.6-1.5,1.2
						c-0.4,0.8-1.9,2.2-2.7,3.3c0-0.1,0.1-0.2,0.2-0.3c-0.6,0.6-0.8,0.7-1.2,1c0.1,0.2-0.7,1.2-1,1.8c-0.9,0.5,0.2-0.6-0.2-0.6
						c0.2,0.1-1,1.4-0.6,1.3c-0.6,0.4-0.5,0.4-0.9,0.5c0.2,0.3-0.4,0.5-0.7,1.1c-0.9,0.7-0.4,0-1.2,0.9
						C192.2,38.4,192.8,37.5,192.8,37.5z M174.2,58.5L174.2,58.5c0.2-0.2,0.3-0.3,0.4-0.4C174.5,58.2,174.4,58.3,174.2,58.5z
						 M172.7,60.2c0.2-0.2,0.4-0.5,0.7-0.7c0.1,0,0.2,0.2,0,0.3C173.4,59.7,173,60.1,172.7,60.2z M177.7,58.1
						c-0.2,0.3-0.3,0.4-0.4,0.4c0.1-0.1,0.2-0.3,0.4-0.5c0,0,0,0,0-0.1C177.7,57.9,177.7,58,177.7,58.1z"/>
					<path class="st1" d="M177.8,57.3c0,0,0-0.1,0.1-0.1c-0.1,0-0.1,0.1-0.2,0.1c0,0.1,0,0.1,0,0.2
						C177.7,57.4,177.8,57.3,177.8,57.3z"/>
					<path class="st1" d="M178.1,34.1L178.1,34.1C178.1,34.1,178.2,34.1,178.1,34.1C178.2,34.1,178.2,34.1,178.1,34.1z"/>
					<polygon class="st1" points="149.9,83.6 150,83.6 150.1,83.4 					"/>
					<path class="st1" d="M188.4,25.8c0.1,0,0.1,0,0.2,0C188.6,25.8,188.5,25.8,188.4,25.8z"/>
					<path class="st1" d="M192.1,21.7l0.6-0.5C192.5,21.4,192.3,21.5,192.1,21.7z"/>
					<path class="st1" d="M195.1,18.6c0-0.1-0.1-0.1-0.1-0.2l0,0L195.1,18.6z"/>
					<path class="st1" d="M150.8,70.9c0,0-0.1,0.1-0.1,0.2C150.6,71.4,150.7,71.2,150.8,70.9z"/>
					<path class="st1" d="M162.9,54.3c0,0.3-0.1,0.5-0.1,0.8C163,54.8,163.2,54.6,162.9,54.3z"/>
					<path class="st1" d="M136.3,88.5L136.3,88.5l-0.1,0.1L136.3,88.5z"/>
					<path class="st1" d="M162.1,55.7c0.4-0.2,0.5-0.4,0.6-0.7C162.5,55.2,162.2,55.4,162.1,55.7z"/>
					<path class="st1" d="M207,15.8l0.2,0.1l0,0L207,15.8z"/>
					<path class="st1" d="M207.2,15.9l0.2,0.1C207.3,16,207.2,15.9,207.2,15.9z"/>
					<path class="st1" d="M207.8,16.3l-0.4-0.3C207.5,16.1,207.6,16.3,207.8,16.3z"/>
					<path class="st1" d="M202.6,12L202.6,12C202.6,12.1,202.6,12.1,202.6,12z"/>
					<path class="st1" d="M201.7,11.3c0.1,0.1,0.2,0.2,0.2,0.4c0,0.1,0,0.1,0.1,0.2s0.2,0.2,0.3,0.3h0.1c-0.1,0-0.2-0.1-0.3-0.2
						c0-0.1-0.1-0.1-0.2-0.2c0,0,0-0.1-0.1-0.1C202,11.4,201.8,11.2,201.7,11.3z"/>
					<path class="st1" d="M196.4,14.3l1.1-1c-0.3,0.1-0.7,0.2-0.2-0.3C195.7,14.1,197.8,13,196.4,14.3z"/>
					<path class="st1" d="M193.1,17.5c0.5-0.6-0.2-0.2-0.2-0.3C192.7,17.7,192.6,17.8,193.1,17.5z"/>
					<path class="st1" d="M170.8,41.2l-0.4-0.5C170,41.2,170.6,40.8,170.8,41.2z"/>
					<polygon class="st1" points="169.3,48.2 170,48 169.7,47.4 					"/>
					<polygon class="st1" points="163,47.5 163.1,47.2 162.6,48.1 					"/>
					<path class="st1" d="M126.3,88l0.9,0.5C127.3,88.1,126.5,87.3,126.3,88z"/>
					<path class="st1" d="M111.4,106.4c-0.5-0.1-1.1,0.2-1.1,0.8C110.7,106.8,111.3,106.6,111.4,106.4z"/>
					<polygon class="st1" points="148.9,91.1 148.7,91.6 149.2,90.8 					"/>
				</g>
			</g>
		</g>
	</g>
	<g>
		
			<rect x="61.4" y="-4.6" transform="matrix(0.7132 -0.701 0.701 0.7132 -27.0839 66.8379)" class="st0" width="13.4" height="142.3"/>
		<g>
			<g>
				<g>
					<path class="st1" d="M113.1,121.8c-0.1,0.1,0,0.1,0.3-0.2l0.1-0.3L113.1,121.8z"/>
					<path class="st1" d="M115.4,119.8c0.3-0.4,0.6-1,0.3-0.9c-0.2,0.5-0.4,0.6-0.6,1.1c-0.3,0.3-0.6,0.5-0.6,0.4
						c-0.1,0.1-0.5,0.5-0.6,0.7c0.5-0.4,1-0.9,1.5-1.5C115.5,119.6,115.4,119.8,115.4,119.8z"/>
					<path class="st1" d="M99.8,87.7l0.1,0.3C100,87.9,99.9,87.8,99.8,87.7z"/>
					<path class="st1" d="M81.2,67.6c0.2,0.1,0.3,0.1,0.4,0.1C81.4,67.6,81.3,67.5,81.2,67.6z"/>
					<path class="st1" d="M78.8,63.5c0,0.1,0.1,0.2,0.1,0.2C78.9,63.6,78.9,63.5,78.8,63.5z"/>
					<path class="st1" d="M99.8,87.7L99.5,87C99.3,87.1,99.6,87.4,99.8,87.7z"/>
					<path class="st1" d="M119.2,115c-0.1,0.1-0.2,0.2-0.2,0.3L119.2,115C119.2,115.1,119.2,115.1,119.2,115z"/>
					<path class="st1" d="M108.6,96l0.2,0.2c0.1,0,0.2,0,0.3-0.1L108.6,96z"/>
					<path class="st1" d="M114.9,102.8c-0.1-0.2-0.5,0.1-0.7,0.2c0.2,0,0.4,0,0.5,0.1C114.8,103,114.9,102.9,114.9,102.8z"/>
					<path class="st1" d="M121.4,114.3l-0.2,0.2C121.3,114.5,121.4,114.4,121.4,114.3z"/>
					<path class="st1" d="M104.1,91.1c0.1-0.1,0.1-0.2,0.1-0.2C104.2,90.9,104.1,91,104.1,91.1z"/>
					<path class="st1" d="M106.2,113.9C106.1,113.9,106.1,113.9,106.2,113.9L106.2,113.9z"/>
					<path class="st1" d="M113.2,122l-0.1-0.1c0,0,0,0-0.1,0L113.2,122z"/>
					<path class="st1" d="M73.7,56.5C73.7,56.5,73.7,56.6,73.7,56.5C73.9,56.7,73.8,56.6,73.7,56.5z"/>
					<path class="st1" d="M13.2,17c0.8-0.4,0.5,0.2,0.3,0.6s-0.2,0.7,0.7,0.3c-0.2,0-0.1-0.4-0.1-0.8S14,16.4,13.2,17z"/>
					<path class="st1" d="M119.4,114.9l0.3-0.3C119.5,114.7,119.5,114.8,119.4,114.9z"/>
					<path class="st1" d="M14.3,17.8L14.3,17.8l0.2-0.1C14.4,17.8,14.3,17.8,14.3,17.8z"/>
					<path class="st1" d="M59.5,42.8c-0.1,0.1-0.1,0.3-0.1,0.4C59.5,43.1,59.5,43,59.5,42.8z"/>
					<path class="st1" d="M68.9,54.2l-0.2-0.3C68.8,54,68.8,54.1,68.9,54.2z"/>
					<path class="st1" d="M53.3,38.2c-0.1-0.2,0-0.3-0.3-0.4v0.1C53.1,37.9,53.2,38,53.3,38.2z"/>
					<path class="st1" d="M47.7,32.6c0,0.1,0,0.2,0,0.2c0.1,0,0.1,0.1,0.2,0.1L47.7,32.6z"/>
					<path class="st1" d="M89.5,96.4c0.1,0.2,0.1,0.3,0.1,0.4C89.7,96.6,90.5,97.4,89.5,96.4z"/>
					<path class="st1" d="M119.3,115.1c0-0.1,0-0.1,0.1-0.2C119.3,115,119.3,115,119.3,115.1C119.2,115.1,119.3,115.2,119.3,115.1z"
						/>
					<path class="st1" d="M48,42.9l-0.8-1C47.4,42.3,47.7,42.6,48,42.9z"/>
					<path class="st1" d="M50.3,55.2l0.2,0.2C50.5,55.3,50.4,55.2,50.3,55.2z"/>
					<path class="st1" d="M44.6,39.4c0.1-0.4,0-0.7-0.1-0.9c-0.1,0-0.2,0-0.3,0.1L44.6,39.4z"/>
					<path class="st1" d="M89.6,96.8L89.6,96.8L89.6,96.8z"/>
					<path class="st1" d="M95.7,102.5c-0.8-0.9-0.6-0.2-0.9-0.3c-1-1-0.3-0.6-0.5-1.1c-0.7-0.6-1.3-0.9-1.8-1.4
						c0-0.1-0.1-0.2,0.1-0.1c-0.8-0.5-1.9-2-2.9-2.6c0-0.1,0-0.1,0-0.2c0,0.2-0.1,0.4-0.2,0.4c-0.4-0.4-0.8-0.6-0.8-0.9
						c0.2,0.2,0.3,0.2,0.5,0.3l-0.5-0.3c-0.1-0.6,0.6,0.5,0.8,0.3c-0.8-0.7-1.9-1.5-2.4-2.1c0.1-0.3,1.4,1.3,0.9,0.3l0.8,1
						c-0.3-1.1,0.5,0.6,0.3-0.4c-1.1-1.3-1.4-1.3-2.5-2.6c-0.4-0.2-0.1,0.3-0.5,0.1c-1.9-1.5-0.7-2-2.3-3c-0.5-0.2-0.9,0-1.6-1.1
						h0.6c-1.1-1.2-1.1-0.3-2.1-1.7c0.3,0.1,1,0.8,0.9,0.6c-0.5-1-0.7-0.4-1.3-1l0.1-0.4c-1.3-1.2-2.8-2.5-4.2-3.8
						c0.2,0,0.5,0.2,0.2-0.3c-1.8-1.6-3.6-3.9-5.1-5.8L70.4,76c-0.1-0.2-0.1-0.4,0.1-0.3c-0.5-0.8-0.2,0.1-0.6-0.1
						c-0.4-0.4-0.3-0.7,0-0.5c-1.4-1-3.7-2.9-4.6-4.4l0.3,0.2c-0.8-1.1-1.7-0.5-2.2-1.7l0.2,0.1c-1.9-2.2-4.4-4.3-5.5-6.4
						c-0.8,0.2-1.8-2.3-2.6-1.8c-0.8-1.5-0.4-1.3-1.8-3.2c-0.4-0.5-1.1-0.3-1.7-0.7l0.3-0.4l-1.1-0.4l0.1-0.8l-0.6-0.4
						c0.2,0.2,0.3,0.6,0.1,0.7c-1-0.7-1.7-2.3-1.5-2.5l-2.2-1.6c0.2-0.1,0.6,0.2,0.9,0.3c-1.4-0.7,0.2-0.6-1-1.2
						c0,0.2-0.3,0.2-0.4,0.2c-0.2-0.7-1.2-1.8-2.1-2.5l0.4-0.1c-1.3-1.5-3-2.9-4.6-4.5c0.4,0.7-0.2,1.1-0.7,0.6l0.3-0.6
						c-0.6,0,0.3,0.7-0.6,0.4c-0.5-0.7,0.1-0.9,0.6-0.7L39,43.1c0.1-0.2,0.3-0.1,0.5-0.2c-0.6,0-0.8-1.7-1.7-1.7l0.1-0.2
						c-1.5-1.6-2.4-2.2-3.7-3.5c-0.4,0.4-0.8-0.2-1.5-0.3c-0.8-1.1-1.5-2.5-2.7-3.6c-1-0.6-0.6,0.1-1.2,0c0.3-0.4-0.8-1.6,0-1.2
						c-1.4-1.3-1.8-1.7-3.8-3.2c0,0.3,0.2,0.6-0.1,0.6c-0.4-0.3-0.5-0.9-0.3-1h0.1c-2.5-1.4-3.2-5.7-5.6-6.5h0.1l-1-0.6l-0.5-0.3
						c-0.1,0-0.2-0.1-0.2-0.1h-0.1c-0.1-0.2,0-0.2,0.2-0.2s0.3-0.1,0.4-0.3c-0.6,0.1-0.9-0.3-1-0.5c0,0,0,0,0.1-0.1l0.1-0.1
						c0.1,0,0.1-0.1,0.2-0.1c0.1-0.1,0.1-0.2,0.1-0.4c1.2,1.2,4.1-4.1,5.3-3.7c-0.1-0.1-0.2-0.2-0.3-0.3c-0.1-0.4,0.2,0.1,0.3,0.2
						c-0.1-0.3-0.2-0.3-0.3-0.6c0.1-0.2,0.3-0.4,0.5-0.6c-0.1,0.1,2.9,4.8,5.1,7.8c1.1,1.4,2.5-1.1,3.1,1.3l-1.1,0.2
						c3.2,1.8,4.8,5.3,7.9,7c-0.3,0-0.5,0.2-0.7,0c0,1,1.8,2,2.2,1.5c0.3,0.4-0.3,0.5-0.3,0.9c0.2,0.8,1.9,0.7,1.7,1.4
						c0,0.1-0.3,0-0.4,0c0.6,0.1,1.4,1.7,1.8,0.7c0.6,1.2,2,1.5,2.3,2.6c1.2-0.2,1.2,1.9,2.3,1.1c-1.1,0.9,0.7,2.4,1.8,2.5
						c-0.5,0.1,0.2,0.8-0.5,1c0.7,0.7,1.4,1.1,1.9,0.4c0,2.4,3.4,1.5,2.5,3.7c2.5,1.4,4.6,2.9,6.6,4.4c-1.1,0.9-2-1.8-3-0.7
						c2.1,1.3,3.9,1.3,5.3,3.2c0.3,0.6-0.7,0.2-1,0.2c2.1,1.3,3.1,3.3,5.1,4.2c-0.1,0.1-0.4,0-0.6,0c0.3,0.3,0.5,0.8,1,0.3l-0.6,0.4
						c0.2-1.1,2.5-0.2,2.9-0.5C66.5,59,69.4,60,67,60.8c0.3,0.1,0.7,0.1,1-0.2c0.2,0.4,0.1,0.6-0.5,0.7c1.3,0.8,1.4,0,2.3,0.9
						c-0.2,0.2-0.5,0.1-0.9,0.3c0.9,0.1,1.8,0.1,2.4,1.1c-0.2,0.1-0.3,0.3-0.5,0.1c1.4,1.3,3.5,1.2,4.5,3.1
						c-1.4,0.5,0.2,0.8-0.5,1.7l1,0.6l0.1-0.7c0.7,0.7,1.9,0.8,2.2,1.6l-0.9-0.2l1.5,1.2l-0.5-1c1.1,0.3,0.9-1.1,1.6,0.1
						c-0.3-0.1,0.7,0.7,0.6,1.5l0,0c0.6,0.1,1.2,0.2,1.5,0.9c-0.1,0.4-1,0.7-1,1c1-0.3,1.8,1.5,2.9,1.3c-0.3,0-0.7,0.4-0.7,0.5
						l0.8-0.2c0.2,0.5,0.1,0.6-0.2,0.9c0.9,1.1,0.6-1.2,1.4,0.3c-0.1-0.1-0.2,0.1-0.4,0c1,1.4,2.6,2,3.4,3.3c-0.4,1-1.1-0.8-1.4,0.2
						c1.7,1.4,4.1,2.4,5.4,4l-0.2-0.4c1.2-0.7,0.6,1.6,1.9,1.9c-0.3-0.1-0.8,0.3-0.6,0.2c0.9,1.2,2.4,1.9,4.2,3.1H97
						c0.4,0.8,1.5,1.7,2.1,2.5c0.4,0,0.8,0.4,0.9-0.2c0.4,1.6,1.5,2.4,2.7,3.2c1.1,0.7,2.2,1.5,2.7,2.8c-0.2-0.2-0.7-0.3-0.5-0.2
						l1.7,1.3c0.2-0.4,0-0.4-0.1-1c0.4,0,1,0.3,1.3,0.7c-0.9-0.5-0.5,0.5-0.4,1c0-0.1,0.3-0.2,0.3-0.3c0.2,1.4,0.8-0.5,1.5,1
						l-0.2,0.1c0.5,0.3,1.1,0.5,1.5,1c-0.2,0.5-0.6-0.3-0.9,0c0.6,0.6,1.9,0.6,2.1,1.5c-0.4-0.2-0.7-0.5-1.1-0.7
						c0.2,1,0.4,1,0.8,1.5v-0.1l0.9,1.2l-0.2-0.4c1.6-0.1,1.8,1.4,3.3,1.9c-1.5-0.5-0.4,0.1-0.9,0.4c0.2,0.4,0.5,0.8,0.3,0.8
						c0.8,0.2,0.6,1,1.7,1.3c-0.1,0.1,0.5,0.5,0.2,0.7c0.7,0.5,0-0.3,0.2-0.4c1.3,0.7,2,2.6,3.9,3.6c0.2,0.2,0.3,0.2,0.4,0.3
						c0.1,0.1,0.2,0.1,0.3,0.2c0.2,0.1,0.5,0.2,0.6,0.4c-0.1,0.3-0.3,0.6-0.8,1.3c-0.2,0.1-0.2,0-0.2-0.2c0.1-0.2,0.2-0.3,0.2-0.3
						c-0.3,0.2-0.6,0.5-0.9,0.7c-0.3,0.3-0.5,0.6-0.8,0.9c0.1-0.2-0.1-0.1-0.3,0c-0.4,0.5-0.1,0.5-0.8,1.1c0-0.2,0.1-0.4,0.2-0.7
						c-0.5,0.6-0.9,1.3-1.4,1.9c-0.2,0.1,0.2-0.5,0.3-0.8c-0.6,0.7-1.5,1.8-1.6,2.1l0.4-0.4c-0.2,0.2-0.2,0-0.1-0.2
						c0.4-0.7,0.8-0.8,0.9-0.7l-0.4,0.4c0.7-0.1,1.6-1.7,2.4-2.5l-0.1,0.6l0.6-1.1c0.2-0.1,0.5-0.1,0.1,0.4c0.7-0.4,0.4-0.6,1.1-1
						c0.1,0,0.1,0,0,0.1l0.5-0.7c-0.1,0.2,0.4,0-0.1,0.4c0.7-0.6,1.3-1.2,1.4-1.6c-0.5-0.4-0.8-0.7-0.9-1l0.1,0.1
						c-0.2-0.2-0.4-0.4-0.6-0.5c-0.1-0.1-0.2-0.1-0.3-0.2s-0.2,0-0.2,0c-0.1,0.1-0.1,0.3-0.8-0.1c0-0.5,0-0.9,0-1.4l-0.4,0.1
						c-0.1-0.2-0.4-0.5-0.2-0.5c-0.7-0.4,0,0.2-0.5,0.1c-0.4-1-2.1-1.8-1.7-2.5c-0.5,0,0.5,0.9-0.4,0.3c0.3-0.8-1-0.8-1.3-1.7
						c0.5-0.1,0.9,0.7,0.6-0.2c-0.9,0.1-1.1-1.4-1.7-1.9c-0.5,0.4-1.3-1-2.4-1.8c0.2-0.1-1.4-2-2.1-3.1L110,98
						c-0.7,0.3-1.4-0.7-2.2-1.2c0.3-0.3,0.6-0.3,1-0.1l-0.6-0.6c-0.3,0-0.6-0.1-1-0.4l0.5-0.2c-0.8-0.8-2-1.2-2.8-2.5
						c-0.5,0.3-0.3,1.9-1.6,1.1c0.2-0.2,0.5-0.6,0.9-0.4c-0.1-0.1-0.5-0.2-0.6-0.4l0.8,0.1c-0.3-0.6-0.5,0-0.9-0.4
						c0.3-0.3-0.1-0.5,0.2-0.7c0.1,0.1,0.2,0.5,0.5,0.5c-0.4-0.5-0.7-1.2-0.6-1.6c-0.1,0.2-0.4,0.4-0.8,0.1
						c-0.8-0.8,0.1-0.7-0.2-1.3c-0.4,0-0.7-0.7-1.2-0.3c-0.2-0.2,0-0.5,0-0.7c-0.6-0.2-1.9-1.9-2-0.9l0.1,0.1h-0.1l0,0l0,0
						c-1.8-0.9-2.5-3.2-4-4.3l0.2-0.2c-1-0.6-1.9-1.7-2.8-1.9c-0.2-0.2-0.2-0.9,0.1-1c-0.7-0.5-1-0.4-1.6-1.6
						c0.9,0.3,0.1-0.5,0.9,0.4c-0.6-1-0.5-1.5-1.8-1.8c0.8-0.2,0-1.2-0.5-1.5l0.2,0.9c-0.5-0.4-0.8-0.8-1.1-1.2l0.9-0.4
						c-0.8-2.5-4.3-1.7-4.1-4.3c-0.9,0,0.5,1.2-0.4,1.4c-0.6-0.9-0.4-2.6-0.7-2.9c-0.6-1.4-1.9,0-2.7-1.4c-0.1,0.4-0.6,1.2-1.7,0.6
						c-0.7-0.9,0.1-2,0.8-1.7c0.2,0.2,0.2,0.3,0.1,0.4c0.3,0.2,0.7,0.4,0.7-0.2l-0.3,0.1c-0.1-0.6-1.2-1.7-0.5-1.8
						c-0.8-0.3-0.7,0.2-0.4,0.7c-0.6-1.3-1.5-1.6-2.2-2.8c0,0.3-0.1,0.7-0.3,0.6c-1.1-1.8-1.1-0.2-2.2-1.1c-0.2-1,1.1-0.7-0.2-1.4
						c-0.3-0.9,0.6-0.8,1-0.8c-1.4-0.4-1.3-2.1-1.7-2.7l0.7,0.3c-0.4-0.2-0.6-0.4-0.9-0.7l-0.3,0.8c-0.2-0.4-0.4-0.6-0.2-0.8
						c-0.6,0-0.7,1.1-1.7,1c-0.1-0.6-1.4-0.9-0.8-1.7c0.9,1.4,0.6-0.8,1.7,0.1c-0.3-0.1-0.5-0.4-0.7-0.7c0-0.1,0.2-0.1,0.3-0.1
						c-0.5-1.8-1.3,0.3-2.4-1c0.5-0.2,0.5-1,0.2-1.1c0.5,0.5-0.4,0.9-1.2,0.7c-0.4-1.1-1-0.6-1.4-1l0.3,0.6
						c-0.5,0.2-0.9-0.2-1.5-0.6c0.3-0.4,0.7,0.3,0.6-0.1c-1.3,0.1-0.6-2-1.8-2.4c-0.1-0.6,0.7-0.8,0.6-1.3c-1.4-0.4-0.4-1.5-1.8-2.1
						c-0.3,0.8-0.1,0.7-1.3,0.6l1.9,1.2l-1.8-0.2c0.5,0.5,1.3,0.7,1.5,1c-0.9,0-0.7-0.1-1,0.5c0.2-1.5-1.7-0.8-1.9-2.1l1.4-1.3
						c-0.5-1.7-2.7-1.3-3.8-3.1l0.2,0.7c-0.7,0.3-1-0.8-1.6-1.1c0.5-0.4,0.4-0.9,0.4-1.3c-0.3,0.4-1-1.1-2.1-0.4l-0.1-1.2
						c-0.9-1.4-2.6-0.1-3.6-1.4c0.8-0.1,0.6-1,1.7-0.5c-0.4-0.4-0.6-0.8-0.9-0.5c0.1-0.5-1.6-0.5-1.6-1.2c-0.4,0-0.9,0.4-1.3,0
						c0-0.1,0.2-0.2,0.2-0.2c-0.2,0.2-1-0.4-1.1,0.5c0.2-2.5-3.3-3.2-3.2-5.3c-1-0.7-2.1-1.5-2.9-2.3c0.2-0.1,0.2-0.2,0.3,0
						c-0.6-1.4-1.9,0.6-2.6-1c0.1-1.3,1,0.3,0.9-0.4c1.3-1.6-1.6-1.2-1.6-2.8l0.3,0.1c-0.1-1.1-2-0.9-2.9-2c0,0,0.2-0.1,0.2-0.2
						c-1.4,0-2.9-1-4-1.8c0.8-0.2,0.7,0.2,1.1-0.5c-0.5-0.3-0.7,1-1.7,0.3c0-0.6-0.4-1.4,0.1-2l0.8,0.8c0.3-1.1-1.1-1-1.4-1.5
						l0.4-0.3c-1.3-1.1-2.1-0.4-3.4-1.7L30.3,18c-1.5,0-0.2-1-1.5-1.2l0.5-1c-0.7-0.3-2.4-0.9-3.4-1.7c1,0,2.3,0.7,3.3,0.9
						c-0.5-0.5-1.7-1.5-2.3-1.4c0.3,0.1,0.7,0.2,0.8,0.5c-0.6,0-1.1-0.1-1.7-0.4c-0.3-0.1-0.5-0.2-0.8-0.5c-0.3-0.2-0.6-0.5-0.9-0.8
						c0.8-1-0.9-2.4-2.3-4c-0.8,0.7-1.5,1.2-2,1.1c-0.7,0.9-1.3,1.6-2,2.3l-0.5,0.5l-0.3,0.3c-0.2,0.2-0.5,0.4-0.7,0.6
						c-1,0.8-2,1.5-2.9,2.5c1.7,0.3-0.5,0.6,0.6,1.5c-0.5,0.6-0.8,0.9-0.9,0.9c-0.9,0.5-1.8,1-2.8,1.7c-1,0.5,0.3-0.8-0.1-0.8
						c-0.9,0.8-1.3,1-1.6,1.1c-0.2,0-0.3,0.1-0.6,0.2c-0.1,0-0.2,0.1-0.4,0.2c0,0-0.1,0-0.1,0.1c-0.1,0-0.1,0.1-0.1,0.1
						c0,0.1,0.1,0.1,0.1,0.2c0.4-0.2,1.5,0.6,2.2,1.7c-0.2-0.6-0.4-1.1-0.5-1.5c1.5,1.1,1.6,1.6,1.8,2.3c0.1,0.3,0.2,0.7,0.6,1.1
						c0.2,0.2,0.4,0.4,0.6,0.6c0.1,0.1,0.3,0.2,0.4,0.4l0.1,0.1H13c0.1,0,0.1,0.1,0.2,0.1c-0.1,0-0.2,0-0.4-0.1l-0.6-0.3
						c0.4,0.4,1.3,1.1,2.1,1.7c0.7,0.6,1.5,1.1,2.3,1.1c0,0.2-0.1,0.7-0.5,0.4c1.6,1.8,4.6,3,5.5,4.8l-0.4,0.1
						c0.4,0.3,1,0.1,1.2,0.8c-0.1,0.1-0.4,0.1-0.2,0.3c0.2,0.1,1.2,0.5,1.5,1l-0.6-0.1c1.4,1.9,3.2,1.9,4.7,3.2
						c-0.6,0.6,0.5,2.1,1,2.9l-0.1,0.1c1.9,2,3.8,2.8,5.9,4.3c0.5,1.7,3.5,4,5,6.1c-0.2-0.4,0.5-0.4,0.9-0.1c0.3,0.5,1.6,0.8,1,1.2
						l-0.1-0.2c-0.2,0.8,0.8,1.5,1.5,2.2l0.8-0.5c0.8,2.7,5,4.3,5.1,6c0.6,0.3,1.1,0.8,1.7,1.1L50.2,62c1.1,1.3,1.7,1.9,3.2,3.2
						l-0.5-0.1c0.8,0.8,1.9,0.1,2.7,0.9l-0.2,0.7c1.4,1.4,2.5,3.2,4.3,4.3c-0.1,0-0.3,0.1-0.5-0.1c0.7,0.7,2.3,2.9,2.7,2.1
						c-0.4,0.4,1.5,1.5,2.4,2.1l-0.4,0.1c1,0.3,1.1,0.2,2.1,1.1c0.2,0.3,0,0.4-0.2,0c0.6,0.9,0.8,0.3,1.5,1.3l-0.5-0.2
						c0.7,0.8,0.8,0.6,1.4,0.8c0.6,0.4,1.3,1.5,1.2,1.8c0.2,0,0.8,0.2,1.2,0.7c0,0.1-0.2,0-0.3,0c1.1,1.4,2.1,1.6,2.7,2.6
						c-0.1,0.1,0,0.2,0,0.3c-1-1-1.8-1.8-1.7-1.7c-0.2,0.2,0.5,1-0.4,0.7c0.8,0.5,2.3,1.2,2.9,2.1c0,0.1,0,0.1,0,0.2l-0.1-0.1
						c0.2,0.2,0.3,0.3,0.5,0.5c0.2,0.3,0.3,0.5,0.6,0.7c-0.1,0.3,0.8,1,1.2,1.4c0.2-0.3,0.7,0.3,0.4-0.4c0,0.1-0.1,0-0.4-0.3
						c-0.1-0.1-0.1-0.1-0.2-0.1l0,0c-0.3-0.3-0.6-0.6-1-1c0.4,0.2,0.9,0.4,1.2,1c0.3,0.1,0.7,0.1,0.9,0.2c0.2,0.9,1.1,2.1,1.1,2.4
						c1.3,1.1,3,2.8,4.1,3.1c0.4,0.3,0.3,0.5,0.4,0.7c-0.2-0.2-0.5-0.4-0.6-0.5c0.8,0.6,2.1,2,2.5,1.9c0.8,1-0.7-0.3,0.5,0.9
						l-0.2-0.1c2,2.7,4.4,3.2,6.5,6.3c-0.2-0.2-0.2-0.3-0.2-0.4c2.8,3.1,6.3,6,8.9,9.1c0.8,0.9,1,0.9,1.6,1.3l0.1,0.3l1,0.7
						c1.3,1.1,1.9,2.4,3.6,3.8l-0.1-0.3c0.5,0.6,1.8,1.7,1.6,1.7c0.1,0,0.2,0.1,0.4,0.4v0.1l1.4,1.3c1,1.1-0.3,0,1.2,1.5
						c0.6,0.6,1.8,1.5,1.6,1.3s-0.6-0.6-0.6-0.7l0.5,0.5c0.2,0,0.7,0.3-0.5-1.1l-0.9-0.9l-0.2-0.4l0.7,0.8c-0.4-0.5-0.7-0.7-1-1
						c0-0.1-0.1-0.3-0.3-0.5l-1-0.8c-0.1-0.2,0.5,0.3-0.1-0.3c-0.5-0.4,0.3,0.5-0.4-0.1c-0.4-0.5-0.2-0.4-0.7-0.9
						c0-0.1,0.1,0,0.3,0.2c-0.5-0.4-1.2-1.2-1.5-1.4c-0.4-0.5-1.5-1.5-1.3-1.6c-0.2-0.1-0.9-0.7-1.3-1.1c0.9,0.6-1.5-1.6-1.1-1.6
						c-0.7-0.4-2-2-3.1-2.9c0.1,0,0.2,0.1,0.3,0.2c-0.5-0.6-0.6-0.8-0.9-1.2c-0.2,0.1-1.1-0.8-1.7-1.1c-0.5-0.9,0.6,0.2,0.6-0.2
						c-0.1,0.2-1.3-1.1-1.2-0.7c-0.4-0.7-0.4-0.5-0.5-1c-0.3,0.1-0.5-0.5-1.1-0.8c-0.6-0.9,0.1-0.4-0.8-1.2
						C94.9,101.8,95.7,102.5,95.7,102.5z M75.8,82.7L75.8,82.7c0.2,0.2,0.3,0.3,0.4,0.4C76.2,83,76.1,82.9,75.8,82.7z M74.2,81
						c0.2,0.2,0.4,0.5,0.7,0.7c0,0.1-0.2,0.2-0.3,0C74.7,81.8,74.4,81.3,74.2,81z M76.1,86.1c-0.3-0.2-0.3-0.4-0.3-0.4
						c0.1,0.1,0.3,0.3,0.5,0.4c0,0,0,0,0.1,0C76.2,86.1,76.2,86.1,76.1,86.1z"/>
					<path class="st1" d="M76.9,86.3c0,0,0.1,0,0.1,0.1c0-0.1-0.1-0.1-0.1-0.2c-0.1,0-0.1,0-0.2,0C76.8,86.2,76.8,86.3,76.9,86.3z"
						/>
					<path class="st1" d="M100,88L100,88C100,88,100,88.1,100,88C100,88.1,100,88,100,88z"/>
					<polygon class="st1" points="52.3,56.9 52.2,57 52.4,57.1 					"/>
					<path class="st1" d="M107.6,98.7c0,0.1,0,0.1,0,0.2C107.7,98.9,107.7,98.8,107.6,98.7z"/>
					<path class="st1" d="M111.6,102.7l0.4,0.7C111.8,103.1,111.7,102.9,111.6,102.7z"/>
					<path class="st1" d="M114.5,105.9c0.1,0,0.1,0,0.2-0.1l0,0L114.5,105.9z"/>
					<path class="st1" d="M64.9,58.5l-0.1-0.1C64.3,58.3,64.6,58.4,64.9,58.5z"/>
					<path class="st1" d="M80.7,71.6c-0.3,0-0.5-0.1-0.7-0.2C80.2,71.7,80.4,71.9,80.7,71.6z"/>
					<path class="st1" d="M48.1,43.1L48.1,43.1L48,43L48.1,43.1z"/>
					<path class="st1" d="M79.3,70.7c0.1,0.4,0.4,0.6,0.7,0.7C79.8,71.1,79.6,70.8,79.3,70.7z"/>
					<path class="st1" d="M116.6,117.9l-0.1,0.1l0,0L116.6,117.9z"/>
					<path class="st1" d="M116.5,118l-0.1,0.2C116.4,118.2,116.4,118.1,116.5,118z"/>
					<path class="st1" d="M116,118.6l0.3-0.4C116.2,118.4,116.1,118.5,116,118.6z"/>
					<path class="st1" d="M120.6,113.7v-0.1C120.5,113.7,120.5,113.7,120.6,113.7z"/>
					<path class="st1" d="M121.4,112.9c-0.1,0.1-0.2,0.1-0.4,0.2c-0.1,0-0.1,0-0.2,0.1c-0.1,0.1-0.2,0.2-0.3,0.3v0.1
						c0-0.1,0.1-0.2,0.2-0.3c0.1,0,0.1-0.1,0.2-0.1c0,0,0.1,0,0.1-0.1C121.2,113.1,121.5,113,121.4,112.9z"/>
					<path class="st1" d="M118.6,107.4l0.9,1.1c-0.1-0.3-0.2-0.7,0.3-0.2C118.9,106.7,119.9,108.8,118.6,107.4z"/>
					<path class="st1" d="M115.7,104c0.6,0.5,0.2-0.2,0.3-0.2C115.5,103.5,115.4,103.4,115.7,104z"/>
					<path class="st1" d="M93.4,80.3l0.5-0.4C93.4,79.5,93.7,80,93.4,80.3z"/>
					<polygon class="st1" points="86.5,78.3 86.6,79 87.2,78.8 					"/>
					<polygon class="st1" points="87.5,72.1 87.8,72.2 86.9,71.7 					"/>
					<path class="st1" d="M49.2,33.1l-0.6,0.8C49.1,34.1,49.9,33.3,49.2,33.1z"/>
					<path class="st1" d="M31.8,17.1c0.1-0.5-0.2-1.1-0.8-1.1C31.4,16.4,31.5,17,31.8,17.1z"/>
					<polygon class="st1" points="44.8,55.5 44.4,55.2 45.1,55.8 					"/>
				</g>
			</g>
		</g>
	</g>
</g>
</svg>
