<?xml version="1.0" encoding="utf-8"?>
<!-- Generator: Adobe Illustrator 26.0.2, SVG Export Plug-In . SVG Version: 6.00 Build 0)  -->
<svg version="1.1" id="Lager_1" xmlns="http://www.w3.org/2000/svg" xmlns:xlink="http://www.w3.org/1999/xlink" x="0px" y="0px"
	 viewBox="0 0 150.4 100.7" style="enable-background:new 0 0 150.4 100.7;" xml:space="preserve">
<style type="text/css">
	.st0{fill:#232123;}
	.st1{fill:#222022;}
</style>
<g>
	<g>
		
			<rect x="72.9" y="-40.1" transform="matrix(1.299677e-03 -1 1 1.299677e-03 58.4887 98.4318)" class="st0" width="11.3" height="120.1"/>
		<g>
			<g>
				<g>
					<path class="st1" d="M138.3,25.7c0,0.1,0.1,0.1,0.1-0.3l-0.1-0.3V25.7z"/>
					<path class="st1" d="M138.5,23.1c-0.1-0.4-0.3-1-0.4-0.7c0.2,0.4,0.1,0.6,0.3,1c0,0.4,0,0.7-0.1,0.6c0,0.1,0,0.6,0.1,0.8
						c0.1-0.5,0.1-1.1,0-1.8C138.4,22.9,138.5,23.1,138.5,23.1z"/>
					<path class="st1" d="M110,13.2l0.2,0.1C110.2,13.3,110.1,13.2,110,13.2z"/>
					<path class="st1" d="M86.9,12.4c0.2,0,0.2-0.1,0.3-0.2C87,12.2,86.9,12.3,86.9,12.4z"/>
					<path class="st1" d="M83,11.2c0.1,0,0.2,0,0.2,0.1C83.1,11.2,83,11.2,83,11.2z"/>
					<path class="st1" d="M110,13.2l-0.6-0.3C109.3,13.2,109.7,13.2,110,13.2z"/>
					<path class="st1" d="M137.8,17.9c0,0.1,0.1,0.2,0.1,0.3L137.8,17.9C137.8,18,137.8,18,137.8,17.9z"/>
					<path class="st1" d="M120.2,12.9h0.2c0.1-0.1,0.1-0.2,0.2-0.3L120.2,12.9z"/>
					<path class="st1" d="M128,13.1c-0.2,0-0.2,0.4-0.3,0.6c0.1-0.2,0.2-0.3,0.4-0.3C128.1,13.3,128,13.2,128,13.1z"/>
					<path class="st1" d="M138.8,16.2v0.2C138.8,16.4,138.8,16.3,138.8,16.2z"/>
					<path class="st1" d="M114.6,12.6c0-0.1,0-0.2-0.1-0.2C114.5,12.4,114.5,12.5,114.6,12.6z"/>
					<path class="st1" d="M129.5,25L129.5,25L129.5,25z"/>
					<path class="st1" d="M138.5,25.7L138.5,25.7L138.5,25.7L138.5,25.7z"/>
					<path class="st1" d="M75.8,10L75.8,10C76,9.9,75.9,10,75.8,10z"/>
					<path class="st1" d="M15.8,24c0.3-0.7,0.5-0.2,0.7,0.1c0.2,0.3,0.4,0.5,0.7-0.4c-0.1,0.1-0.4-0.1-0.6-0.3
						C16.2,23.2,16,23.1,15.8,24z"/>
					<path class="st1" d="M137.8,17.7v-0.3C137.8,17.6,137.8,17.7,137.8,17.7z"/>
					<path class="st1" d="M17.2,23.7L17.2,23.7l0.1-0.2C17.2,23.5,17.2,23.6,17.2,23.7z"/>
					<path class="st1" d="M59.2,10.4c0,0.2,0.1,0.3,0.2,0.4C59.3,10.7,59.3,10.6,59.2,10.4z"/>
					<path class="st1" d="M71.5,11.7l-0.3-0.1C71.3,11.7,71.4,11.7,71.5,11.7z"/>
					<path class="st1" d="M52.7,11.7c-0.2-0.1-0.2-0.2-0.5-0.1c0,0,0,0.1,0.1,0.1C52.4,11.6,52.5,11.5,52.7,11.7z"/>
					<path class="st1" d="M46,11.7c0,0.1,0.1,0.1,0.1,0.2c0.1,0,0.1,0,0.2,0L46,11.7z"/>
					<path class="st1" d="M109.1,24.6c0.1,0.1,0.2,0.2,0.3,0.2C109.3,24.6,110.3,24.6,109.1,24.6z"/>
					<path class="st1" d="M137.9,17.9c-0.1,0-0.1-0.1-0.1-0.2C137.8,17.8,137.8,17.9,137.9,17.9C137.9,18,137.9,18,137.9,17.9z"/>
					<path class="st1" d="M52.4,18.7l-1.1-0.1C51.7,18.7,52.1,18.7,52.4,18.7z"/>
					<path class="st1" d="M61.1,23.6l0.2-0.1C61.3,23.6,61.2,23.6,61.1,23.6z"/>
					<path class="st1" d="M48.2,18.7c-0.2-0.3-0.4-0.5-0.6-0.6c0,0.1-0.1,0.1-0.1,0.2L48.2,18.7z"/>
					<path class="st1" d="M109.4,24.8L109.4,24.8L109.4,24.8z"/>
					<path class="st1" d="M116.4,24.4c-1,0-0.5,0.3-0.7,0.4c-1.2,0.1-0.6-0.2-1-0.4c-0.8,0.1-1.3,0.3-1.9,0.3c0-0.1-0.2-0.1,0-0.1
						c-0.8,0.2-2.4,0-3.3,0.3c-0.1,0-0.1-0.1-0.1-0.1c0.2,0.2,0.2,0.3,0.1,0.4c-0.5,0-0.8,0.2-1,0c0.3,0,0.3-0.1,0.4-0.1l-0.5,0.1
						c-0.4-0.3,0.6-0.1,0.6-0.3c-0.9,0.1-2,0.3-2.7,0.2c-0.1-0.3,1.7-0.1,0.7-0.4l1.1,0.1c-0.8-0.5,0.7,0-0.1-0.5
						c-1.4-0.1-1.6,0.1-3.1,0c-0.3,0.2,0.1,0.3-0.2,0.4c-2.1,0.3-1.6-0.9-3.1-0.5c-0.4,0.2-0.5,0.7-1.6,0.4l0.4-0.4
						c-1.4-0.1-0.8,0.6-2.3,0.3c0.3-0.2,1.1-0.1,0.9-0.2c-1-0.3-0.7,0.2-1.4,0.2l-0.2-0.4c-1.5,0-3.1,0.3-4.8,0.3
						c0.1-0.1,0.4-0.2,0-0.4c-2.1,0.2-4.4-0.1-6.5-0.4L85.3,24c-0.2,0-0.3-0.2-0.1-0.2c-0.8-0.2,0,0.2-0.4,0.4
						c-0.4,0-0.6-0.2-0.3-0.3c-1.4,0.3-3.9,0.7-5.4,0.2l0.3-0.1c-1.1-0.2-1.3,0.8-2.3,0.4l0.2-0.1c-2.5-0.2-5.2,0.1-7.1-0.6
						c-0.4,0.6-2.4-0.3-2.6,0.6c-1.4-0.5-1-0.6-3-1c-0.5-0.1-0.8,0.6-1.4,0.7v-0.5L62.3,24l-0.5-0.6l-0.6,0.1c0.2,0,0.5,0.2,0.5,0.4
						c-1,0.2-2.3-0.4-2.4-0.7L57,23.6c0.1-0.2,0.4-0.3,0.7-0.4c-1.2,0.5-0.2-0.6-1.3-0.1c0.1,0.1-0.1,0.3-0.1,0.4
						c-0.6-0.3-1.8-0.4-2.7-0.2l0.2-0.4c-1.7-0.1-3.5,0.1-5.4,0.1c0.7,0.2,0.5,0.9,0,0.9l-0.2-0.6c-0.4,0.4,0.6,0.2-0.2,0.7
						c-0.7-0.1-0.5-0.7-0.1-0.9L47,23.3c-0.1-0.2,0.2-0.3,0.2-0.5c-0.4,0.4-1.5-0.7-2,0v-0.2c-1.9,0-2.7,0.2-4.3,0.2
						c0,0.6-0.6,0.4-1.1,0.9c-1.1-0.2-2.4-0.7-3.7-0.6c-1,0.3-0.3,0.5-0.7,0.8c-0.1-0.5-1.4-0.5-0.7-0.9c-1.6,0.1-2.1,0.1-4.2,0.5
						c0.2,0.2,0.5,0.3,0.3,0.5c-0.4,0.1-0.9-0.2-0.8-0.5l0.1-0.1c-2.3,0.8-5.3-1.7-7.2-0.6l0.1-0.1L22,23c-0.2,0.1-0.3,0.2-0.5,0.3
						c-0.2,0-0.1-0.1,0-0.3c0.1-0.1,0.2-0.3,0.1-0.5c-0.4,0.5-0.8,0.4-0.9,0.4c0-0.1,0.1-0.3,0.1-0.4s0-0.2-0.2-0.3
						c0.4-0.3,0.6-0.4,0.7-0.5c0.1-0.4,0.1-1.1,0-1.7c0-0.6-0.1-1.2-0.1-1.8c0-0.1,0-0.3,0-0.4c0,0,0,0,0.1-0.1c0.1,0,0.1-0.1,0.3,0
						l-0.4-0.1c-0.4-0.2,0.2,0,0.3,0c-0.3-0.2-0.4-0.1-0.6-0.3c-0.1-0.2-0.1-0.4-0.1-0.7c0.2,0,0.6,0.1,0.8,0.3
						c0.1,0.1,0.2,0.2,0.3,0.3c0,0,0.1,0,0.2,0.1l0.3,0.1l0.6,0.1c1.7,0.4,3.3,0.8,5,1c1.5,0.2,0.8-2.6,2.7-1.3l-0.5,0.9
						c2.9-1,6,0.3,8.9-0.7c-0.2,0.2-0.2,0.5-0.5,0.5c0.6,0.7,2.2,0.1,2.3-0.5c0.4,0.1,0.1,0.5,0.4,0.9c0.6,0.5,1.5-0.9,1.9-0.2
						c0.1,0.1-0.2,0.2-0.3,0.3c0.4-0.4,1.9,0.1,1.5-0.7c1.1,0.4,2.1-0.4,2.9,0.2c0.6-1,1.9,0.5,2-0.9c-0.1,1.4,1.9,1.2,2.6,0.5
						c-0.2,0.4,0.6,0.5,0.3,1.1c0.8,0,1.5-0.3,1.4-1c1.4,1.7,2.9-1.4,3.7,0.8c2.3-0.8,4.5-1.3,6.5-1.6c-0.1,1.4-2.3,0.1-2.2,1.7
						c2-0.6,3.1-1.8,5.1-1.5c0.5,0.2-0.3,0.6-0.5,0.9c2-0.6,3.8,0.1,5.6-0.7c0,0.1-0.2,0.3-0.4,0.4c0.3,0,0.8,0.2,0.8-0.4l-0.3,0.2
						c-0.6-0.9,1.4-2,1.4-2.5c-0.6,1.8,1.7,0.5,0.8,2.8c0.2-0.1,0.5-0.4,0.5-0.9c0.3,0.1,0.4,0.4,0.1,0.9c1.2-0.4,0.8-1,1.9-1
						c0,0.3-0.2,0.4-0.3,0.8c0.6-0.6,1.1-1.2,2.1-1c-0.1,0.2,0.1,0.4-0.2,0.4c1.6-0.1,2.8-1.6,4.6-1c-0.5,1.3,0.6,0.4,0.7,1.5l1-0.3
						l-0.4-0.5c0.8,0,1.6-0.8,2.3-0.5l-0.6,0.5l1.6-0.2L86.5,16c0.9-0.6-0.1-1.4,1-1.1c-0.2,0.1,0.8,0,1.3,0.7l0,0
						c0.4-0.3,0.8-0.7,1.5-0.4c0.2,0.3-0.1,1.2,0,1.4c0.4-0.9,2-0.3,2.5-1.2c-0.2,0.2-0.2,0.8-0.1,0.9l0.3-0.7
						c0.4,0.2,0.4,0.3,0.4,0.8c1.2,0.1-0.4-1.3,1-0.8c-0.1,0.1-0.1,0.2-0.3,0.3c1.4,0.3,2.7-0.5,4-0.1c0.4,1-1.1,0.3-0.7,1.1
						c1.9-0.2,3.8-1.3,5.6-1.1l-0.3-0.1c0.3-1.4,1.3,0.7,2.2,0c-0.2,0.1-0.3,0.7-0.2,0.6c1.2,0.2,2.5-0.4,4.4-0.8l-0.2,0.3
						c0.7,0.3,1.9,0.1,2.7,0.3c0.2-0.3,0.7-0.3,0.4-0.7c1.2,0.9,2.4,0.6,3.5,0.3c1.1-0.3,2.2-0.6,3.3,0.1c-0.3,0-0.6,0.3-0.4,0.3
						l1.8-0.3c-0.1-0.5-0.2-0.3-0.6-0.6c0.2-0.3,0.7-0.5,1.2-0.5c-0.8,0.3,0,0.7,0.4,1c-0.1-0.1,0.1-0.3,0-0.4
						c1,0.8,0.2-0.9,1.5-0.4l-0.1,0.2c0.5-0.1,0.9-0.4,1.5-0.4c0.2,0.5-0.5,0.2-0.6,0.6c0.7,0,1.5-0.9,2.1-0.5
						c-0.3,0.1-0.8,0.1-1.1,0.3c0.7,0.6,0.8,0.4,1.4,0.5h-0.1l1.2,0.2l-0.3-0.1c0.9-1.2,1.9-0.3,3.1-1c-1.2,0.7-0.2,0.4-0.3,0.9
						c0.3,0.1,0.8,0.2,0.7,0.4c0.6-0.4,1,0.2,1.8-0.3c0,0.1,0.6,0,0.5,0.3c0.8-0.1-0.2-0.2-0.1-0.4c1.2-0.5,2.8,0.4,4.5-0.2
						c0.4-0.1,0.9-0.3,1.3-0.4c0.1,0.2,0.2,0.5,0.3,1.2c-0.1,0.2-0.2,0.1-0.2,0c-0.1-0.1-0.1-0.3-0.1-0.3c-0.2,0.6-0.1,1.2,0,1.9
						c-0.1-0.1-0.1,0-0.2,0.2c0,0.6,0.3,0.4,0.2,1.1c-0.1-0.1-0.2-0.3-0.3-0.6c0.1,0.7,0.3,1.3,0.4,2c-0.1,0.2-0.2-0.4-0.3-0.7
						c0.1,0.8,0.2,2,0.4,2.2v-0.5c0,0.3-0.1,0.1-0.2-0.1c-0.2-0.7,0-0.9,0.1-1l0.1,0.5c0.4-0.5-0.1-1.9-0.1-2.9l0.4,0.4
						c-0.1-0.3-0.2-0.7-0.3-1c0.1-0.2,0.3-0.4,0.4,0.1c0.2-0.7-0.1-0.6,0.1-1.2c0-0.1,0.1,0,0.1,0l-0.1-0.8c0.1,0.1,0.3-0.3,0.2,0.3
						c0.1-0.4,0.1-0.8,0.1-1.1c0-0.2,0-0.3,0-0.4v-0.2c0,0,0-0.1-0.1-0.1c-0.6,0.1-0.9,0.1-1.1-0.1h0.1c-1.1,0.1-1,0.2-1.1,0.3
						c0,0.1,0.1,0.3-0.6,0.5c-0.3-0.3-0.6-0.6-0.9-0.9l-0.2,0.4c-0.2,0-0.5-0.1-0.5-0.2c-0.7,0.3,0.1,0.2-0.3,0.4
						c-0.8-0.4-2.3,0.2-2.5-0.5c-0.3,0.3,0.8,0.3-0.1,0.5c-0.3-0.8-1,0.1-1.8-0.2c0.2-0.4,1-0.2,0.2-0.6c-0.5,0.7-1.5-0.2-2.2-0.1
						c0,0.6-1.4,0.2-2.5,0.4c0.1-0.2-2.1-0.4-3.1-0.7v-0.1c-0.2,0.7-1.2,0.5-2,0.7c0-0.4,0.2-0.6,0.6-0.8h-0.7
						c-0.2,0.2-0.4,0.3-0.9,0.4l0.2-0.5c-1,0-1.9,0.6-3.2,0.2c-0.1,0.6,1,1.5-0.3,1.9c0-0.3-0.1-0.8,0.2-0.9c-0.1,0-0.4,0.2-0.6,0.1
						l0.5-0.5c-0.6-0.2-0.3,0.4-0.7,0.4c0-0.4-0.3-0.3-0.3-0.7c0.1,0,0.4,0.2,0.6,0c-0.5-0.1-1.1-0.4-1.3-0.7c0,0.2,0,0.6-0.4,0.6
						c-1,0-0.3-0.5-0.9-0.8c-0.2,0.3-0.8,0-0.9,0.6c-0.3,0-0.3-0.3-0.4-0.5c-0.5,0.3-2.3,0-1.8,0.8l0.1,0.1h-0.1l0,0l0,0
						c-1.6,0.7-3.4-0.5-5-0.2v-0.2c-1,0.3-2.1,0.1-2.8,0.7c-0.3,0-0.7-0.5-0.5-0.8c-0.7,0.2-0.8,0.5-1.9,0c0.7-0.4-0.3-0.4,0.8-0.3
						c-1-0.2-1.2-0.7-2.2,0c0.3-0.7-0.7-0.9-1.2-0.7l0.7,0.5c-0.5,0.1-1,0-1.4,0l0.2-0.9c-2-1.2-3.5,1.9-5-0.1
						c-0.5,0.7,1.1,0.5,0.6,1.3c-0.9-0.1-1.8-1.5-2.1-1.5c-1.2-0.6-1.1,1.4-2.4,1c0.2,0.4,0.3,1.3-0.6,1.6c-0.9-0.1-1.1-1.5-0.5-1.8
						c0.2,0,0.3,0.1,0.3,0.2c0.3-0.1,0.7-0.3,0.3-0.7l-0.1,0.3C87,11.5,85.7,11.6,86,11c-0.7,0.3-0.3,0.6,0.2,0.8
						c-1.2-0.5-1.8,0-3-0.4c0.2,0.2,0.4,0.6,0.2,0.6c-1.7-0.5-0.8,0.7-1.9,0.8c-0.7-0.6,0.2-1.3-0.9-0.9c-0.7-0.4-0.2-1,0.1-1.3
						c-1.1,0.7-2-0.5-2.6-0.6l0.6-0.3c-0.3,0.2-0.6,0.2-0.9,0.2l0.3,0.7c-0.3-0.1-0.6-0.1-0.6-0.4c-0.3,0.5,0.3,1.2-0.4,1.9
						c-0.4-0.4-1.4,0.4-1.5-0.6c1.4,0.3-0.2-1,1-1.1c-0.2,0.1-0.5,0.1-0.8,0c-0.1-0.1,0-0.2,0.1-0.3c-1.3-0.9-0.6,1.1-2,1.1
						c0.2-0.6-0.3-1.1-0.5-0.9c0.6,0,0.3,0.9-0.2,1.4c-0.9-0.4-1,0.3-1.4,0.3l0.5,0.2c-0.2,0.6-0.6,0.5-1.2,0.7
						c-0.1-0.4,0.6-0.3,0.3-0.5c-0.7,1-1.6-1-2.5-0.4c-0.4-0.4,0-1.1-0.4-1.3c-1.1,0.7-1.2-0.8-2.3-0.2c0.3,0.8,0.4,0.6-0.4,1.3
						l1.9-0.5l-1.2,1.1c0.6,0,1.2-0.5,1.5-0.3c-0.6,0.6-0.5,0.4-0.2,1.1c-0.8-1.1-1.5,0.7-2.4-0.1v-1.9c-1.3-0.8-2.4,1-4.1,0.5
						l0.6,0.3c-0.2,0.7-1.1,0.1-1.6,0.4c0.1-0.6-0.3-0.9-0.5-1.3c0,0.5-1.3,0-1.4,1.2l-0.8-0.8c-1.4-0.3-1.6,1.8-3,1.6
						c0.4-0.7-0.2-1.1,0.7-1.6c-0.5,0-0.9-0.1-0.9,0.3c-0.3-0.4-1.2,0.8-1.7,0.3c-0.2,0.3-0.3,0.9-0.8,0.9c-0.1-0.1,0-0.3,0-0.3
						c0,0.3-0.8,0.4-0.4,1.1c-1.4-1.9-3.9,0.1-5.1-1.5c-1,0.2-2.2,0.4-3.1,0.5c0.1-0.2,0-0.3,0.2-0.2c-1.2-0.6-0.8,1.8-2.2,1.1
						c-0.7-1,0.7-0.5,0.3-0.9c-0.2-2-1.7,0.3-2.6-0.9l0.2-0.1c-0.7-0.7-1.8,0.8-2.9,0.6c0,0,0.1-0.2,0-0.3c-0.8,1-2.3,1.3-3.5,1.6
						c0.4-0.7,0.5-0.4,0.3-1.1c-0.5,0.1,0.1,1.2-0.9,1.4c-0.3-0.4-1.1-0.7-1.2-1.5l1-0.1c-0.5-1-1.2,0.1-1.7-0.1l0.1-0.4
						c-1.5,0.2-1.5,1.3-3.1,1.2l0.2,0.3c-0.9,1.1-0.7-0.6-1.6,0.2l-0.3-1.1c-0.6,0.3-2,1.1-3,1.3c0.6-0.8,1.8-1.2,2.5-1.7
						c-0.6,0-1.9,0.1-2.2,0.7c0.2-0.1,0.5-0.4,0.7-0.2c-0.3,0.4-0.7,0.7-1.2,0.9c-0.6,0.2-1.2,0.3-1.8,0.3c-0.3-1.3-2.1-1.1-3.9-1.2
						c-0.1,0.8-0.2,1.6-0.7,1.7c0.2,1,0.3,1.8,0.3,2.6c0,0.4,0,0.8,0,1.2c0,0.2,0,0.3,0,0.5V19c-0.1,1-0.3,2.1-0.3,3.2
						c0.7-0.4,0.7-0.2,0.7,0c0,0.4,0,0.9,0.7,0.7c0.1,0.7,0.1,1,0,1.1c-0.3,0.8-0.5,1.8-0.8,2.8c-0.4,0.9-0.3-0.6-0.6-0.3
						c0,1-0.2,1.4-0.3,1.7c-0.1,0.1-0.2,0.3-0.3,0.5c0,0.1-0.1,0.2-0.1,0.4v0.1v0.1c0,0,0.1,0.1,0.2,0.1c0.2-0.5,1.4-0.6,2.4-0.4
						c-0.4-0.2-0.8-0.5-1.1-0.7c1.6-0.3,1.9,0,2.4,0.3c0.4,0.3,1.1,0.6,2.7,0.2c-0.3,0.1-0.7,0.3-1.1,0.4c0.4-0.1,1-0.1,1.7-0.1
						c0.4,0,0.8-0.1,1.2-0.1c0.8-0.1,1.6-0.3,2-0.9c0.2,0.2,0.3,0.5,0,0.6c2,0.1,4.5-1.2,6.1-0.6l-0.2,0.3c0.4-0.1,0.7-0.6,1.1-0.3
						c0,0.1-0.2,0.3,0,0.3c0.2-0.1,1-0.6,1.5-0.4l-0.4,0.4c2,0.4,3-0.9,4.7-1.1c0,0.9,1.6,1.2,2.3,1.3v0.1c2.3,0.1,3.9-0.8,6.1-1.1
						c1.3,0.9,4.5,0.3,6.6,0.8c-0.3-0.1,0.1-0.6,0.4-0.7c0.5,0.2,1.4-0.6,1.3,0.2H55c0.4,0.7,1.4,0.5,2.2,0.5l0.1-0.9
						c2.1,1.3,5.5-0.5,6.7,0.6c0.5-0.2,1.1-0.2,1.6-0.5v0.5c1.4,0.1,2.1,0.1,3.8,0L69,28.4c1,0,1.2-1.3,2.1-1.3l0.3,0.6
						c1.7,0,3.4,0.5,5.1-0.1c0,0.1-0.1,0.3-0.4,0.3c0.8,0,3.1,0.3,2.8-0.5c0,0.5,1.8,0,2.7-0.2l-0.1,0.4c0.8-0.5,0.8-0.6,1.9-0.8
						c0.3,0,0.2,0.3-0.1,0.2c0.9,0.2,0.7-0.4,1.7-0.2L84.6,27c0.9,0,0.8-0.1,1.3-0.4c0.6-0.1,1.7,0.1,1.8,0.4
						c0.1-0.2,0.6-0.5,1.1-0.4c0.1,0.1-0.1,0.2-0.2,0.2c1.5,0.2,2.2-0.4,3.2-0.1c0,0.1,0.1,0.2,0.2,0.2c-1.2,0-2.1,0-2,0
						c0,0.3,0.9,0.3,0.2,0.8c0.8-0.3,2.1-0.8,3-0.6l0.1,0.1h-0.1c0.2,0,0.4,0,0.6-0.1c0.3,0,0.5,0.1,0.8,0.1
						c0.1,0.2,1.1,0.1,1.6,0.1c0-0.3,0.6-0.3,0-0.5c0.1,0-0.1,0-0.4,0.1c-0.1,0-0.2,0-0.2,0l0,0c-0.3,0-0.7,0-1.2,0
						c0.4-0.2,0.8-0.3,1.3-0.1c0.2-0.2,0.5-0.4,0.7-0.5c0.6,0.4,1.9,0.6,2.1,0.9c1.4-0.2,3.4-0.2,4.3-0.7c0.4-0.1,0.5,0.1,0.6,0.2
						c-0.2,0.1-0.5,0.1-0.6,0.1c0.8-0.1,2.4-0.1,2.6-0.4c1,0.1-0.6,0.3,0.8,0.3l-0.2,0.1c2.8,0.5,4.6-0.9,7.7-0.3
						c-0.2,0-0.3-0.1-0.4-0.1c3.5,0.2,7.3-0.3,10.8,0c1,0,1.1-0.1,1.7-0.2l0.2,0.2l1-0.2c1.5-0.1,2.5,0.3,4.4,0.1l-0.2-0.1
						c0.7,0,2.1-0.1,2,0c0.1,0,0.2-0.1,0.5,0v0.1l1.6-0.1c1.3,0-0.2,0.2,1.7,0.2c0.7,0,2-0.2,1.7-0.2s-0.7,0-0.7-0.1h0.6
						c0.1-0.1,0.6-0.3-0.9-0.4l-1.1,0.1l-0.3-0.1h0.9c-0.5-0.1-0.8,0-1.2,0c-0.1,0-0.2-0.1-0.5-0.1l-1.3-0.3
						c-0.1-0.1,0.5-0.1-0.2-0.2c-0.5,0.1,0.5,0.2-0.3,0.2c-0.5-0.1-0.4-0.2-1-0.1c-0.1-0.1,0-0.1,0.3-0.1c-0.5,0-1.4,0-1.7,0.1
						c-0.5-0.1-1.8,0-1.8-0.2c-0.2,0-0.9,0.1-1.4,0.1c0.9-0.3-1.9-0.1-1.6-0.4c-0.7,0.2-2.4,0-3.6,0.2c0.1,0,0.2-0.1,0.3,0
						c-0.7,0-0.9-0.1-1.3-0.2c-0.1,0.2-1.1,0.3-1.7,0.4c-0.8-0.3,0.5-0.3,0.2-0.5c0,0.2-1.4,0.2-1.1,0.4c-0.6-0.2-0.5-0.1-0.9-0.3
						c-0.1,0.3-0.6,0-1.1,0.2c-0.9-0.2-0.2-0.3-1.2-0.3C115.6,24.5,116.4,24.4,116.4,24.4z M92.8,24.7L92.8,24.7c0.2,0,0.4,0,0.5,0
						C93.2,24.7,93,24.7,92.8,24.7z M90.8,24.7c0.2,0,0.5,0,0.9,0c0.1,0.1,0,0.2-0.2,0.2C91.6,24.9,91.1,24.8,90.8,24.7z M95,27
						c-0.3,0.1-0.4,0-0.5-0.1c0.1,0,0.3,0,0.6,0l0,0C95.1,26.9,95.1,26.9,95,27z"/>
					<path class="st1" d="M95.6,26.5L95.6,26.5C95.6,26.5,95.6,26.5,95.6,26.5c-0.1-0.1-0.1,0-0.2,0C95.5,26.5,95.5,26.5,95.6,26.5z
						"/>
					<path class="st1" d="M110.3,13.3L110.3,13.3C110.3,13.3,110.3,13.4,110.3,13.3C110.3,13.4,110.3,13.4,110.3,13.3z"/>
					<polygon class="st1" points="63.3,23.4 63.4,23.6 63.5,23.5 					"/>
					<path class="st1" d="M121.2,15.4l0.1,0.1C121.4,15.5,121.3,15.5,121.2,15.4z"/>
					<path class="st1" d="M126,15.4l0.7,0.2C126.3,15.5,126.1,15.4,126,15.4z"/>
					<path class="st1" d="M129.6,15.5c0-0.1,0.1-0.1,0.1-0.2l0,0L129.6,15.5z"/>
					<path class="st1" d="M71.8,17.7L71.8,17.7C71.3,17.9,71.5,17.8,71.8,17.7z"/>
					<path class="st1" d="M89,15.5c-0.2,0.1-0.4,0.3-0.6,0.4C88.7,16,89,16,89,15.5z"/>
					<path class="st1" d="M52.6,18.8C52.6,18.7,52.6,18.8,52.6,18.8L52.6,18.8L52.6,18.8z"/>
					<path class="st1" d="M87.6,15.9c0.3,0.2,0.6,0.1,0.8,0C88.2,15.9,87.9,15.8,87.6,15.9z"/>
					<path class="st1" d="M138,21.2v0.2l0,0V21.2z"/>
					<path class="st1" d="M138,21.4v0.2C138,21.5,138,21.4,138,21.4z"/>
					<path class="st1" d="M138.1,22l-0.1-0.4C138,21.7,138,21.9,138.1,22z"/>
					<path class="st1" d="M137.8,16.4l-0.1-0.1C137.7,16.4,137.8,16.4,137.8,16.4z"/>
					<path class="st1" d="M137.8,15.5c0,0.1,0,0.2-0.1,0.4c0,0.1-0.1,0.1-0.1,0.2c0,0.1,0,0.1,0,0.2h0.1c0,0-0.1-0.2,0-0.2
						c0-0.1,0.1-0.1,0.1-0.2C137.9,15.7,137.9,15.5,137.8,15.5z"/>
					<path class="st1" d="M133,13.7l1.2,0.1c-0.2-0.1-0.5-0.4,0.1-0.4C132.7,13,134.6,13.8,133,13.7z"/>
					<path class="st1" d="M129.2,13.3c0.7-0.1,0-0.2,0-0.3C128.8,13.1,128.7,13.2,129.2,13.3z"/>
					<path class="st1" d="M101.7,12.6l0.1-0.7C101.3,12,101.8,12.2,101.7,12.6z"/>
					<polygon class="st1" points="96.5,16.2 96.9,16.6 97.2,16 					"/>
					<polygon class="st1" points="93.4,11.1 93.6,11 92.7,11.2 					"/>
					<path class="st1" d="M47.2,10.9l0.2,1C47.7,11.7,47.8,10.6,47.2,10.9z"/>
					<path class="st1" d="M27.3,12.2c-0.2-0.4-0.8-0.7-1.1-0.3C26.6,12,27.1,12.3,27.3,12.2z"/>
					<polygon class="st1" points="58.1,27.7 57.7,27.9 58.4,27.7 					"/>
				</g>
			</g>
		</g>
	</g>
	<g>
		
			<rect x="73.1" y="23.4" transform="matrix(1.299677e-03 -1 1 1.299677e-03 -5.1004 161.7558)" class="st0" width="10.6" height="120.1"/>
		<g>
			<g>
				<g>
					<path class="st1" d="M138.2,88.8c0,0.1,0.1,0.1,0.1-0.3l-0.1-0.3V88.8z"/>
					<path class="st1" d="M138.4,86.3c-0.1-0.4-0.3-1-0.4-0.7c0.2,0.4,0.1,0.5,0.3,1c0,0.4,0,0.7-0.1,0.6c0,0.1,0,0.6,0.1,0.8
						c0.1-0.5,0.1-1.1,0-1.8C138.3,86.1,138.4,86.3,138.4,86.3z"/>
					<path class="st1" d="M109.5,77.1l0.2,0.1C109.6,77.1,109.6,77.1,109.5,77.1z"/>
					<path class="st1" d="M86.5,76.2c0.2,0,0.2-0.1,0.3-0.2C86.6,76.1,86.5,76.2,86.5,76.2z"/>
					<path class="st1" d="M82.6,75.1c0.1,0,0.2,0,0.2,0.1C82.7,75.1,82.6,75,82.6,75.1z"/>
					<path class="st1" d="M109.5,77.1l-0.6-0.3C108.8,77.1,109.2,77,109.5,77.1z"/>
					<path class="st1" d="M137.7,81.2c0,0.1,0.1,0.2,0.1,0.3L137.7,81.2C137.8,81.2,137.7,81.2,137.7,81.2z"/>
					<path class="st1" d="M119.6,76.7h0.2c0.1-0.1,0.1-0.2,0.2-0.3L119.6,76.7z"/>
					<path class="st1" d="M127.4,76.9c-0.2,0-0.2,0.4-0.3,0.6c0.1-0.2,0.2-0.3,0.4-0.3C127.4,77.2,127.4,77,127.4,76.9z"/>
					<path class="st1" d="M138.7,79.3v0.3C138.8,79.5,138.7,79.4,138.7,79.3z"/>
					<path class="st1" d="M114,76.4c0-0.1,0-0.2-0.1-0.2C114,76.3,114,76.4,114,76.4z"/>
					<path class="st1" d="M129.4,88.2L129.4,88.2C129.5,88.2,129.5,88.2,129.4,88.2z"/>
					<path class="st1" d="M138.4,88.9L138.4,88.9L138.4,88.9L138.4,88.9z"/>
					<path class="st1" d="M75.4,73.9L75.4,73.9C75.6,73.8,75.5,73.8,75.4,73.9z"/>
					<path class="st1" d="M15.7,88.2c0.3-0.8,0.5-0.3,0.7,0s0.4,0.4,0.7-0.5c-0.1,0.1-0.4-0.1-0.7-0.2
						C16.2,87.4,15.9,87.3,15.7,88.2z"/>
					<path class="st1" d="M137.7,81v-0.3C137.7,80.8,137.7,80.9,137.7,81z"/>
					<path class="st1" d="M17.1,87.7L17.1,87.7l0.1-0.2C17.1,87.6,17.1,87.6,17.1,87.7z"/>
					<path class="st1" d="M58.9,74.3c0,0.2,0.1,0.3,0.2,0.4C59,74.6,59,74.5,58.9,74.3z"/>
					<path class="st1" d="M71.2,75.6l-0.3-0.1C71,75.6,71.1,75.6,71.2,75.6z"/>
					<path class="st1" d="M52.5,75.5c-0.2-0.1-0.2-0.2-0.4-0.1c0,0,0,0.1,0.1,0.1C52.2,75.5,52.3,75.4,52.5,75.5z"/>
					<path class="st1" d="M45.8,75.6c0,0.1,0.1,0.1,0.1,0.2c0.1,0,0.1,0,0.2,0L45.8,75.6z"/>
					<path class="st1" d="M109.2,87.8c0.1,0.1,0.2,0.2,0.3,0.2C109.4,87.8,110.4,87.8,109.2,87.8z"/>
					<path class="st1" d="M137.9,81.2c-0.1,0-0.1-0.1-0.1-0.2C137.8,81,137.8,81.1,137.9,81.2C137.8,81.2,137.8,81.2,137.9,81.2z"/>
					<path class="st1" d="M52.2,82.6l-1.1-0.1C51.4,82.5,51.8,82.6,52.2,82.6z"/>
					<path class="st1" d="M61.5,86.8l0.2-0.1C61.6,86.7,61.5,86.8,61.5,86.8z"/>
					<path class="st1" d="M48,82.5c-0.2-0.3-0.4-0.5-0.6-0.6c0,0.1-0.1,0.1-0.1,0.2L48,82.5z"/>
					<path class="st1" d="M109.5,88L109.5,88L109.5,88z"/>
					<path class="st1" d="M116.5,87.6c-1,0-0.5,0.3-0.7,0.4c-1.2,0.1-0.6-0.2-1-0.4c-0.8,0.1-1.3,0.3-1.9,0.3c0-0.1-0.2-0.1,0-0.1
						c-0.8,0.2-2.4,0-3.3,0.3c-0.1,0-0.1-0.1-0.1-0.1c0.1,0.2,0.2,0.3,0.1,0.4c-0.5,0-0.8,0.2-1,0c0.3,0,0.3-0.1,0.4-0.1l-0.5,0.1
						c-0.4-0.3,0.6-0.1,0.6-0.3c-0.9,0.1-2,0.3-2.7,0.2c-0.1-0.3,1.7-0.1,0.7-0.4l1.1,0.1c-0.8-0.5,0.7,0-0.1-0.5
						c-1.4-0.1-1.6,0.1-3,0c-0.3,0.2,0.1,0.3-0.2,0.4c-2,0.3-1.6-0.9-3.1-0.5c-0.4,0.2-0.5,0.7-1.6,0.4l0.4-0.4
						c-1.4-0.1-0.8,0.6-2.3,0.3c0.3-0.2,1.1-0.1,0.9-0.2c-0.9-0.3-0.7,0.2-1.4,0.2l-0.2-0.4c-1.5,0-3.1,0.3-4.8,0.3
						c0.1-0.1,0.4-0.2,0-0.4c-2.1,0.2-4.4-0.1-6.4-0.4l-0.8,0.4c-0.2,0-0.3-0.2-0.1-0.2c-0.8-0.2,0,0.2-0.4,0.4
						c-0.4,0-0.6-0.2-0.3-0.3c-1.4,0.3-3.9,0.7-5.4,0.2l0.3-0.1c-1.1-0.2-1.3,0.8-2.3,0.4l0.2-0.1c-2.4-0.2-5.2,0.1-7-0.6
						c-0.4,0.6-2.4-0.3-2.6,0.6c-1.4-0.5-1-0.6-3-1c-0.5-0.1-0.8,0.6-1.4,0.7v-0.5l-0.9,0.5l-0.5-0.6l-0.6,0.1
						c0.2,0,0.5,0.2,0.5,0.4c-1,0.2-2.3-0.4-2.3-0.7l-2.3,0.4c0.1-0.2,0.4-0.3,0.7-0.4c-1.2,0.5-0.2-0.6-1.3-0.1
						c0.1,0.1-0.1,0.3-0.1,0.4c-0.5-0.3-1.8-0.4-2.7-0.2l0.2-0.4c-1.7-0.1-3.5,0.1-5.4,0.1c0.7,0.2,0.5,0.9,0,0.9l-0.2-0.6
						c-0.4,0.4,0.6,0.2-0.2,0.7c-0.7-0.1-0.5-0.7-0.1-0.9l-0.9,0.2c0-0.2,0.2-0.3,0.2-0.5c-0.4,0.4-1.5-0.7-2,0v-0.2
						c-1.9,0-2.7,0.2-4.3,0.2c0,0.6-0.6,0.4-1.1,0.9c-1.1-0.2-2.4-0.7-3.7-0.6c-1,0.3-0.3,0.5-0.7,0.8c-0.1-0.5-1.4-0.5-0.7-0.9
						c-1.6,0.1-2.1,0.1-4.1,0.5c0.2,0.2,0.5,0.3,0.3,0.5c-0.4,0.1-0.8-0.2-0.8-0.5l0.1-0.1c-2.3,0.8-5.3-1.7-7.2-0.6l0.1-0.1l-1,0.3
						c-0.3,0.1-0.7,0.2-0.8,0.3c-0.2,0-0.1-0.2,0-0.3c0.1-0.1,0.1-0.3,0.1-0.5c-0.1,0.3-0.3,0.4-0.5,0.4s-0.3,0-0.4,0
						c-0.1,0-0.2-0.1-0.1-0.2c0-0.1,0-0.2-0.2-0.2c0.4-0.4,0.6-0.5,0.7-0.6c0,0,0,0,0-0.1c0,0,0,0,0-0.2c0-0.3,0-0.6,0-0.9
						c0-0.6-0.1-1.2-0.1-1.8c0-0.1,0-0.3,0-0.4c0,0,0,0,0.1-0.1c0.1,0,0.1-0.1,0.3,0l-0.4-0.1c-0.4-0.2,0.2,0,0.3,0
						c-0.3-0.2-0.4-0.1-0.6-0.3c-0.1-0.2-0.1-0.4-0.1-0.6c0.2,0,0.6,0.1,0.8,0.3c0.1,0.1,0.2,0.2,0.3,0.3c0,0,0.1,0,0.2,0.1l0.3,0.1
						l0.6,0.1c1.7,0.4,3.3,0.8,5,1c1.5,0.2,0.8-2.6,2.7-1.3l-0.5,0.9c2.9-1,6,0.3,8.9-0.7c-0.2,0.2-0.2,0.5-0.5,0.5
						c0.6,0.7,2.2,0.1,2.2-0.5c0.4,0.1,0.1,0.5,0.4,0.9c0.6,0.5,1.5-0.9,1.8-0.2c0.1,0.1-0.2,0.2-0.3,0.3c0.4-0.4,1.8,0.1,1.5-0.7
						c1.1,0.4,2.1-0.4,2.9,0.2c0.6-1,1.8,0.5,2-0.9c-0.1,1.4,1.9,1.2,2.6,0.5c-0.2,0.4,0.6,0.5,0.3,1.1c0.8,0,1.5-0.3,1.4-1
						c1.4,1.7,2.9-1.4,3.7,0.8c2.3-0.8,4.4-1.3,6.5-1.6c-0.1,1.4-2.3,0.1-2.2,1.7c2-0.6,3.1-1.8,5.1-1.5c0.5,0.2-0.3,0.6-0.5,0.9
						c2-0.6,3.8,0.1,5.6-0.7c0,0.1-0.2,0.3-0.4,0.4c0.3,0,0.8,0.2,0.8-0.4l-0.3,0.2c-0.5-0.9,1.4-2,1.4-2.5
						c-0.6,1.8,1.7,0.5,0.8,2.8c0.2-0.1,0.5-0.4,0.5-0.9c0.3,0.1,0.4,0.4,0.1,0.9c1.2-0.4,0.8-1,1.9-1c0,0.3-0.2,0.4-0.3,0.8
						c0.6-0.6,1.1-1.2,2.1-1c-0.1,0.2,0.1,0.4-0.2,0.4c1.6-0.1,2.8-1.6,4.5-1c-0.5,1.3,0.6,0.4,0.7,1.5l1-0.3l-0.4-0.5
						c0.8,0,1.6-0.8,2.3-0.5l-0.6,0.5l1.6-0.2L86.3,80c0.8-0.6-0.1-1.4,1-1.1c-0.2,0.1,0.8,0,1.3,0.7l0,0c0.4-0.3,0.8-0.7,1.5-0.4
						c0.2,0.3-0.1,1.2,0,1.4c0.4-0.9,2-0.3,2.5-1.2c-0.2,0.2-0.2,0.8-0.1,0.9l0.3-0.7c0.4,0.2,0.4,0.3,0.4,0.8
						c1.2,0.1-0.4-1.3,1-0.8c-0.1,0.1-0.1,0.2-0.3,0.3c1.4,0.3,2.7-0.5,4-0.1c0.4,1-1.1,0.3-0.7,1.1c1.8-0.2,3.8-1.3,5.6-1.1
						l-0.3-0.1c0.2-1.4,1.3,0.7,2.2,0c-0.2,0.1-0.3,0.7-0.2,0.6c1.2,0.2,2.5-0.4,4.4-0.8l-0.2,0.3c0.7,0.3,1.9,0.1,2.7,0.3
						c0.2-0.3,0.7-0.3,0.4-0.7c1.2,0.9,2.3,0.6,3.5,0.3c1.1-0.3,2.2-0.6,3.3,0.1c-0.3,0-0.6,0.3-0.4,0.3l1.8-0.3
						c-0.1-0.5-0.2-0.3-0.6-0.6c0.2-0.3,0.7-0.5,1.2-0.5c-0.8,0.3,0,0.7,0.4,1c-0.1-0.1,0.1-0.3,0-0.4c0.9,0.8,0.2-0.9,1.5-0.4
						l-0.1,0.2c0.5-0.1,0.9-0.4,1.5-0.4c0.2,0.5-0.5,0.2-0.5,0.6c0.7,0,1.4-0.9,2.1-0.5c-0.3,0.1-0.8,0.1-1.1,0.3
						c0.7,0.6,0.8,0.4,1.3,0.5h-0.1l1.2,0.2l-0.6-0.5c0.9-1.2,1.9-0.3,3.1-1c-1.2,0.7-0.2,0.4-0.3,0.9c0.3,0.1,0.8,0.2,0.7,0.4
						c0.6-0.4,1,0.2,1.8-0.3c0,0.1,0.6,0,0.5,0.3c0.8-0.1-0.2-0.2-0.1-0.4c1.2-0.5,2.8,0.4,4.4-0.2c0.8-0.1,0.9-0.3,1.4-0.4
						c0.1,0,0.2-0.1,0.3-0.1h0.2h0.1c0,0,0,0,0,0.1c0.1,0.2,0.1,0.4,0.1,0.7c-0.1,0.3-0.2,0.2-0.2,0.1c-0.1-0.1-0.1-0.2-0.1-0.2
						c-0.1,0.3-0.1,0.6-0.1,0.8c0,0.2,0,0.6,0.1,0.9c-0.1-0.1-0.1,0-0.2,0.2c0,0.6,0.3,0.4,0.2,1.1c-0.1-0.1-0.2-0.3-0.3-0.6
						c0.1,0.7,0.3,1.3,0.4,2c-0.1,0.2-0.2-0.4-0.3-0.6c0.1,0.8,0.2,2,0.4,2.2v-0.5c0,0.3-0.1,0.1-0.2-0.1c-0.2-0.7,0-0.9,0.1-1
						l0.1,0.5c0.4-0.5-0.1-1.9-0.1-2.9l0.4,0.4c-0.1-0.3-0.2-0.7-0.3-1c0.1-0.2,0.3-0.4,0.4,0.1c0.2-0.7-0.1-0.6,0.1-1.3
						c0-0.1,0.1-0.1,0.1,0c0-0.3-0.1-0.5-0.1-0.7c0.1,0.1,0.3-0.3,0.2,0.2c0-0.4,0-0.8,0-1.1c-0.3,0-0.6,0-0.9,0
						c-0.5,0.1-0.9,0.1-1.1-0.1h0.1c-1.7,0.1-0.2,0.3-1.4,0.8c-0.3-0.3-0.6-0.6-0.9-0.9l-0.2,0.4c-0.2,0-0.5-0.1-0.5-0.2
						c-0.7,0.3,0.1,0.2-0.3,0.4c-0.8-0.4-2.3,0.2-2.5-0.5c-0.3,0.3,0.8,0.3-0.1,0.5c-0.3-0.8-1,0.1-1.8-0.2c0.2-0.4,1-0.2,0.2-0.6
						c-0.5,0.7-1.5-0.2-2.1-0.1c0,0.6-1.4,0.2-2.5,0.4c0.1-0.2-2-0.4-3.1-0.7v-0.1c-0.2,0.7-1.2,0.5-2,0.7c0-0.4,0.2-0.6,0.6-0.8
						h-0.7c-0.2,0.2-0.4,0.3-0.9,0.4l0.2-0.5c-1,0-1.9,0.6-3.1,0.2c-0.1,0.6,1,1.5-0.3,1.9c0-0.3-0.1-0.8,0.2-0.9
						c-0.1,0-0.4,0.2-0.6,0.1l0.5-0.5c-0.6-0.2-0.3,0.4-0.7,0.4c0-0.4-0.3-0.3-0.3-0.7c0.1,0,0.4,0.2,0.6,0
						c-0.5-0.1-1.1-0.4-1.3-0.7c0,0.2,0,0.6-0.4,0.6c-1,0-0.3-0.5-0.9-0.8c-0.2,0.3-0.8,0-0.9,0.6c-0.3,0-0.3-0.3-0.4-0.5
						c-0.5,0.3-2.3,0-1.7,0.8l0.1,0.1h-0.1l0,0l0,0c-1.6,0.7-3.4-0.5-5-0.2v-0.2c-1,0.3-2.1,0.1-2.8,0.7c-0.3,0-0.7-0.5-0.5-0.8
						c-0.7,0.2-0.8,0.5-1.9,0c0.7-0.4-0.3-0.4,0.8-0.3c-0.9-0.2-1.2-0.7-2.2,0c0.3-0.7-0.7-0.9-1.2-0.7l0.7,0.5c-0.5,0.1-1,0-1.4,0
						l0.2-0.9c-1.9-1.2-3.5,1.9-5-0.1c-0.5,0.7,1.1,0.5,0.6,1.3c-0.9-0.1-1.8-1.5-2.1-1.5c-1.2-0.6-1.1,1.4-2.4,1
						c0.2,0.4,0.3,1.3-0.6,1.6c-0.9-0.1-1.1-1.5-0.5-1.8c0.2,0,0.3,0.1,0.3,0.2c0.3-0.1,0.7-0.3,0.3-0.7L87,75.7
						c-0.4-0.4-1.7-0.3-1.4-0.9c-0.7,0.3-0.3,0.6,0.2,0.8c-1.1-0.5-1.8,0-3-0.4c0.2,0.2,0.4,0.6,0.2,0.6c-1.7-0.5-0.8,0.7-1.9,0.8
						c-0.7-0.6,0.2-1.3-0.9-0.9c-0.7-0.4-0.2-1,0.1-1.3c-1.1,0.7-2-0.5-2.6-0.6l0.6-0.3c-0.3,0.2-0.6,0.2-0.9,0.2l0.3,0.7
						c-0.3-0.1-0.6-0.1-0.6-0.4c-0.3,0.5,0.3,1.2-0.4,1.9c-0.4-0.4-1.4,0.4-1.5-0.6c1.4,0.3-0.2-1,1-1.1c-0.2,0.1-0.5,0.1-0.8,0
						c0-0.1,0-0.2,0.1-0.3c-1.3-0.9-0.6,1.1-2,1.1c0.2-0.6-0.3-1.1-0.5-0.9c0.6,0,0.3,0.9-0.2,1.4c-0.9-0.4-1,0.3-1.4,0.3l0.5,0.2
						c-0.2,0.6-0.6,0.5-1.2,0.7c-0.1-0.4,0.6-0.3,0.3-0.5c-0.7,1-1.5-1-2.5-0.4c-0.4-0.4,0-1.1-0.4-1.3c-1.1,0.7-1.2-0.8-2.3-0.2
						c0.3,0.8,0.4,0.6-0.4,1.3l1.9-0.5l-1.2,1.1c0.6,0,1.2-0.5,1.5-0.3c-0.6,0.6-0.5,0.4-0.2,1.1c-0.8-1.1-1.5,0.7-2.4-0.1V75
						c-1.3-0.8-2.4,1-4.1,0.5l0.6,0.3c-0.2,0.8-1.1,0.1-1.6,0.4c0.1-0.6-0.3-0.9-0.5-1.3c0,0.5-1.3,0-1.4,1.2l-0.8-0.8
						c-1.4-0.3-1.6,1.8-2.9,1.6c0.4-0.7-0.2-1.1,0.7-1.6c-0.4,0-0.9-0.1-0.9,0.3c-0.3-0.4-1.2,0.8-1.7,0.3c-0.2,0.3-0.3,0.9-0.8,0.9
						c-0.1-0.1,0-0.3,0-0.3c0,0.3-0.8,0.4-0.3,1.1c-1.4-1.9-3.9,0.1-5.1-1.5c-1,0.2-2.2,0.4-3,0.5c0.1-0.2,0-0.3,0.2-0.2
						c-1.2-0.6-0.8,1.8-2.1,1.1c-0.7-1,0.7-0.5,0.3-0.9c-0.2-2-1.7,0.3-2.6-0.9l0.2-0.1c-0.7-0.7-1.7,0.8-2.9,0.6c0,0,0.1-0.2,0-0.3
						c-0.8,1-2.3,1.3-3.4,1.6c0.4-0.7,0.5-0.4,0.3-1.1c-0.5,0.1,0.1,1.2-0.9,1.4c-0.3-0.4-1.1-0.7-1.1-1.5l1-0.1
						c-0.5-1-1.2,0.1-1.7-0.1l0.1-0.4c-1.5,0.2-1.5,1.3-3,1.2l0.2,0.3c-0.9,1.1-0.7-0.6-1.6,0.2l-0.3-1.1c-0.6,0.3-2,1.1-3,1.3
						c0.6-0.8,1.8-1.2,2.5-1.7c-0.6,0-1.9,0.1-2.2,0.7c0.2-0.1,0.5-0.4,0.7-0.2c-0.3,0.4-0.7,0.7-1.2,0.9c-0.6,0.2-1.1,0.3-1.8,0.3
						c-0.3-1.3-2.1-1.1-3.9-1.2c-0.1,0.8-0.2,1.6-0.7,1.7c0.2,1,0.3,1.8,0.3,2.6c0,0.4,0,0.8,0,1.2c0,0.2,0,0.4,0,0.5v0.4
						c-0.1,0.5-0.1,1-0.2,1.6c0,0.3-0.1,0.5-0.1,0.8v0.6c0,0.2,0,0.5,0,0.7c1.4-1.5,0,1.1,1.5,0.5c0.1,0.7,0.1,0.9,0,1.1
						C17.5,89,17.3,89.9,17,91c-0.1,0.1,0,0.1-0.1,0.2l-0.1,0.1c-0.1,0.1-0.1,0-0.2-0.1c-0.1-0.2-0.1-0.5-0.3-0.4c0,0.3,0,0.5,0,0.7
						c0,0.1,0,0.2,0,0.3c0,0.1,0.1,0,0.1,0.1c0.1,0.1,0.1,0.2,0.1,0.2c0,0.2-0.2,0.4,0.4,0.6c0.1-0.5,1.3-0.7,2.3-0.4
						c-0.4-0.2-0.8-0.5-1.2-0.7c0.8-0.2,1.3-0.2,1.6-0.1s0.6,0.2,0.8,0.4c0.3,0.1,0.5,0.3,1,0.3c0.2,0,0.5,0,0.8,0s0.7-0.1,0.8-0.2
						c-0.1,0.1-0.1,0.1-0.3,0.2l-0.5,0.2c0.5-0.1,1.4-0.2,2.3-0.3c0.8-0.1,1.6-0.3,2-0.9c0.1,0.2,0.3,0.5,0,0.6
						c2,0.1,4.5-1.2,6.1-0.6l-0.2,0.3c0.4-0.1,0.7-0.6,1.1-0.3c0,0.1-0.2,0.3,0,0.3c0.2-0.1,1-0.6,1.5-0.4l-0.4,0.4
						c2,0.4,3-0.9,4.7-1.1c0,0.9,1.5,1.2,2.3,1.3v0.1c2.3,0.1,3.9-0.8,6-1.1c1.3,0.9,4.5,0.3,6.6,0.8c-0.3-0.1,0.1-0.6,0.4-0.7
						c0.5,0.2,1.4-0.6,1.3,0.2h-0.2c0.4,0.7,1.4,0.5,2.2,0.5l0.1-0.9c2.1,1.3,5.5-0.5,6.6,0.6c0.5-0.2,1.1-0.2,1.6-0.5v0.5
						c1.4,0.1,2.1,0.1,3.8,0l-0.4,0.3c1,0,1.2-1.3,2.1-1.3l0.3,0.6c1.7,0,3.4,0.5,5.1-0.1c0,0.1-0.1,0.3-0.4,0.3
						c0.8,0,3.1,0.3,2.8-0.5c0,0.5,1.8,0,2.7-0.2l-0.1,0.4c0.8-0.5,0.8-0.6,1.9-0.8c0.3,0,0.2,0.3-0.1,0.2c0.9,0.2,0.7-0.4,1.7-0.2
						l-0.4,0.2c0.9,0,0.8-0.1,1.3-0.4c0.6-0.1,1.7,0.1,1.8,0.4c0.1-0.2,0.6-0.5,1.1-0.4c0.1,0.1-0.1,0.2-0.2,0.2
						c1.5,0.2,2.2-0.4,3.2-0.1c0,0.1,0.1,0.2,0.2,0.2c-1.2,0-2.1,0-2,0c0,0.3,0.9,0.3,0.2,0.8c0.8-0.3,2.1-0.8,3-0.6l0.1,0.1h-0.1
						c0.2,0,0.4,0,0.6-0.1c0.3,0,0.5,0.1,0.8,0.1c0.1,0.2,1.1,0.1,1.6,0.1c0-0.3,0.6-0.3,0-0.5c0.1,0-0.1,0-0.4,0.1
						c-0.1,0-0.2,0-0.2,0l0,0c-0.3,0-0.7,0-1.2,0c0.4-0.2,0.8-0.3,1.3-0.1c0.2-0.2,0.5-0.4,0.7-0.5c0.6,0.4,1.9,0.6,2.1,0.9
						c1.4-0.2,3.4-0.2,4.3-0.7c0.4-0.1,0.5,0.1,0.6,0.2c-0.2,0.1-0.5,0.1-0.6,0.1c0.8-0.1,2.4-0.1,2.6-0.4c1,0.1-0.6,0.3,0.8,0.3
						l-0.2,0.1c2.8,0.5,4.5-0.9,7.6-0.3c-0.2,0-0.3-0.1-0.4-0.1c3.5,0.2,7.3-0.3,10.7,0c1,0,1.1-0.1,1.7-0.2l0.2,0.2l1-0.2
						c1.5-0.1,2.5,0.3,4.4,0.1l-0.2-0.1c0.7,0,2.1-0.1,2,0c0.1,0,0.2-0.1,0.5,0v0.1l1.6-0.1c1.3,0-0.2,0.2,1.6,0.2
						c0.7,0,2-0.2,1.7-0.2s-0.7,0-0.7-0.1h0.6c0.1-0.1,0.6-0.3-0.9-0.4l-1.1,0.1l-0.3-0.1h0.9c-0.5-0.1-0.8,0-1.2,0
						c-0.1,0-0.2-0.1-0.4-0.1l-1.1,0.1c-0.1-0.1,0.5-0.1-0.2-0.2c-0.5,0.1,0.5,0.2-0.3,0.2c-0.5-0.1-0.4-0.2-1-0.1
						c-0.1-0.1,0-0.1,0.3-0.1c-0.5,0-1.4,0-1.7,0.1c-0.5-0.1-1.8,0-1.8-0.2c-0.2,0-0.9,0.1-1.4,0.1c0.9-0.3-1.8-0.1-1.6-0.4
						c-0.7,0.2-2.4,0-3.6,0.2c0.1,0,0.2-0.1,0.3,0c-0.7,0-0.9-0.1-1.3-0.2c-0.1,0.2-1.1,0.3-1.7,0.4c-0.8-0.3,0.5-0.3,0.2-0.5
						c0,0.2-1.4,0.2-1.1,0.4c-0.6-0.2-0.5-0.1-0.9-0.3c-0.1,0.3-0.6,0-1.1,0.2c-0.9-0.2-0.2-0.3-1.2-0.3
						C115.6,87.7,116.5,87.6,116.5,87.6z M92.9,87.9L92.9,87.9c0.2,0,0.4,0,0.5,0C93.3,87.9,93.2,87.9,92.9,87.9z M91,87.9
						c0.2,0,0.5,0,0.9,0c0.1,0.1,0,0.2-0.2,0.2C91.7,88.1,91.3,88,91,87.9z M95.2,90.1c-0.3,0.1-0.4,0-0.5-0.1c0.1,0,0.3,0,0.5,0
						l0,0C95.2,90,95.2,90.1,95.2,90.1z"/>
					<path class="st1" d="M95.7,89.7L95.7,89.7C95.8,89.7,95.7,89.6,95.7,89.7c-0.1-0.1-0.1,0-0.2,0C95.6,89.7,95.7,89.7,95.7,89.7z
						"/>
					<path class="st1" d="M109.7,77.2L109.7,77.2C109.7,77.2,109.8,77.2,109.7,77.2C109.8,77.2,109.8,77.2,109.7,77.2z"/>
					<polygon class="st1" points="63.7,86.6 63.7,86.7 63.8,86.6 					"/>
					<path class="st1" d="M120.6,79.3l0.1,0.1C120.8,79.4,120.7,79.3,120.6,79.3z"/>
					<path class="st1" d="M125.3,79.3l0.7,0.2C125.7,79.3,125.5,79.3,125.3,79.3z"/>
					<path class="st1" d="M129,79.4c0-0.1,0.1-0.1,0.1-0.2l0,0L129,79.4z"/>
					<path class="st1" d="M71.4,81.5L71.4,81.5C71,81.7,71.2,81.7,71.4,81.5z"/>
					<path class="st1" d="M88.6,79.4c-0.2,0.1-0.4,0.3-0.6,0.4C88.3,79.8,88.5,79.8,88.6,79.4z"/>
					<path class="st1" d="M52.3,82.6L52.3,82.6L52.3,82.6L52.3,82.6z"/>
					<path class="st1" d="M87.2,79.8c0.3,0.2,0.6,0.1,0.8,0C87.8,79.7,87.5,79.6,87.2,79.8z"/>
					<path class="st1" d="M137.9,84.4v0.2l0,0V84.4z"/>
					<path class="st1" d="M137.9,84.6v0.2C137.9,84.7,137.9,84.6,137.9,84.6z"/>
					<path class="st1" d="M138,85.2l-0.1-0.4C138,84.9,138,85.1,138,85.2z"/>
					<path class="st1" d="M137.8,79.7L137.8,79.7C137.7,79.8,137.7,79.8,137.8,79.7z"/>
					<path class="st1" d="M137.7,79c0.1,0,0,0.2,0,0.4c0,0.1-0.1,0.2-0.1,0.3h0.1c-0.1,0,0-0.2,0.1-0.3
						C137.8,79.2,137.9,79,137.7,79z"/>
					<path class="st1" d="M132.3,77.5l1.2,0.1c-0.2-0.1-0.5-0.4,0.1-0.4C132.1,76.8,133.9,77.6,132.3,77.5z"/>
					<path class="st1" d="M128.5,77.2c0.7-0.1,0-0.2,0-0.3C128.2,77,128.1,77,128.5,77.2z"/>
					<path class="st1" d="M101.2,76.5l0.1-0.7C100.8,75.9,101.3,76.1,101.2,76.5z"/>
					<polygon class="st1" points="96,80 96.5,80.5 96.7,79.8 					"/>
					<polygon class="st1" points="92.9,74.9 93.1,74.8 92.3,75.1 					"/>
					<path class="st1" d="M47,74.8l0.2,1C47.5,75.6,47.6,74.5,47,74.8z"/>
					<path class="st1" d="M27.2,76.1c-0.2-0.4-0.8-0.7-1.1-0.3C26.5,75.9,27,76.2,27.2,76.1z"/>
					<polygon class="st1" points="58.4,90.9 58,91.1 58.8,90.9 					"/>
				</g>
			</g>
		</g>
	</g>
	<g>
		
			<rect x="73.8" y="-7.9" transform="matrix(1.299677e-03 -1 1 1.299677e-03 27.0275 131.4276)" class="st0" width="11" height="120.1"/>
		<g>
			<g>
				<g>
					<path class="st1" d="M139.1,57.8c0,0.1,0.1,0.1,0.1-0.3l-0.1-0.3V57.8z"/>
					<path class="st1" d="M139.2,55.3c-0.1-0.4-0.3-1-0.4-0.7c0.2,0.4,0.1,0.5,0.3,1c0,0.4,0,0.7-0.1,0.6c0,0.1,0,0.6,0.1,0.8
						c0.1-0.5,0.1-1.1,0-1.8C139.2,55.1,139.2,55.2,139.2,55.3z"/>
					<path class="st1" d="M110.5,45.7l0.2,0.1C110.7,45.8,110.6,45.8,110.5,45.7z"/>
					<path class="st1" d="M87.5,44.9c0.2,0,0.2-0.1,0.3-0.2C87.6,44.8,87.5,44.8,87.5,44.9z"/>
					<path class="st1" d="M83.6,43.8c0.1,0,0.2,0,0.2,0.1C83.7,43.7,83.6,43.7,83.6,43.8z"/>
					<path class="st1" d="M110.5,45.7l-0.6-0.3C109.9,45.7,110.2,45.7,110.5,45.7z"/>
					<path class="st1" d="M138.5,50.2c0,0.1,0.1,0.2,0.1,0.3L138.5,50.2C138.6,50.2,138.6,50.2,138.5,50.2z"/>
					<path class="st1" d="M120.7,45.4h0.2c0.1-0.1,0.1-0.2,0.2-0.3L120.7,45.4z"/>
					<path class="st1" d="M128.5,45.6c-0.2,0-0.2,0.4-0.3,0.6c0.1-0.2,0.2-0.3,0.4-0.3C128.5,45.8,128.5,45.7,128.5,45.6z"/>
					<path class="st1" d="M139.6,48.4v0.3C139.6,48.6,139.6,48.5,139.6,48.4z"/>
					<path class="st1" d="M115.1,45.1c0-0.1,0-0.2-0.1-0.2C115,45,115,45,115.1,45.1z"/>
					<path class="st1" d="M130.2,57.2L130.2,57.2C130.3,57.2,130.3,57.2,130.2,57.2z"/>
					<path class="st1" d="M139.3,57.9L139.3,57.9L139.3,57.9L139.3,57.9z"/>
					<path class="st1" d="M76.4,42.5L76.4,42.5C76.6,42.5,76.5,42.5,76.4,42.5z"/>
					<path class="st1" d="M16.5,56.7c0.3-0.7,0.5-0.3,0.7,0s0.4,0.5,0.7-0.5c-0.1,0.1-0.4-0.1-0.6-0.3C17,55.9,16.7,55.8,16.5,56.7z
						"/>
					<path class="st1" d="M138.6,50v-0.3C138.5,49.8,138.5,49.9,138.6,50z"/>
					<path class="st1" d="M17.9,56.3L17.9,56.3l0.1-0.2C17.9,56.2,17.9,56.2,17.9,56.3z"/>
					<path class="st1" d="M59.8,42.9c0,0.2,0.1,0.3,0.2,0.4C60,43.2,59.9,43.1,59.8,42.9z"/>
					<path class="st1" d="M72.1,44.3l-0.3-0.1C72,44.2,72.1,44.3,72.1,44.3z"/>
					<path class="st1" d="M53.4,44.2c-0.2-0.1-0.2-0.2-0.4-0.1c0,0,0,0.1,0.1,0.1C53.1,44.1,53.2,44.1,53.4,44.2z"/>
					<path class="st1" d="M46.7,44.3c0,0.1,0.1,0.1,0.1,0.2c0.1,0,0.1,0,0.2,0L46.7,44.3z"/>
					<path class="st1" d="M110,56.8c0.1,0.1,0.2,0.2,0.3,0.2C110.2,56.8,111.1,56.8,110,56.8z"/>
					<path class="st1" d="M138.7,50.2c-0.1,0-0.1-0.1-0.1-0.2C138.6,50,138.6,50.1,138.7,50.2C138.6,50.2,138.7,50.2,138.7,50.2z"/>
					<path class="st1" d="M53.1,51.3L52,51.2C52.3,51.2,52.7,51.3,53.1,51.3z"/>
					<path class="st1" d="M62.1,55.8l0.2-0.1C62.2,55.7,62.1,55.8,62.1,55.8z"/>
					<path class="st1" d="M48.9,51.2c-0.2-0.3-0.4-0.5-0.6-0.6c0,0.1-0.1,0.1-0.1,0.2L48.9,51.2z"/>
					<path class="st1" d="M110.3,57L110.3,57L110.3,57z"/>
					<path class="st1" d="M117.2,56.6c-1,0-0.5,0.3-0.7,0.4c-1.2,0.1-0.6-0.2-1-0.4c-0.8,0.1-1.3,0.3-1.9,0.3c0-0.1-0.2-0.1,0-0.1
						c-0.8,0.2-2.4,0-3.3,0.3c-0.1,0-0.1-0.1-0.1-0.1c0.1,0.2,0.2,0.3,0.1,0.4c-0.5,0-0.8,0.2-1,0c0.3,0,0.3-0.1,0.4-0.1l-0.5,0.1
						c-0.4-0.3,0.6-0.1,0.6-0.3c-0.9,0.1-2,0.3-2.7,0.2c-0.1-0.3,1.7-0.1,0.7-0.4l1.1,0.1c-0.8-0.5,0.7,0-0.1-0.5
						c-1.4-0.1-1.6,0.1-3.1,0c-0.3,0.2,0.1,0.3-0.2,0.4c-2,0.3-1.6-0.9-3.1-0.5c-0.4,0.2-0.5,0.7-1.6,0.4l0.4-0.4
						c-1.4-0.1-0.8,0.6-2.3,0.3c0.3-0.2,1.1-0.1,0.9-0.2c-0.9-0.3-0.7,0.2-1.4,0.2l-0.2-0.4c-1.5,0-3.1,0.3-4.8,0.3
						c0.1-0.1,0.4-0.2,0-0.4c-2.1,0.2-4.4-0.1-6.4-0.4l-0.8,0.4c-0.2,0-0.3-0.2-0.1-0.2c-0.8-0.2,0,0.2-0.4,0.4
						c-0.4,0-0.6-0.2-0.3-0.3c-1.4,0.3-3.9,0.7-5.4,0.2l0.3-0.1C79.2,56,79,57,78,56.6l0.2-0.1c-2.5-0.2-5.2,0.1-7-0.6
						c-0.4,0.6-2.4-0.3-2.6,0.6c-1.4-0.5-1-0.6-3-1c-0.5-0.1-0.8,0.6-1.4,0.7v-0.5l-0.9,0.5l-0.5-0.6l-0.6,0.1
						c0.2,0,0.5,0.2,0.5,0.4c-1,0.2-2.3-0.4-2.4-0.7L58,55.8c0.1-0.2,0.4-0.3,0.7-0.4c-1.2,0.5-0.2-0.6-1.3-0.1
						c0.1,0.1-0.1,0.3-0.1,0.4c-0.6-0.3-1.8-0.4-2.7-0.2l0.2-0.4c-1.7-0.1-3.5,0.1-5.4,0.1c0.7,0.2,0.5,0.9,0,0.9l-0.2-0.6
						c-0.4,0.4,0.6,0.2-0.2,0.7c-0.7-0.1-0.5-0.7-0.1-0.9L48,55.5c0-0.2,0.2-0.3,0.2-0.5c-0.4,0.4-1.5-0.7-2,0v-0.2
						c-1.9,0-2.7,0.2-4.3,0.2c0,0.6-0.6,0.4-1.1,0.9c-1.1-0.2-2.4-0.7-3.7-0.6c-1,0.3-0.3,0.5-0.7,0.8c-0.1-0.5-1.4-0.5-0.7-0.9
						c-1.6,0.1-2.1,0.1-4.1,0.5c0.2,0.2,0.5,0.3,0.3,0.5c-0.4,0.1-0.8-0.2-0.8-0.5l0.1-0.1c-2.3,0.8-5.3-1.7-7.2-0.6l0.1-0.1l-1,0.3
						l-0.2,0.1c-0.1,0-0.2,0-0.2,0.1c-0.1,0.1-0.1,0.1-0.2,0.2c-0.2,0-0.1-0.1,0-0.3c0.1-0.1,0.1-0.3,0.1-0.5
						c-0.4,0.5-0.7,0.5-0.9,0.4c-0.1,0,0-0.2,0-0.3c0-0.1,0-0.2-0.2-0.3c0.4-0.3,0.6-0.4,0.7-0.5c0,0,0,0,0-0.1s0-0.3,0-0.4
						c0-0.3,0-0.6,0-0.9c0-0.6-0.1-1.2-0.1-1.8c0-0.1,0-0.3,0-0.4c0,0,0,0,0.1-0.1c0.1,0,0.1-0.1,0.3,0l-0.4-0.1
						c-0.4-0.2,0.2,0,0.3,0c-0.3-0.2-0.4-0.1-0.6-0.3c-0.1-0.2-0.1-0.4-0.1-0.6c0.2,0,0.6,0.1,0.8,0.3c0.1,0.1,0.2,0.2,0.3,0.3
						c0,0,0.1,0,0.2,0.1l0.3,0.1l0.6,0.1c1.7,0.4,3.3,0.8,5,1c1.5,0.2,0.8-2.6,2.7-1.3l-0.5,0.9c2.9-1,6,0.3,8.9-0.7
						c-0.2,0.2-0.2,0.5-0.5,0.5c0.6,0.7,2.2,0.1,2.3-0.5c0.4,0.1,0.1,0.5,0.4,0.9c0.6,0.5,1.5-0.9,1.9-0.2c0.1,0.1-0.2,0.2-0.3,0.3
						c0.4-0.4,1.8,0.1,1.5-0.7c1.1,0.4,2.1-0.4,2.9,0.2c0.6-1,1.8,0.5,2-0.9c-0.1,1.4,1.9,1.2,2.6,0.5c-0.2,0.4,0.6,0.5,0.3,1.1
						c0.8,0,1.5-0.3,1.4-1c1.4,1.7,2.9-1.4,3.7,0.8c2.3-0.8,4.5-1.3,6.5-1.6c-0.1,1.4-2.3,0.1-2.2,1.7c2-0.6,3.1-1.8,5.1-1.5
						c0.5,0.2-0.3,0.6-0.5,0.9c2-0.6,3.8,0.1,5.6-0.7c0,0.1-0.2,0.3-0.4,0.4c0.3,0,0.8,0.2,0.8-0.4l-0.3,0.2c-0.6-0.9,1.4-2,1.4-2.5
						c-0.6,1.8,1.7,0.5,0.8,2.8c0.2-0.1,0.5-0.4,0.5-0.9c0.3,0.1,0.4,0.4,0.1,0.9c1.2-0.4,0.8-1,1.9-1c0,0.3-0.2,0.4-0.3,0.8
						c0.6-0.6,1.1-1.2,2.1-1c-0.1,0.2,0.1,0.4-0.2,0.4c1.6-0.1,2.8-1.6,4.6-1c-0.5,1.3,0.6,0.4,0.7,1.5l1-0.3L85,49.4
						c0.8,0,1.6-0.8,2.3-0.5l-0.6,0.5l1.6-0.2l-0.9-0.4c0.9-0.6-0.1-1.4,1-1.1c-0.2,0.1,0.8,0,1.3,0.7l0,0c0.4-0.3,0.8-0.7,1.5-0.4
						c0.2,0.3-0.1,1.2,0,1.4c0.4-0.9,2-0.3,2.5-1.2c-0.2,0.2-0.2,0.8-0.1,0.9l0.3-0.7c0.4,0.2,0.4,0.3,0.4,0.8
						c1.2,0.1-0.4-1.3,1-0.8c-0.1,0.1-0.1,0.2-0.3,0.3c1.4,0.3,2.7-0.5,4-0.1c0.4,1-1.1,0.3-0.7,1.1c1.9-0.2,3.8-1.3,5.6-1.1
						l-0.3-0.1c0.2-1.4,1.3,0.7,2.2,0c-0.2,0.1-0.3,0.7-0.2,0.6c1.2,0.2,2.5-0.4,4.4-0.8l-0.2,0.3c0.7,0.3,1.9,0.1,2.7,0.3
						c0.2-0.3,0.7-0.3,0.4-0.7c1.2,0.9,2.4,0.6,3.5,0.3c1.1-0.3,2.2-0.6,3.3,0.1c-0.3,0-0.6,0.3-0.4,0.3l1.8-0.3
						c-0.1-0.5-0.2-0.3-0.6-0.6c0.2-0.3,0.7-0.5,1.2-0.5c-0.8,0.3,0,0.7,0.4,1c-0.1-0.1,0.1-0.3,0-0.4c0.9,0.8,0.2-0.9,1.5-0.4
						l-0.1,0.2c0.5-0.1,0.9-0.4,1.5-0.4c0.2,0.5-0.5,0.2-0.6,0.6c0.7,0,1.5-0.9,2.1-0.5c-0.3,0.1-0.8,0.1-1.1,0.3
						c0.7,0.6,0.8,0.4,1.3,0.5h-0.1l1.2,0.2l-0.3-0.1c0.9-1.2,1.9-0.3,3.1-1c-1.2,0.7-0.2,0.4-0.3,0.9c0.3,0.1,0.8,0.2,0.7,0.4
						c0.6-0.4,1,0.2,1.8-0.3c0,0.1,0.6,0,0.5,0.3c0.8-0.1-0.2-0.2-0.1-0.4c1.2-0.5,2.8,0.4,4.5-0.2c0.4-0.1,0.5-0.1,0.7-0.2
						s0.4-0.2,0.6-0.2l0.2-0.1c0.1,0,0.1-0.1,0.1,0s0.1,0.1,0.1,0.2c0.1,0.2,0.1,0.4,0.1,0.7c-0.1,0.3-0.2,0.2-0.2,0.1
						c-0.1-0.1-0.1-0.3-0.1-0.3c-0.1,0.3-0.1,0.5-0.1,0.8s0.1,0.6,0.1,1c-0.1-0.1-0.1,0-0.2,0.2c0,0.6,0.3,0.4,0.2,1.1
						c-0.1-0.1-0.2-0.3-0.3-0.6c0.1,0.7,0.3,1.3,0.4,2c-0.1,0.2-0.2-0.4-0.3-0.6c0.1,0.8,0.2,2,0.4,2.2V54c0,0.3-0.1,0.1-0.2-0.1
						c-0.2-0.7,0-0.9,0.1-1l0.1,0.5c0.4-0.5-0.1-1.9-0.1-2.9l0.4,0.4c-0.1-0.3-0.2-0.7-0.3-1c0.1-0.2,0.3-0.4,0.4,0.1
						c0.2-0.7-0.1-0.6,0.1-1.3c0-0.1,0.1-0.1,0.1,0c0-0.3-0.1-0.5-0.1-0.7c0.1,0.1,0.3-0.3,0.2,0.2c0.1-0.4,0.1-0.8,0-1.1
						c0-0.1,0-0.3-0.1-0.4c-0.2,0-0.3,0-0.4,0c-0.5,0.1-0.9,0.1-1.1-0.1h0.1c-0.6,0-0.7,0.1-0.9,0.1c-0.1,0-0.1,0.1-0.1,0.2
						s0.1,0.3-0.6,0.5c-0.3-0.3-0.6-0.6-0.9-0.9l-0.2,0.4c-0.2,0-0.5-0.1-0.5-0.2c-0.7,0.3,0.1,0.2-0.3,0.4
						c-0.8-0.4-2.3,0.2-2.5-0.5c-0.3,0.3,0.8,0.3-0.1,0.5c-0.3-0.8-1,0.1-1.8-0.2c0.2-0.4,1-0.2,0.2-0.6c-0.5,0.7-1.5-0.2-2.1-0.1
						c0,0.6-1.4,0.2-2.5,0.4c0.1-0.2-2.1-0.4-3.1-0.7v-0.1c-0.2,0.7-1.2,0.5-2,0.7c0-0.4,0.2-0.6,0.6-0.8h-0.7
						c-0.2,0.2-0.4,0.3-0.9,0.4l0.2-0.5c-1,0-1.9,0.6-3.1,0.2c-0.1,0.6,1,1.5-0.3,1.9c0-0.3-0.1-0.8,0.2-0.9c-0.1,0-0.4,0.2-0.6,0.1
						l0.5-0.5c-0.6-0.2-0.3,0.4-0.7,0.4c0-0.4-0.3-0.3-0.3-0.7c0.1,0,0.4,0.2,0.6,0c-0.5-0.1-1.1-0.4-1.3-0.7c0,0.2,0,0.6-0.4,0.6
						c-1,0-0.3-0.5-0.9-0.8c-0.2,0.3-0.8,0-0.9,0.6c-0.3,0-0.3-0.3-0.4-0.5c-0.5,0.3-2.3,0-1.7,0.8l0.1,0.1h-0.1l0,0l0,0
						c-1.6,0.7-3.4-0.5-5-0.2v-0.2c-1,0.3-2.1,0.1-2.8,0.7c-0.3,0-0.7-0.5-0.5-0.8c-0.7,0.2-0.8,0.5-1.9,0c0.7-0.4-0.3-0.4,0.8-0.3
						c-1-0.2-1.2-0.7-2.2,0c0.3-0.7-0.7-0.9-1.2-0.7l0.7,0.5c-0.5,0.1-1,0-1.4,0l0.2-0.9c-1.9-1.2-3.5,1.9-5-0.1
						c-0.5,0.7,1.1,0.5,0.6,1.3c-0.9-0.1-1.8-1.5-2.1-1.5c-1.2-0.6-1.1,1.4-2.4,1c0.2,0.4,0.3,1.3-0.6,1.6c-0.9-0.1-1.1-1.5-0.5-1.8
						c0.2,0,0.3,0.1,0.3,0.2c0.3-0.1,0.7-0.3,0.3-0.7l-0.1,0.3c-0.4-0.4-1.7-0.3-1.4-0.9c-0.7,0.3-0.3,0.6,0.2,0.8
						c-1.1-0.5-1.8,0-3-0.4c0.2,0.2,0.4,0.6,0.2,0.6c-1.7-0.5-0.8,0.7-1.9,0.8c-0.7-0.6,0.2-1.3-0.9-0.9c-0.7-0.4-0.2-1,0.1-1.3
						c-1.1,0.7-2-0.5-2.6-0.6l0.6-0.3c-0.3,0.2-0.6,0.2-0.9,0.2l0.3,0.7c-0.3-0.1-0.6-0.1-0.6-0.4c-0.3,0.5,0.3,1.2-0.4,1.9
						c-0.4-0.4-1.4,0.4-1.5-0.6c1.4,0.3-0.2-1,1-1.1c-0.2,0.1-0.5,0.1-0.8,0c0-0.1,0-0.2,0.1-0.3c-1.3-0.9-0.6,1.1-2,1.1
						c0.2-0.6-0.3-1.1-0.5-0.9c0.6,0,0.3,0.9-0.2,1.4c-0.9-0.4-1,0.3-1.4,0.3l0.5,0.2c-0.2,0.6-0.6,0.5-1.2,0.7
						c-0.1-0.4,0.6-0.3,0.3-0.5c-0.7,1-1.6-1-2.5-0.4c-0.4-0.4,0-1.1-0.4-1.3c-1.1,0.7-1.2-0.8-2.3-0.2c0.3,0.8,0.4,0.6-0.4,1.3
						l1.9-0.5l-1.2,1.1c0.6,0,1.2-0.5,1.5-0.3c-0.6,0.6-0.5,0.4-0.2,1.1c-0.8-1.1-1.5,0.7-2.4-0.1v-1.9c-1.3-0.8-2.4,1-4.1,0.5
						l0.6,0.3c-0.2,0.8-1.1,0.1-1.6,0.4c0.1-0.6-0.3-0.9-0.5-1.3c0,0.5-1.3,0-1.4,1.2l-0.8-0.8c-1.4-0.3-1.6,1.8-2.9,1.6
						c0.4-0.7-0.2-1.1,0.7-1.6c-0.4,0-0.9-0.1-0.9,0.3c-0.3-0.4-1.2,0.8-1.7,0.3c-0.2,0.3-0.3,0.9-0.8,0.9c-0.1-0.1,0-0.3,0-0.3
						c0,0.3-0.8,0.4-0.3,1.1c-1.4-1.9-3.9,0.1-5.1-1.5c-1,0.2-2.2,0.4-3,0.5c0.1-0.2,0-0.3,0.2-0.2c-1.2-0.6-0.8,1.8-2.2,1.1
						c-0.7-1,0.7-0.5,0.3-0.9c-0.2-2-1.7,0.3-2.6-0.9l0.2-0.1c-0.7-0.7-1.8,0.8-2.9,0.6c0,0,0.1-0.2,0-0.3c-0.8,1-2.3,1.3-3.5,1.6
						c0.4-0.7,0.5-0.4,0.3-1.1c-0.5,0.1,0.1,1.2-0.9,1.4c-0.3-0.4-1.1-0.7-1.2-1.5l1-0.1c-0.5-1-1.2,0.1-1.7-0.1l0.1-0.4
						c-1.5,0.2-1.5,1.3-3.1,1.2l0.2,0.3c-0.9,1.1-0.7-0.6-1.6,0.2l-0.3-1.1c-0.6,0.3-2,1.1-3,1.3c0.6-0.8,1.8-1.2,2.5-1.7
						c-0.6,0-1.9,0.1-2.2,0.7c0.2-0.1,0.5-0.4,0.7-0.2c-0.3,0.4-0.7,0.7-1.2,0.9c-0.6,0.2-1.2,0.3-1.8,0.3c-0.3-1.3-2.1-1.1-3.9-1.2
						c-0.1,0.8-0.2,1.6-0.7,1.7c0.2,1,0.3,1.8,0.3,2.6c0,0.4,0,0.8,0,1.2c0,0.2,0,0.3,0,0.5v0.4c-0.1,0.5-0.1,1-0.2,1.6
						c0,0.3-0.1,0.5-0.1,0.8s0,0.5,0,1.1c1.4-1.4,0,1.1,1.5,0.6c0.1,0.7,0.1,1,0,1.1c-0.3,0.8-0.5,1.8-0.8,2.9
						c-0.4,1-0.3-0.6-0.6-0.3c0,1-0.2,1.4-0.3,1.7c-0.1,0.2-0.1,0.2-0.1,0.3c0,0.1,0.1,0.2,0.4,0.3c0.2-0.5,1.3-0.6,2.4-0.4
						c-0.4-0.2-0.8-0.5-1.1-0.7c1.6-0.3,1.9,0,2.4,0.3s1.1,0.6,2.7,0.2c-0.3,0.1-0.7,0.3-1,0.4c0.2,0,0.5-0.1,0.7-0.1
						c0.1,0,0.3,0,0.4,0c0.1,0,0.2,0,0.3,0c0.3,0,0.7-0.1,1.1-0.1c0.8-0.1,1.6-0.3,2-0.9c0.2,0.2,0.3,0.5,0,0.6
						c2,0.1,4.5-1.2,6.1-0.6l-1.1-0.2c0.4-0.1,0.7-0.6,1.1-0.3c0,0.1-0.2,0.3,0,0.3c0.2-0.1,1-0.6,1.5-0.4l-0.4,0.4
						c2,0.4,3-0.9,4.7-1.1c0,0.9,1.6,1.2,2.3,1.3v0.1c2.3,0.1,3.9-0.8,6.1-1.1c1.3,0.9,4.5,0.3,6.6,0.8c-0.3-0.1,0.1-0.6,0.4-0.7
						c0.5,0.2,1.4-0.6,1.3,0.2h-0.2c0.4,0.7,1.4,0.5,2.2,0.5l0.1-0.9c2.1,1.3,5.5-0.5,6.6,0.6c0.5-0.2,1.1-0.2,1.6-0.5V60
						c1.4,0.1,2.1,0.1,3.8,0l-0.4,0.3c1,0,1.2-1.3,2.1-1.3l0.3,0.6c1.7,0,3.4,0.5,5.1-0.1c0,0.1-0.1,0.3-0.4,0.3
						c0.8,0,3.1,0.3,2.8-0.5c0,0.5,1.8,0,2.7-0.2L82,59.5c0.8-0.5,0.8-0.6,1.9-0.8c0.3,0,0.2,0.3-0.1,0.2c0.9,0.2,0.7-0.4,1.7-0.2
						l-0.4,0.2c0.9,0,0.8-0.1,1.3-0.4c0.6-0.1,1.7,0.1,1.8,0.4c0.1-0.2,0.6-0.5,1.1-0.4c0.1,0.1-0.1,0.2-0.2,0.2
						c1.5,0.2,2.2-0.4,3.2-0.1c0,0.1,0.1,0.2,0.2,0.2c-1.2,0-2.1,0-2,0c0,0.3,0.9,0.3,0.2,0.8c0.8-0.3,2.1-0.8,3-0.6l0.1,0.1h-0.1
						c0.2,0,0.4,0,0.6-0.1c0.3,0,0.5,0.1,0.8,0.1c0.1,0.2,1.1,0.1,1.6,0.1c0-0.3,0.6-0.3,0-0.5c0.1,0-0.1,0-0.4,0.1
						c-0.1,0-0.2,0-0.2,0l0,0c-0.3,0-0.7,0-1.2,0c0.4-0.2,0.8-0.3,1.3-0.1c0.2-0.2,0.5-0.4,0.7-0.5c0.6,0.4,1.9,0.6,2.1,0.9
						c1.4-0.2,3.4-0.2,4.3-0.7c0.4-0.1,0.5,0.1,0.6,0.2c-0.2,0.1-0.5,0.1-0.6,0.1c0.8-0.1,2.4-0.1,2.6-0.4c1,0.1-0.6,0.3,0.8,0.3
						l-0.2,0.1c2.8,0.5,4.5-0.9,7.6-0.3c-0.2,0-0.3-0.1-0.4-0.1c3.5,0.2,7.3-0.3,10.8,0c1,0,1.1-0.1,1.7-0.2l0.2,0.2l1-0.2
						c1.5-0.1,2.5,0.3,4.4,0.1l-0.2-0.1c0.7,0,2.1-0.1,2,0c0.1,0,0.2-0.1,0.5,0v0.1l1.6-0.1c1.3,0-0.2,0.2,1.7,0.2
						c0.7,0,2-0.2,1.7-0.2s-0.7,0-0.7-0.1h0.6c0.1-0.1,0.6-0.3-0.9-0.4l-1.1,0.1l-0.3-0.1h0.9c-0.5-0.1-0.8,0-1.2,0
						c-0.1,0-0.2-0.1-0.5-0.1l-1.1,0.1c-0.1-0.1,0.5-0.1-0.2-0.2c-0.5,0.1,0.5,0.2-0.3,0.2c-0.5-0.1-0.4-0.2-1-0.1
						c-0.1-0.1,0-0.1,0.3-0.1c-0.5,0-1.4,0-1.7,0.1c-0.5-0.1-1.8,0-1.8-0.2c-0.2,0-0.9,0.1-1.4,0.1c0.9-0.3-1.8-0.1-1.6-0.4
						c-0.7,0.2-2.4,0-3.6,0.2c0.1,0,0.2-0.1,0.3,0c-0.7,0-0.9-0.1-1.3-0.2c-0.1,0.2-1.1,0.3-1.7,0.4c-0.8-0.3,0.5-0.3,0.2-0.5
						c0,0.2-1.4,0.2-1.1,0.4c-0.6-0.2-0.5-0.1-0.9-0.3c-0.1,0.3-0.6,0-1.1,0.2c-0.9-0.2-0.2-0.3-1.2-0.3
						C116.4,56.7,117.2,56.6,117.2,56.6z M93.6,56.9L93.6,56.9c0.2,0,0.4,0,0.5,0C94,56.9,93.9,56.9,93.6,56.9z M91.7,56.9
						c0.2,0,0.5,0,0.9,0c0.1,0.1,0,0.2-0.2,0.2C92.4,57.1,92,57,91.7,56.9z M95.9,59.1c-0.3,0.1-0.4,0-0.5-0.1c0.1,0,0.3,0,0.5,0
						l0,0C96,59,95.9,59.1,95.9,59.1z"/>
					<path class="st1" d="M96.4,58.7L96.4,58.7C96.5,58.7,96.4,58.6,96.4,58.7c-0.1-0.1-0.1,0-0.2,0C96.3,58.7,96.4,58.7,96.4,58.7z
						"/>
					<path class="st1" d="M110.8,45.9L110.8,45.9L110.8,45.9L110.8,45.9z"/>
					<polygon class="st1" points="64.3,55.6 64.3,55.7 64.5,55.6 					"/>
					<path class="st1" d="M121.7,47.9l0.1,0.1C121.9,48,121.8,48,121.7,47.9z"/>
					<path class="st1" d="M126.4,47.9l0.7,0.2C126.8,48,126.6,48,126.4,47.9z"/>
					<path class="st1" d="M130.1,48c0-0.1,0.1-0.1,0.1-0.2l0,0L130.1,48z"/>
					<path class="st1" d="M72.4,50.2L72.4,50.2C71.9,50.4,72.1,50.3,72.4,50.2z"/>
					<path class="st1" d="M89.5,48c-0.2,0.1-0.4,0.3-0.6,0.4C89.3,48.5,89.5,48.5,89.5,48z"/>
					<path class="st1" d="M53.2,51.3L53.2,51.3L53.2,51.3L53.2,51.3z"/>
					<path class="st1" d="M88.2,48.4c0.3,0.2,0.6,0.1,0.8,0C88.7,48.4,88.5,48.3,88.2,48.4z"/>
					<path class="st1" d="M138.7,53.4v0.2l0,0V53.4z"/>
					<path class="st1" d="M138.7,53.6v0.2C138.8,53.7,138.8,53.6,138.7,53.6z"/>
					<path class="st1" d="M138.8,54.2l-0.1-0.4C138.8,53.9,138.8,54.1,138.8,54.2z"/>
					<path class="st1" d="M138.6,48.6L138.6,48.6C138.5,48.6,138.5,48.6,138.6,48.6z"/>
					<path class="st1" d="M138.6,47.8c0,0.1,0,0.2-0.1,0.4c0,0.1-0.1,0.2-0.1,0.4h0.1c-0.1-0.1,0-0.2,0.1-0.4
						C138.6,48.1,138.6,47.8,138.6,47.8z"/>
					<path class="st1" d="M133.4,46.2l1.2,0.1c-0.2-0.1-0.5-0.4,0.1-0.4C133.2,45.5,135,46.3,133.4,46.2z"/>
					<path class="st1" d="M129.6,45.9c0.7-0.1,0-0.2,0-0.3C129.3,45.6,129.2,45.7,129.6,45.9z"/>
					<path class="st1" d="M102.2,45.2l0.1-0.7C101.8,44.6,102.3,44.7,102.2,45.2z"/>
					<polygon class="st1" points="97,48.7 97.5,49.1 97.7,48.5 					"/>
					<polygon class="st1" points="93.9,43.6 94.1,43.5 93.3,43.7 					"/>
					<path class="st1" d="M47.9,43.5l0.2,1C48.4,44.3,48.5,43.2,47.9,43.5z"/>
					<path class="st1" d="M28,44.7c-0.2-0.4-0.8-0.7-1.1-0.3C27.4,44.5,27.8,44.8,28,44.7z"/>
					<polygon class="st1" points="59,59.9 58.6,60.1 59.4,59.9 					"/>
				</g>
			</g>
		</g>
	</g>
</g>
</svg>
