<?xml version="1.0" encoding="utf-8"?>
<!-- Generator: Adobe Illustrator 26.0.2, SVG Export Plug-In . SVG Version: 6.00 Build 0)  -->
<svg version="1.1" id="Lager_1" xmlns="http://www.w3.org/2000/svg" xmlns:xlink="http://www.w3.org/1999/xlink" x="0px" y="0px"
	 viewBox="0 0 568.7 382" style="enable-background:new 0 0 568.7 382;" xml:space="preserve">
<style type="text/css">
	.st0{fill:none;stroke:#000000;stroke-miterlimit:10;}
	.st1{fill:#F2ADF2;}
	.st2{font-family:'Microsoft-Yi-Baiti';}
	.st3{font-size:68.6768px;}
	.st4{font-size:48px;}
</style>
<g>
	<path class="st0" d="M164.4,96.8"/>
	<path class="st0" d="M201.2,111.5"/>
	<g>
		<path d="M167.1,7.5C119.2,54.3,65.7,104.7,16.4,149.9l-0.7-4.1c63.7,26.6,130.5,55.3,194.9,80.2C151,274.7,86.8,326.6,26.8,374.2
			c20.4-38.6,43.4-82.1,64.4-120.5c32.8,30,69.6,64.2,101.9,94.7l-0.4,0.4c-32.9-28.2-70-60.6-102.5-89.4l3.8-0.7
			c-17.1,33.1-37.5,72.7-55.1,105.6l-4.6-3.8c55.7-44,117-91.9,173.2-135.1l0.3,2.1C143.7,200.3,75.2,174.3,10.2,149
			C60,102.4,115.3,52.2,166.7,7.2L167.1,7.5L167.1,7.5z"/>
	</g>
	<g>
		<path class="st1" d="M186.7,324.7c-25.9-21.6-53.8-45.2-79.2-67.1l2.6-0.4c-16.7,31.7-41.3,78.6-58.3,109.5l-2.3-2
			c51.6-38.3,109-82.3,159.4-122.2l0.3,2.3c-62-25.5-133.5-55.2-195.4-81.5C61.4,119.9,112.1,72,160.2,30.4
			c-45.8,44.2-94.3,90.2-140.8,133.7l-0.7-3.7c61.7,26,132.5,56.2,193.9,82.9c-54.2,40.2-113.7,86.6-166.7,128.2
			c17.7-34.7,43.6-82.8,62.6-117.8c25.7,22.8,53.4,47.5,78.8,70.7L186.7,324.7L186.7,324.7z"/>
	</g>
	<text transform="matrix(1 0 0 1 106.168 157.227)" class="st2 st3">SEZEN ERDAL</text>
	<text transform="matrix(1 0 0 1 231.7808 206.8066)" class="st2 st4">Frontend Developer</text>
</g>
</svg>
