<?xml version="1.0" encoding="utf-8"?>
<!-- Generator: Adobe Illustrator 26.0.2, SVG Export Plug-In . SVG Version: 6.00 Build 0)  -->
<svg version="1.1" id="Lager_1" xmlns="http://www.w3.org/2000/svg" xmlns:xlink="http://www.w3.org/1999/xlink" x="0px" y="0px"
	 viewBox="0 0 118.2 111.2" style="enable-background:new 0 0 118.2 111.2;" xml:space="preserve">
<style type="text/css">
	.st0{fill:#232123;}
	.st1{fill:#222022;}
</style>
<g>
	<g>
		
			<rect x="-3.2" y="52.5" transform="matrix(0.7071 -0.7071 0.7071 0.7071 -23.5891 60.1356)" class="st0" width="127.9" height="12"/>
		<g>
			<g>
				<g>
					<path class="st1" d="M11.6,99.4c-0.1-0.1-0.1,0,0.2,0.3l0.3,0.1L11.6,99.4z"/>
					<path class="st1" d="M13.4,101.4c0.4,0.3,0.9,0.5,0.8,0.2c-0.5-0.2-0.5-0.3-1-0.5c-0.3-0.3-0.5-0.5-0.4-0.5
						c-0.1-0.1-0.4-0.5-0.7-0.5C12.4,100.5,12.9,100.9,13.4,101.4C13.6,101.5,13.4,101.4,13.4,101.4z"/>
					<path class="st1" d="M42.2,87.3L42,87.4C42,87.4,42.1,87.4,42.2,87.3z"/>
					<path class="st1" d="M60.1,70.5c-0.1,0.1-0.1,0.3,0,0.3C60.2,70.7,60.2,70.5,60.1,70.5z"/>
					<path class="st1" d="M63.9,68.3c-0.1,0-0.2,0.1-0.2,0.1C63.8,68.4,63.9,68.4,63.9,68.3z"/>
					<path class="st1" d="M42.2,87.3l0.6-0.3C42.7,86.8,42.5,87.1,42.2,87.3z"/>
					<path class="st1" d="M17.7,104.8c-0.1-0.1-0.2-0.1-0.3-0.2L17.7,104.8L17.7,104.8z"/>
					<path class="st1" d="M34.8,95.2l-0.1,0.1c0,0.1,0,0.2,0.1,0.3V95.2z"/>
					<path class="st1" d="M28.8,101c0.2-0.1-0.1-0.5-0.2-0.7c0.1,0.2,0,0.4-0.1,0.5C28.5,100.9,28.6,100.9,28.8,101z"/>
					<path class="st1" d="M18.3,106.8l-0.2-0.1C18.2,106.7,18.3,106.8,18.3,106.8z"/>
					<path class="st1" d="M39.2,91.2c0.1,0.1,0.2,0.1,0.2,0.1C39.3,91.3,39.3,91.2,39.2,91.2z"/>
					<path class="st1" d="M18.7,93.1L18.7,93.1C18.7,93.2,18.6,93.2,18.7,93.1z"/>
					<path class="st1" d="M11.4,99.5L11.4,99.5c0.1-0.1,0.1-0.1,0.1-0.2L11.4,99.5z"/>
					<path class="st1" d="M70.2,63.8L70.2,63.8C70.1,64,70.2,63.9,70.2,63.8z"/>
					<path class="st1" d="M105,8.5c0.3,0.7-0.2,0.5-0.6,0.4c-0.4-0.1-0.7-0.1-0.2,0.8c0-0.2,0.4-0.1,0.7-0.2
						C105.2,9.4,105.5,9.2,105,8.5z"/>
					<path class="st1" d="M17.9,104.9l0.3,0.2C18,105.1,17.9,105,17.9,104.9z"/>
					<path class="st1" d="M104.2,9.6L104.2,9.6l0.1,0.2C104.2,9.7,104.2,9.7,104.2,9.6z"/>
					<path class="st1" d="M82.4,50.9c-0.1-0.1-0.3-0.1-0.4-0.2C82.1,50.9,82.2,50.9,82.4,50.9z"/>
					<path class="st1" d="M72.2,59.3l0.3-0.1C72.3,59.2,72.2,59.3,72.2,59.3z"/>
					<path class="st1" d="M86.3,45.2c0.2-0.1,0.3,0,0.4-0.3h-0.1C86.6,45,86.6,45.2,86.3,45.2z"/>
					<path class="st1" d="M91.4,40.1c-0.1,0-0.1,0-0.2,0c0,0.1-0.1,0.1-0.1,0.2L91.4,40.1z"/>
					<path class="st1" d="M34.3,78.1c-0.2,0.1-0.3,0.1-0.4,0.1C34.1,78.2,33.4,79,34.3,78.1z"/>
					<path class="st1" d="M17.6,104.9c0.1,0,0.1,0,0.2,0.1C17.8,104.9,17.7,104.8,17.6,104.9C17.6,104.8,17.6,104.8,17.6,104.9z"/>
					<path class="st1" d="M81.6,40l0.9-0.7C82.2,39.5,81.9,39.7,81.6,40z"/>
					<path class="st1" d="M71.1,42.6L71,42.8C71,42.7,71,42.7,71.1,42.6z"/>
					<path class="st1" d="M84.8,36.9c0.4,0.1,0.6,0.1,0.9,0c0-0.1,0-0.2-0.1-0.3L84.8,36.9z"/>
					<path class="st1" d="M33.9,78.2L33.9,78.2L33.9,78.2z"/>
					<path class="st1" d="M28.9,83.7c0.8-0.7,0.2-0.5,0.2-0.8c0.9-1,0.6-0.3,1-0.5c0.5-0.6,0.8-1.2,1.2-1.6c0.1,0,0.2-0.1,0.1,0.1
						c0.4-0.8,1.8-1.8,2.3-2.7c0.1,0,0.1,0,0.1,0c-0.2,0-0.4-0.1-0.4-0.2c0.3-0.3,0.5-0.8,0.8-0.8C34,77.4,34,77.5,34,77.6l0.3-0.4
						c0.5-0.1-0.4,0.6-0.3,0.7c0.6-0.8,1.3-1.7,1.9-2.2c0.3,0.1-1.2,1.3-0.3,0.8l-0.9,0.7c1-0.3-0.5,0.5,0.4,0.3
						c1.2-1,1.1-1.3,2.3-2.3c0.1-0.4-0.3-0.1-0.1-0.5c1.3-1.8,1.8-0.6,2.7-2c0.1-0.4-0.1-0.9,0.9-1.5v0.6c1.1-1,0.2-1,1.5-1.9
						c-0.1,0.3-0.7,0.9-0.6,0.8c1-0.5,0.4-0.7,0.9-1.2l0.4,0.1c1.1-1.1,2.2-2.6,3.4-3.8c0,0.2-0.1,0.4,0.3,0.2
						c1.5-1.7,3.4-3.3,5.2-4.6l0.3-0.8c0.1-0.1,0.4-0.1,0.3,0.1c0.7-0.5-0.1-0.2,0-0.6c0.3-0.3,0.6-0.3,0.5,0
						c0.8-1.2,2.5-3.4,3.9-4.2l-0.1,0.3c1-0.7,0.4-1.5,1.5-2.1l-0.1,0.2c2-1.7,3.8-4,5.7-4.9c-0.2-0.7,2.1-1.6,1.5-2.4
						c1.4-0.7,1.2-0.3,3-1.5c0.4-0.4,0.2-1,0.6-1.6l0.4,0.3l0.3-1l0.8,0.1l0.4-0.5c-0.2,0.2-0.6,0.2-0.6,0.1c0.6-0.9,2-1.5,2.3-1.3
						l1.4-2c0.1,0.2-0.1,0.5-0.3,0.8c0.5-1.3,0.6,0.2,1.1-0.9c-0.2,0-0.2-0.3-0.2-0.4c0.7-0.2,1.6-1.1,2.2-1.9l0.1,0.4
						c1.4-1.2,2.6-2.7,4-4.1c-0.6,0.4-1-0.2-0.6-0.7l0.6,0.3c0-0.5-0.6,0.3-0.4-0.6c0.6-0.5,0.9,0.1,0.7,0.6l0.5-0.8
						c0.2,0.1,0.1,0.3,0.2,0.5c0-0.5,1.6-0.7,1.5-1.5l0.2,0.1c1.5-1.4,2-2.2,3.1-3.3c-0.4-0.4,0.2-0.8,0.2-1.4
						c1-0.7,2.3-1.3,3.3-2.4c0.5-0.9-0.1-0.6,0-1.1c0.4,0.3,1.4-0.7,1.2,0.1c1.2-1.3,1.5-1.6,2.8-3.5c-0.3,0-0.6,0.1-0.6-0.1
						c0.2-0.3,0.8-0.5,1-0.2v0.1c1.2-2.3,5.2-2.8,5.8-5v0.1c0.3-0.6,0.8-1.3,0.7-1.6c0.2-0.1,0.2,0,0.2,0.2s0.1,0.3,0.3,0.4
						c-0.1-0.6,0.2-0.9,0.4-0.9c0.1,0,0.2,0.3,0.2,0.3c0.1,0.1,0.2,0.1,0.4,0.1c0,0.2-0.1,0.4-0.1,0.6c0,0.1,0,0.1,0,0.2v0.1
						c0,0,0.1,0.1,0.1,0.2c0.3,0.5,0.8,0.9,1.3,1.3c0.5,0.4,1,0.9,1.4,1.3c0.1,0.1,0.2,0.2,0.3,0.3c0,0.1,0.1,0.1,0.1,0.2l0,0
						c0,0.1-0.1,0.2-0.2,0.2l0.4-0.2c0.5-0.1-0.1,0.2-0.2,0.2c0.3-0.1,0.3-0.2,0.6-0.3c0.2,0.1,0.4,0.3,0.6,0.4
						c-0.2,0.2-0.5,0.4-0.8,0.4c-0.1,0-0.1,0-0.2,0h-0.1l0,0l-0.1,0.1l-1.1,0.8c-1.5,1-3.1,2-4.5,3c-1.2,1,1.2,2.4-1.1,2.9l-0.3-1
						c-1.5,2.9-4.7,4.4-6.2,7.2c0-0.3-0.2-0.5,0-0.7c-1-0.1-1.8,1.6-1.3,2.1c-0.4,0.3-0.5-0.3-0.9-0.3c-0.8,0.1-0.5,1.8-1.3,1.5
						c-0.1,0,0-0.3,0-0.4c-0.1,0.5-1.5,1.3-0.6,1.6c-1.1,0.5-1.3,1.8-2.3,2.1c0.3,1.1-1.7,1-0.9,2.2c-1-1.1-2.3,0.6-2.3,1.6
						c-0.1-0.5-0.8,0.1-1-0.5c-0.6,0.6-0.9,1.3-0.3,1.7c-2.3-0.1-1.2,3.2-3.4,2.2c-1.2,2.3-2.4,4.3-3.8,6.1c-1-1.1,1.6-1.8,0.5-2.8
						c-1.1,1.9-1,3.6-2.8,4.9c-0.5,0.2-0.2-0.7-0.3-1c-1.1,1.9-2.9,2.8-3.7,4.7c-0.1-0.1-0.1-0.3,0-0.6c-0.2,0.3-0.7,0.5-0.3,0.9
						L68,56c1.1,0.2,0.4,2.4,0.7,2.8c-0.9-1.7-1.6,1-2.6-1.4c-0.1,0.3-0.1,0.7,0.3,1c-0.3,0.2-0.6,0.1-0.7-0.5
						c-0.7,1.2,0.1,1.3-0.7,2.2c-0.2-0.2-0.1-0.5-0.3-0.8c0,0.9,0,1.7-0.9,2.3c-0.1-0.2-0.3-0.3-0.1-0.5c-1.1,1.3-1,3.2-2.7,4.2
						c-0.5-1.3-0.8,0.2-1.6-0.6l-0.5,1l0.7,0.1c-0.6,0.6-0.6,1.8-1.4,2.1l0.1-0.8l-1,1.4l1-0.4c-0.2,1,1.1,0.9,0,1.5
						c0.1-0.3-0.6,0.6-1.4,0.5l0,0c-0.1,0.6-0.1,1.1-0.8,1.4c-0.4-0.1-0.7-0.9-1-1c0.3,0.9-1.3,1.7-1,2.7c0-0.3-0.4-0.7-0.5-0.7
						l0.3,0.8c-0.5,0.1-0.6,0.1-0.8-0.3c-1,0.8,1.2,0.7-0.2,1.3c0-0.1-0.1-0.2,0-0.4c-1.3,0.9-1.7,2.4-2.9,3.1c-1-0.4,0.7-1-0.3-1.3
						c-1.2,1.6-2,3.8-3.5,5l0.3-0.2c0.8,1.2-1.5,0.5-1.7,1.7c0.1-0.2-0.3-0.7-0.2-0.6c-1.1,0.8-1.6,2.2-2.7,3.9l-0.1-0.4
						c-0.7,0.3-1.5,1.3-2.2,1.8c0.1,0.4-0.3,0.7,0.2,0.8c-1.5,0.3-2.2,1.4-2.8,2.4s-1.3,2.1-2.5,2.4c0.2-0.2,0.3-0.6,0.1-0.5
						l-1.2,1.6c0.4,0.2,0.4,0,0.9,0c0,0.4-0.2,0.9-0.6,1.3c0.4-0.8-0.5-0.5-1-0.4c0.1,0.1,0.2,0.3,0.3,0.3c-1.3,0.2,0.5,0.8-0.8,1.4
						L32.1,96c-0.3,0.5-0.4,1-0.8,1.4c-0.5-0.2,0.2-0.6,0-0.9c-0.5,0.6-0.4,1.8-1.3,1.9c0.1-0.3,0.5-0.7,0.6-1
						c-0.9,0.2-0.9,0.3-1.4,0.7l0,0l-1.1,0.8l0.3-0.1c0.1,1.5-1.2,1.6-1.6,3.1c0.4-1.4-0.1-0.4-0.4-0.8c-0.3,0.2-0.8,0.4-0.8,0.2
						c-0.2,0.7-0.9,0.6-1.1,1.6c-0.1-0.1-0.5,0.5-0.6,0.1c-0.5,0.7,0.3,0,0.4,0.2c-0.5,1.2-2.4,1.8-3.2,3.5
						c-0.2,0.3-0.2,0.4-0.3,0.6s-0.2,0.5-0.3,0.6c-0.3-0.1-0.6-0.2-1.1-0.7c-0.1-0.2,0-0.2,0.2-0.2c0.1,0.1,0.3,0.1,0.3,0.1
						c-0.1-0.2-0.2-0.3-0.3-0.4s-0.2-0.3-0.4-0.4c-0.2-0.2-0.5-0.4-0.8-0.7c0.2,0.1,0.1-0.1,0-0.3c-0.5-0.4-0.5-0.1-1-0.7
						c0.2,0,0.4,0.1,0.7,0.2c-0.6-0.4-1.2-0.8-1.7-1.2c-0.1-0.2,0.4,0.2,0.7,0.3c-0.6-0.5-1.6-1.3-1.9-1.4l0.3,0.4
						c-0.2-0.2,0-0.2,0.2-0.1c0.6,0.4,0.7,0.7,0.7,0.8l-0.4-0.3c0.1,0.7,1.5,1.4,2.3,2.1l-0.6-0.1c0.3,0.2,0.6,0.4,1,0.5
						c0.1,0.2,0.1,0.5-0.3,0.2c0.4,0.7,0.6,0.4,0.9,1c0,0.1,0,0.1-0.1,0l0.6,0.5c-0.2,0,0,0.4-0.4-0.1c0.3,0.3,0.5,0.7,0.8,0.9
						c0.1,0.1,0.2,0.2,0.3,0.3l0.2,0.1c0,0,0.1,0.1,0.1,0c0.4-0.5,0.6-0.8,0.9-0.8l-0.1,0.1c0.4-0.4,0.6-0.7,0.6-0.8
						c0.1-0.1,0-0.2,0-0.2c-0.1-0.1-0.3-0.1,0.1-0.8c0.4,0,0.9,0,1.3,0l-0.1-0.4c0.1-0.1,0.4-0.4,0.5-0.2c0.3-0.7-0.2,0-0.1-0.5
						c0.9-0.4,1.6-1.9,2.3-1.5c0-0.5-0.8,0.4-0.3-0.4c0.7,0.4,0.7-0.9,1.5-1.2c0.1,0.5-0.6,0.9,0.3,0.5c-0.1-0.8,1.3-1,1.7-1.6
						c-0.4-0.4,0.9-1.2,1.6-2.2c0.1,0.2,1.8-1.3,2.8-1.8l0.1,0.1c-0.3-0.6,0.6-1.3,1-2c0.3,0.3,0.3,0.6,0.1,1l0.6-0.5
						c0-0.3,0.1-0.5,0.3-0.9l0.3,0.5c0.7-0.7,1-1.9,2.2-2.5c-0.3-0.4-1.8-0.3-1.1-1.6c0.2,0.2,0.6,0.5,0.5,0.8
						c0.1-0.1,0.1-0.5,0.4-0.6v0.7c0.6-0.3-0.1-0.5,0.3-0.8c0.3,0.3,0.5,0,0.7,0.3c-0.1,0.1-0.4,0.2-0.4,0.4
						c0.4-0.3,1.1-0.6,1.5-0.5c-0.2-0.1-0.4-0.4-0.2-0.7c0.7-0.7,0.6,0.1,1.2-0.1c0-0.4,0.7-0.6,0.2-1.1c0.2-0.2,0.5,0,0.7,0
						c0.2-0.6,1.7-1.8,0.8-1.9l-0.1,0.1c0,0,0,0,0-0.1l0,0l0,0c0.7-1.7,2.9-2.2,3.9-3.6l0.2,0.2c0.5-0.9,1.5-1.7,1.6-2.6
						c0.2-0.2,0.8-0.2,1,0.1c0.4-0.7,0.3-1,1.4-1.4c-0.2,0.9,0.5,0.1-0.3,0.8c0.9-0.5,1.4-0.4,1.6-1.7c0.2,0.7,1.2,0.1,1.4-0.4
						L52.8,79c0.3-0.4,0.7-0.7,1.1-1l0.5,0.8c2.3-0.6,1.3-4,3.8-3.7c-0.1-0.9-1.1,0.5-1.3-0.4c0.8-0.6,2.5-0.3,2.7-0.5
						c1.3-0.5-0.1-1.8,1.1-2.5c-0.4-0.1-1.1-0.7-0.6-1.6c0.8-0.6,1.9,0.2,1.6,0.8c-0.1,0.2-0.3,0.2-0.4,0.1
						c-0.1,0.3-0.3,0.7,0.2,0.7l-0.2-0.3c0.6-0.1,1.5-1,1.7-0.4c0.3-0.7-0.2-0.6-0.7-0.4c1.2-0.5,1.4-1.3,2.5-2
						c-0.3,0-0.7-0.2-0.6-0.3c1.6-1,0.1-1.1,0.9-2c0.9-0.1,0.7,1.1,1.3-0.1c0.8-0.3,0.8,0.6,0.8,1c0.3-1.3,1.9-1.2,2.4-1.5l-0.2,0.6
						c0.1-0.4,0.4-0.6,0.6-0.8l-0.8-0.3c0.3-0.2,0.6-0.4,0.8-0.1c-0.1-0.6-1.1-0.7-1-1.6c0.6-0.1,0.7-1.3,1.6-0.7
						c-1.3,0.8,0.8,0.6,0,1.6c0.1-0.3,0.3-0.5,0.7-0.6c0.1,0,0.1,0.2,0.1,0.3c1.6-0.4-0.3-1.2,0.8-2.3c0.3,0.5,1,0.5,1.1,0.3
						c-0.4,0.4-0.9-0.5-0.8-1.1c1-0.4,0.5-1,0.9-1.3L72.9,60c-0.3-0.5,0.1-0.8,0.5-1.4c0.3,0.3-0.2,0.6,0.1,0.6
						c-0.2-1.2,1.9-0.4,2.2-1.6c0.6-0.1,0.8,0.7,1.3,0.6c0.3-1.3,1.4-0.3,1.9-1.6c-0.8-0.3-0.7-0.1-0.6-1.2l-1,1.8l0.1-1.7
						c-0.4,0.4-0.6,1.2-0.9,1.4c0-0.9,0.1-0.7-0.6-0.9c1.4,0.2,0.7-1.6,1.9-1.7l1.3,1.4c1.6-0.4,1.1-2.5,2.8-3.4l-0.7,0.2
						c-0.4-0.7,0.7-0.9,0.9-1.5c0.4,0.5,0.8,0.4,1.3,0.5c-0.4-0.3,1-0.9,0.2-1.9h1.2c1.3-0.8-0.1-2.5,1.1-3.3c0.2,0.8,1,0.6,0.6,1.7
						c0.3-0.3,0.7-0.6,0.4-0.9c0.5,0.1,0.3-1.5,1.1-1.4c-0.1-0.3-0.5-0.8-0.1-1.2c0.1,0,0.2,0.2,0.2,0.2c-0.2-0.2,0.3-0.9-0.5-1.1
						c2.4,0.3,2.8-3,4.9-2.8c0.6-0.9,1.3-1.9,2-2.6c0.1,0.2,0.2,0.2,0,0.3c1.3-0.5-0.7-1.8,0.8-2.4c1.2,0.1-0.2,0.9,0.4,0.9
						c1.5,1.3,1.1-1.5,2.6-1.4l-0.1,0.3c1-0.1,0.8-1.9,1.8-2.7c0,0,0.1,0.2,0.2,0.2c-0.1-1.3,0.8-2.7,1.5-3.7c0.3,0.8-0.1,0.7,0.6,1
						c0.3-0.5-1-0.7-0.4-1.7c0.5,0,1.3-0.3,1.9,0.2l-0.7,0.8c1.1,0.3,0.9-1,1.4-1.2l0.3,0.4c1-1.2,0.2-2,1.4-3.2l-0.3-0.1
						c-0.1-1.4,1-0.1,1-1.3l0.9,0.6c0.2-0.6,0.7-2.2,1.4-3.2c0.1,1-0.5,2.2-0.7,3.1c0.4-0.4,1.3-1.5,1.2-2.1
						c-0.1,0.2-0.1,0.6-0.4,0.7c0-0.6,0-1.1,0.2-1.6c0.1-0.2,0.3-0.5,0.5-0.8s0.4-0.5,0.7-0.8c1,0.7,2.3-0.8,3.7-2.1
						c-0.6-0.7-1-1.3-0.9-1.8c-0.9-0.6-1.5-1.1-2.1-1.7l-0.5-0.5l-0.2-0.2l-0.2-0.2c-0.2-0.2-0.3-0.4-0.5-0.6
						c-0.7-0.9-1.3-1.8-2.3-2.6c-0.2,0.8-0.3,0.7-0.5,0.5c-0.1-0.1-0.2-0.2-0.4-0.3c-0.2-0.1-0.4,0-0.6,0.3
						c-0.6-0.5-0.8-0.7-0.8-0.8c-0.4-0.8-0.9-1.7-1.5-2.7c-0.4-1,0.7,0.2,0.7-0.2c-0.8-0.8-0.9-1.1-1-1.5c0-0.2-0.1-0.3-0.2-0.5
						c0-0.1-0.1-0.2-0.2-0.4c0,0,0-0.1-0.1-0.1L103,5c-0.1,0-0.1,0-0.2,0.1c0.2,0.5-0.6,1.5-1.5,2.1c0.5-0.2,0.9-0.3,1.3-0.4
						c-1,1.4-1.4,1.4-2,1.6c-0.6,0.1-1.3,0.5-2.2,1.9c0.1-0.3,0.3-0.7,0.5-1.1c-0.1,0.2-0.3,0.4-0.5,0.6s-0.3,0.4-0.5,0.6
						c-0.2,0.3-0.5,0.6-0.8,0.9c-0.5,0.7-0.9,1.4-0.9,2.1c-0.2,0-0.6-0.1-0.4-0.5c-1.6,1.4-2.6,4.3-4.2,5l-0.1-0.3
						c-0.2,0.4-0.1,0.9-0.6,1.1c-0.1-0.1-0.1-0.3-0.3-0.2c-0.1,0.2-0.4,1.2-0.9,1.4l0.1-0.6c-1.8,1.2-1.7,2.9-2.8,4.3
						c-0.6-0.6-2,0.4-2.7,0.9l-0.1-0.1c-1.8,1.7-2.4,3.5-3.8,5.4c-1.6,0.4-3.6,3.2-5.5,4.5c0.3-0.1,0.4,0.5,0.2,0.8
						c-0.5,0.3-0.6,1.4-1.1,0.9l0.1-0.1c-0.8-0.2-1.4,0.7-2,1.3l0.6,0.8c-2.5,0.7-3.8,4.5-5.4,4.6c-0.2,0.5-0.7,1-0.9,1.6l-0.3-0.3
						c-1.1,1-1.7,1.5-2.9,2.9v-0.5c-0.7,0.7,0,1.8-0.7,2.5l-0.7-0.2c-1.3,1.3-2.9,2.3-3.8,3.9c0-0.1-0.1-0.2,0.1-0.5
						c-0.6,0.6-2.6,2.1-1.8,2.5c-0.4-0.4-1.3,1.3-1.9,2.2l-0.2-0.4c-0.2,0.9-0.2,1-0.9,2c-0.2,0.2-0.4,0-0.1-0.2
						c-0.8,0.5-0.3,0.8-1.2,1.4l0.1-0.5c-0.7,0.7-0.5,0.7-0.7,1.2c-0.3,0.5-1.3,1.2-1.6,1.1c0,0.2-0.1,0.8-0.6,1.1
						c-0.1,0,0-0.2,0-0.3c-1.3,1-1.4,2-2.4,2.5c-0.1-0.1-0.2,0-0.3,0c0.9-0.9,1.6-1.6,1.5-1.5c-0.2-0.2-1,0.5-0.7-0.4
						c-0.4,0.8-1,2.1-1.8,2.7c-0.1,0-0.1,0-0.2,0v-0.1c-0.2,0.1-0.3,0.3-0.4,0.5c-0.3,0.2-0.4,0.3-0.6,0.5C44,66.2,43.4,67,43,67.4
						c0.3,0.2-0.2,0.6,0.4,0.4c-0.1,0,0-0.1,0.3-0.3c0-0.1,0.1-0.1,0.1-0.2l0,0c0.2-0.2,0.5-0.6,0.9-0.9c-0.2,0.4-0.4,0.8-0.9,1.1
						c0,0.3-0.1,0.7-0.1,0.9c-0.8,0.2-1.9,1-2.2,0.9c-1,1.2-2.4,2.7-2.7,3.8c-0.3,0.4-0.5,0.3-0.6,0.3c0.1-0.2,0.4-0.4,0.4-0.6
						c-0.5,0.7-1.8,1.9-1.7,2.3c-0.9,0.7,0.2-0.7-0.8,0.5l0.1-0.2c-2.4,1.8-2.8,4-5.6,5.9c0.2-0.1,0.3-0.2,0.3-0.2
						c-2.8,2.5-5.3,5.7-8.1,8.1c-0.8,0.7-0.8,0.9-1.1,1.4h-0.3l-0.6,0.9c-1,1.2-2.2,1.7-3.4,3.3l0.2-0.1c-0.5,0.5-1.5,1.6-1.5,1.5
						c0,0.1-0.1,0.2-0.3,0.4h-0.1l-1.1,1.3c-1,0.9,0-0.3-1.4,1.1c-0.5,0.5-1.4,1.6-1.1,1.4c0.2-0.2,0.6-0.5,0.6-0.5l-0.5,0.5
						c0,0.2-0.3,0.6,1-0.4l0.8-0.9l0.3-0.2l-0.7,0.7c0.4-0.3,0.7-0.6,0.9-0.9c0.1,0,0.2-0.1,0.4-0.3l0.7-0.9c0.1,0-0.3,0.4,0.3,0
						c0.3-0.4-0.5,0.2,0.1-0.4c0.5-0.3,0.4-0.2,0.8-0.7c0.1,0,0,0.1-0.1,0.3c0.4-0.4,1.1-1.1,1.2-1.4c0.5-0.3,1.4-1.4,1.5-1.2
						c0.1-0.2,0.6-0.8,1-1.2c-0.5,0.9,1.4-1.4,1.5-1c0.3-0.7,1.8-1.9,2.6-2.8c0,0.1-0.1,0.2-0.2,0.3c0.5-0.5,0.7-0.6,1.1-0.8
						c-0.1-0.2,0.6-1,1-1.6c0.8-0.4-0.2,0.6,0.2,0.6c-0.2-0.1,0.9-1.2,0.6-1.1c0.6-0.3,0.5-0.3,0.9-0.4c-0.2-0.3,0.4-0.5,0.7-1
						c0.8-0.5,0.4,0.1,1.1-0.7C29.5,83,28.9,83.7,28.9,83.7z M46.5,65.7L46.5,65.7c-0.1,0.2-0.3,0.3-0.4,0.4
						C46.2,66,46.3,65.9,46.5,65.7z M48,64.2c-0.2,0.2-0.4,0.4-0.7,0.6c-0.1,0-0.2-0.2,0-0.3C47.3,64.7,47.7,64.3,48,64.2z
						 M43.2,65.8c0.2-0.3,0.3-0.3,0.4-0.3c-0.1,0.1-0.2,0.3-0.4,0.4c0,0,0,0,0,0.1C43.2,65.9,43.2,65.8,43.2,65.8z"/>
					<path class="st1" d="M43.1,66.5c0,0,0,0.1-0.1,0.1c0.1,0,0.1-0.1,0.2-0.1c0-0.1,0-0.1,0-0.2C43.2,66.4,43.1,66.5,43.1,66.5z"/>
					<path class="st1" d="M41.9,87.4L41.9,87.4C41.9,87.4,41.8,87.4,41.9,87.4C41.8,87.4,41.9,87.4,41.9,87.4z"/>
					<polygon class="st1" points="69.5,44.4 69.4,44.3 69.4,44.5 					"/>
					<path class="st1" d="M32.2,94.2c0,0-0.1,0-0.2,0C32,94.3,32.1,94.2,32.2,94.2z"/>
					<path class="st1" d="M28.6,97.8L28,98.2C28.3,98,28.5,97.9,28.6,97.8z"/>
					<path class="st1" d="M25.8,100.4c0,0.1,0.1,0.1,0.1,0.2l0,0L25.8,100.4z"/>
					<path class="st1" d="M67.8,55.3l0.1-0.1C68,54.8,67.9,55,67.8,55.3z"/>
					<path class="st1" d="M56.4,69.8c0-0.2,0.1-0.5,0.1-0.7C56.2,69.3,56,69.5,56.4,69.8z"/>
					<path class="st1" d="M81.5,40.1L81.5,40.1L81.5,40.1L81.5,40.1z"/>
					<path class="st1" d="M57.1,68.5c-0.3,0.1-0.5,0.3-0.6,0.6C56.7,69,57,68.8,57.1,68.5z"/>
					<path class="st1" d="M15.2,102.5l-0.1-0.1l0,0L15.2,102.5z"/>
					<path class="st1" d="M15,102.3l-0.2-0.1C14.9,102.3,15,102.3,15,102.3z"/>
					<path class="st1" d="M14.5,101.9l0.4,0.3C14.7,102.1,14.6,102,14.5,101.9z"/>
					<path class="st1" d="M18.9,106L18.9,106C19,105.9,18.9,105.9,18.9,106z"/>
					<path class="st1" d="M19.6,106.7c-0.1-0.1-0.1-0.2-0.2-0.3c-0.1-0.1,0-0.2-0.3-0.4H19c0.1,0,0.2,0.1,0.2,0.2
						c0.1,0.1,0.1,0.1,0.1,0.2C19.4,106.5,19.5,106.7,19.6,106.7z"/>
					<path class="st1" d="M24.6,104.3l-1,0.8c0.3-0.1,0.6-0.1,0.2,0.3C25.3,104.6,23.3,105.4,24.6,104.3z"/>
					<path class="st1" d="M27.7,101.7c-0.5,0.5,0.2,0.2,0.2,0.3C28.1,101.5,28.2,101.4,27.7,101.7z"/>
					<path class="st1" d="M48.8,81.5l0.4,0.5C49.6,81.5,49.1,81.8,48.8,81.5z"/>
					<polygon class="st1" points="50.3,75 49.6,75.1 49.9,75.7 					"/>
					<polygon class="st1" points="56.2,76.3 56.1,76.5 56.6,75.7 					"/>
					<path class="st1" d="M91,41.6L90.2,41C90.1,41.4,90.8,42.2,91,41.6z"/>
					<path class="st1" d="M105.1,25.7c0.5,0.1,1.1-0.1,1-0.7C105.8,25.3,105.2,25.4,105.1,25.7z"/>
					<polygon class="st1" points="70.5,37.4 70.6,37 70.2,37.6 					"/>
				</g>
			</g>
		</g>
	</g>
	<g>
		
			<rect x="54.9" y="-11.7" transform="matrix(0.6582 -0.7528 0.7528 0.6582 -18.5274 63.7027)" class="st0" width="12" height="127.9"/>
		<g>
			<g>
				<g>
					<path class="st1" d="M104.9,98.7c-0.1,0.1,0,0.1,0.3-0.2l0.1-0.3L104.9,98.7z"/>
					<path class="st1" d="M106.8,96.7c0.3-0.4,0.5-0.9,0.2-0.8c-0.2,0.5-0.3,0.5-0.5,1c-0.2,0.3-0.5,0.5-0.5,0.4
						c-0.1,0.1-0.4,0.5-0.5,0.7C105.9,97.7,106.4,97.2,106.8,96.7C106.9,96.5,106.8,96.7,106.8,96.7z"/>
					<path class="st1" d="M90.8,68.9l0.1,0.2C90.9,69.1,90.9,69,90.8,68.9z"/>
					<path class="st1" d="M72.8,52.1c0.2,0.1,0.3,0.1,0.3,0C73,52.1,72.9,52.1,72.8,52.1z"/>
					<path class="st1" d="M70.4,48.5c0,0.1,0.1,0.1,0.1,0.2C70.6,48.6,70.5,48.5,70.4,48.5z"/>
					<path class="st1" d="M90.8,68.9l-0.3-0.6C90.3,68.5,90.6,68.7,90.8,68.9z"/>
					<path class="st1" d="M109.9,92.1c-0.1,0.1-0.1,0.2-0.2,0.3L109.9,92.1C109.9,92.2,109.9,92.2,109.9,92.1z"/>
					<path class="st1" d="M99.2,75.8l0.1,0.1c0.1,0,0.2,0,0.3-0.1H99.2z"/>
					<path class="st1" d="M105.4,81.4c-0.1-0.1-0.5,0.2-0.7,0.3c0.2-0.1,0.4,0,0.5,0C105.3,81.6,105.3,81.5,105.4,81.4z"/>
					<path class="st1" d="M111.9,91.4l-0.1,0.2C111.8,91.6,111.8,91.5,111.9,91.4z"/>
					<path class="st1" d="M94.9,71.7c0.1-0.1,0.1-0.2,0.1-0.2S94.9,71.6,94.9,71.7z"/>
					<path class="st1" d="M98.2,92L98.2,92C98.2,92,98.3,92,98.2,92z"/>
					<path class="st1" d="M105,98.8l-0.1-0.1c0,0,0,0-0.1,0L105,98.8z"/>
					<path class="st1" d="M65.4,42.5C65.5,42.6,65.5,42.6,65.4,42.5C65.7,42.6,65.6,42.6,65.4,42.5z"/>
					<path class="st1" d="M7.9,11.5c0.7-0.4,0.5,0.1,0.4,0.5s-0.1,0.7,0.8,0.2c-0.2,0-0.2-0.4-0.2-0.7C8.8,11.2,8.7,11,7.9,11.5z"/>
					<path class="st1" d="M110.1,92l0.2-0.3C110.2,91.8,110.1,91.9,110.1,92z"/>
					<path class="st1" d="M9.2,12.3L9.2,12.3l0.2-0.1C9.3,12.2,9.2,12.2,9.2,12.3z"/>
					<path class="st1" d="M51.8,31.2c-0.1,0.1-0.1,0.3-0.1,0.4C51.8,31.6,51.8,31.4,51.8,31.2z"/>
					<path class="st1" d="M60.9,40.9l-0.2-0.3C60.8,40.7,60.8,40.8,60.9,40.9z"/>
					<path class="st1" d="M45.9,27.7c-0.1-0.2-0.1-0.3-0.3-0.4v0.1C45.7,27.4,45.8,27.4,45.9,27.7z"/>
					<path class="st1" d="M40.5,23c0,0.1,0,0.1,0,0.2c0.1,0,0.1,0.1,0.2,0.1L40.5,23z"/>
					<path class="st1" d="M82.2,77.4c0.1,0.2,0.1,0.3,0.1,0.4C82.3,77.6,83.1,78.3,82.2,77.4z"/>
					<path class="st1" d="M110,92.2c0-0.1,0-0.1,0.1-0.2C110,92.1,110,92.1,110,92.2C109.9,92.2,110,92.3,110,92.2z"/>
					<path class="st1" d="M41,32.8l-0.8-0.9C40.4,32.2,40.7,32.5,41,32.8z"/>
					<path class="st1" d="M44.3,43.1l0.2,0.1C44.4,43.2,44.4,43.1,44.3,43.1z"/>
					<path class="st1" d="M37.6,29.8c0.1-0.4,0-0.6-0.1-0.9c-0.1,0-0.2,0-0.2,0.1L37.6,29.8z"/>
					<path class="st1" d="M82.3,77.8L82.3,77.8L82.3,77.8z"/>
					<path class="st1" d="M88.1,82.4c-0.8-0.7-0.6-0.1-0.8-0.2c-1-0.8-0.3-0.6-0.5-1c-0.6-0.5-1.3-0.7-1.7-1.1
						c0-0.1-0.1-0.2,0.1-0.1c-0.8-0.4-1.9-1.7-2.8-2.1c0-0.1,0-0.1,0-0.1c0,0.2-0.1,0.4-0.2,0.4c-0.4-0.3-0.8-0.4-0.8-0.7
						c0.2,0.2,0.3,0.2,0.4,0.2l-0.4-0.3c-0.1-0.5,0.6,0.4,0.7,0.2c-0.8-0.6-1.8-1.2-2.3-1.7c0.1-0.3,1.4,1.1,0.8,0.2l0.8,0.9
						c-0.3-1,0.5,0.5,0.2-0.4c-1.1-1.1-1.4-1-2.5-2.2c-0.4-0.1-0.1,0.3-0.5,0.2c-1.8-1.2-0.7-1.8-2.2-2.5c-0.5-0.1-0.9,0.1-1.6-0.8
						h0.6c-1.1-1-1-0.1-2-1.4c0.3,0.1,1,0.7,0.8,0.5c-0.5-0.9-0.7-0.3-1.3-0.8l0.1-0.4c-1.2-1-2.7-2-4.1-3.1c0.2,0,0.5,0.1,0.2-0.3
						c-1.8-1.3-3.5-3.2-4.9-4.9l-0.9-0.3c-0.1-0.1-0.1-0.4,0.1-0.3c-0.5-0.7-0.2,0.2-0.6,0c-0.4-0.3-0.3-0.6,0-0.5
						c-1.3-0.8-3.6-2.3-4.5-3.6l0.3,0.1C57.8,55.4,57,56,56.5,55l0.2,0.1c-1.8-1.9-4.3-3.5-5.3-5.4c-0.7,0.2-1.7-2-2.5-1.4
						c-0.8-1.3-0.4-1.2-1.7-2.8c-0.4-0.4-1-0.1-1.6-0.5l0.3-0.4l-1.1-0.2v-0.8l-0.6-0.3c0.2,0.2,0.3,0.5,0.1,0.6
						c-0.9-0.5-1.6-1.9-1.4-2.2l-2.1-1.3c0.2-0.1,0.5,0.1,0.9,0.2c-1.3-0.5,0.2-0.6-1-1c0,0.2-0.3,0.2-0.4,0.2
						c-0.2-0.6-1.2-1.5-2-2.1l0.4-0.2c-1.3-1.3-2.9-2.4-4.4-3.8c0.4,0.6-0.2,1-0.6,0.7l0.2-0.6c-0.5,0,0.3,0.6-0.6,0.4
						c-0.5-0.6,0.1-0.9,0.5-0.7L33,33c0.1-0.2,0.3-0.1,0.5-0.2c-0.5,0-0.8-1.5-1.6-1.4l0.1-0.2c-1.5-1.4-2.3-1.8-3.5-2.9
						c-0.4,0.4-0.8-0.1-1.4-0.1c-0.8-0.9-1.5-2.2-2.6-3.1c-0.9-0.5-0.5,0.2-1.1,0.1c0.3-0.4-0.8-1.4,0-1.2c-1.3-1.1-1.7-1.4-3.6-2.5
						c0,0.3,0.2,0.6-0.1,0.6c-0.4-0.2-0.5-0.8-0.3-0.9h0.1c-2.4-1-3.2-5-5.4-5.5h0.1c-0.6-0.3-1.4-0.7-1.6-0.6
						c-0.1-0.2,0-0.2,0.2-0.2s0.3-0.1,0.4-0.3c-0.6,0.1-0.9-0.2-0.9-0.3c0-0.1,0.3-0.2,0.3-0.3c0.1-0.1,0.1-0.2,0-0.4
						c0.2,0,0.4,0.1,0.6,0.1c0.1,0,0.1,0,0.2,0h0.1l0.1-0.1c0.4-0.4,0.8-0.9,1.2-1.4s0.8-1.1,1.2-1.5c0.1-0.1,0.2-0.2,0.3-0.3
						c0,0,0.1-0.1,0.2-0.1l0,0c0.1,0,0.2,0,0.2,0.1l-0.3-0.3c-0.2-0.4,0.2,0.1,0.3,0.2c-0.1-0.3-0.2-0.3-0.3-0.6
						c0.1-0.2,0.2-0.4,0.4-0.6c0.2,0.2,0.4,0.5,0.5,0.8c0,0.1,0,0.1,0,0.2v0.1l0,0l0.1,0.1l0.8,1.1c1.1,1.4,2.2,2.9,3.3,4.3
						c1,1.2,2.3-1.3,3,0.9l-1,0.3c3,1.3,4.7,4.4,7.6,5.7c-0.3,0.1-0.5,0.3-0.7,0.1c0,1,1.7,1.6,2.2,1.2c0.3,0.4-0.3,0.5-0.3,0.9
						c0.2,0.8,1.8,0.4,1.6,1.2c0,0.1-0.3,0.1-0.4,0c0.6,0,1.4,1.4,1.7,0.5c0.6,1.1,1.9,1.2,2.2,2.2c1.1-0.3,1.2,1.7,2.2,0.8
						c-1,1,0.7,2.2,1.7,2.2c-0.5,0.2,0.2,0.8-0.4,1c0.6,0.5,1.4,0.8,1.8,0.2c0,2.3,3.2,1,2.4,3.2c2.4,1,4.4,2.1,6.3,3.3
						c-1,1-1.9-1.5-2.9-0.3c2,0.9,3.7,0.8,5.1,2.4c0.3,0.5-0.6,0.3-0.9,0.3c2,0.9,3,2.8,4.9,3.4c-0.1,0.1-0.3,0.1-0.6,0
						c0.3,0.2,0.5,0.7,0.9,0.2l-0.4-0.1c0.2-1.1,2.4-0.5,2.8-0.8c-1.7,1,1.1,1.6-1.2,2.7c0.3,0.1,0.7,0,0.9-0.3
						c0.2,0.3,0.1,0.6-0.5,0.7c1.2,0.6,1.3-0.2,2.2,0.6c-0.2,0.2-0.5,0.2-0.8,0.4c0.9-0.1,1.7-0.1,2.3,0.7c-0.2,0.1-0.2,0.4-0.5,0.2
						c1.4,1.1,3.3,0.7,4.4,2.4c-1.3,0.6,0.2,0.7-0.5,1.7l1,0.4v-0.7c0.7,0.6,1.8,0.5,2.2,1.3L69,54.5l1.4,0.9L70,54.5
						c1.1,0.2,0.8-1.1,1.5-0.1c-0.3-0.1,0.7,0.6,0.6,1.4l0,0c0.6,0,1.1,0.1,1.5,0.7c-0.1,0.4-0.9,0.8-1,1.1c0.9-0.4,1.8,1.2,2.8,0.8
						c-0.3,0-0.7,0.5-0.7,0.6l0.8-0.3c0.2,0.4,0.1,0.6-0.2,0.9c0.9,0.9,0.6-1.3,1.3,0.1c-0.1,0-0.2,0.1-0.4,0
						c0.9,1.2,2.5,1.5,3.3,2.7c-0.4,1-1.1-0.6-1.3,0.4c1.6,1.1,3.9,1.7,5.2,3.2l-0.2-0.3c1.1-0.9,0.6,1.4,1.8,1.6
						c-0.2-0.1-0.7,0.4-0.6,0.3c0.9,1,2.3,1.5,4,2.5L88,70.2c0.4,0.7,1.4,1.4,2,2.1c0.4-0.1,0.7,0.3,0.8-0.3
						c0.4,1.5,1.5,2.1,2.6,2.7s2.1,1.1,2.6,2.3c-0.2-0.2-0.7-0.2-0.5-0.1l1.7,1c0.2-0.4,0-0.4-0.1-0.9c0.4,0,0.9,0.2,1.3,0.5
						c-0.9-0.3-0.5,0.6-0.4,1c0-0.1,0.2-0.2,0.3-0.3c0.3,1.3,0.7-0.6,1.4,0.7L99.5,79c0.5,0.2,1,0.3,1.4,0.8
						c-0.1,0.5-0.6-0.2-0.9,0.1c0.6,0.5,1.8,0.3,2,1.1c-0.3-0.1-0.7-0.4-1-0.5c0.2,0.9,0.4,0.9,0.8,1.3l0,0l0.9,1l-0.2-0.3
						c1.5-0.2,1.7,1.1,3.2,1.4c-1.4-0.3-0.4,0.2-0.8,0.4c0.2,0.3,0.5,0.7,0.3,0.8c0.7,0.1,0.6,0.9,1.7,1c-0.1,0.1,0.5,0.4,0.2,0.6
						c0.7,0.4,0-0.3,0.2-0.4c1.3,0.5,2,2.2,3.7,3c0.3,0.1,0.4,0.2,0.7,0.3c0.2,0.1,0.5,0.2,0.6,0.3c-0.1,0.3-0.2,0.6-0.6,1.2
						c-0.2,0.1-0.2,0-0.2-0.1s0.1-0.3,0.1-0.3c-0.1,0.1-0.3,0.2-0.4,0.3c-0.1,0.1-0.2,0.3-0.3,0.4c-0.2,0.3-0.4,0.5-0.6,0.9
						c0-0.2-0.1-0.1-0.3,0c-0.4,0.5,0,0.5-0.6,1c0-0.2,0-0.4,0.1-0.7c-0.4,0.6-0.7,1.2-1.1,1.8c-0.2,0.1,0.1-0.5,0.2-0.7
						c-0.5,0.7-1.2,1.7-1.3,2l0.4-0.4c-0.2,0.2-0.2,0-0.1-0.2c0.3-0.6,0.7-0.7,0.8-0.7l-0.3,0.4c0.6-0.1,1.3-1.6,2-2.4V93
						c0.2-0.3,0.3-0.7,0.5-1c0.2-0.1,0.5-0.1,0.2,0.3c0.6-0.4,0.3-0.6,0.9-0.9c0.1,0,0.1,0,0,0.1l0.4-0.7c0,0.2,0.4,0,0,0.4
						c0.3-0.3,0.6-0.6,0.8-0.8c0.1-0.1,0.2-0.3,0.3-0.4l0.1-0.2c0-0.1,0.1-0.1,0-0.1c-0.5-0.3-0.8-0.5-0.9-0.8l0.1,0.1
						c-0.5-0.4-0.7-0.5-0.8-0.6c-0.1,0-0.2,0-0.2,0c-0.1,0.1-0.1,0.3-0.8,0c0-0.4-0.1-0.9-0.1-1.3l-0.4,0.2
						c-0.1-0.1-0.4-0.4-0.2-0.5c-0.7-0.3,0,0.2-0.5,0.1c-0.4-0.9-2-1.5-1.7-2.2c-0.5,0,0.5,0.8-0.4,0.3c0.3-0.8-0.9-0.6-1.3-1.5
						c0.5-0.1,0.9,0.5,0.5-0.3c-0.8,0.2-1.1-1.2-1.7-1.6c-0.4,0.4-1.3-0.8-2.3-1.4c0.2-0.1-1.4-1.7-2-2.7l0.1-0.1
						c-0.6,0.4-1.4-0.5-2.1-0.9c0.3-0.3,0.5-0.3,1-0.2L99,75.8c-0.3,0.1-0.5,0-1-0.3l0.5-0.3c-0.8-0.7-1.9-0.9-2.7-2.1
						c-0.4,0.4-0.2,1.8-1.5,1.2c0.2-0.3,0.5-0.7,0.8-0.5c-0.1-0.1-0.5-0.1-0.6-0.3h0.7c-0.3-0.6-0.5,0.1-0.8-0.2
						c0.3-0.3-0.1-0.5,0.2-0.7c0.1,0.1,0.2,0.4,0.4,0.4c-0.3-0.4-0.7-1-0.6-1.4c-0.1,0.2-0.4,0.4-0.7,0.2c-0.8-0.7,0.1-0.6-0.2-1.2
						c-0.4,0.1-0.7-0.6-1.1-0.1c-0.2-0.2-0.1-0.5,0-0.7c-0.6-0.1-1.9-1.6-1.9-0.6l0.1,0.1h-0.1l0,0l0,0c-1.8-0.6-2.4-2.7-3.9-3.6
						l0.2-0.2C85.9,65,85,64.1,84.1,64c-0.2-0.2-0.2-0.8,0.1-1c-0.7-0.4-1-0.2-1.5-1.3c0.9,0.2,0.1-0.5,0.8,0.3
						c-0.6-0.8-0.5-1.3-1.8-1.5c0.7-0.3,0-1.2-0.5-1.3l0.2,0.8c-0.5-0.3-0.8-0.7-1.1-1l0.8-0.5c-0.8-2.3-4-1.1-4-3.6
						c-0.8,0.1,0.5,1.1-0.3,1.4c-0.6-0.7-0.5-2.4-0.7-2.6c-0.6-1.3-1.8,0.2-2.6-1c-0.1,0.4-0.6,1.2-1.6,0.8
						c-0.6-0.7,0.1-1.9,0.7-1.7c0.2,0.1,0.2,0.3,0.1,0.4c0.3,0.1,0.7,0.3,0.7-0.3l-0.3,0.2c-0.1-0.6-1.1-1.4-0.5-1.7
						c-0.8-0.2-0.6,0.2-0.3,0.7c-0.6-1.2-1.4-1.3-2.1-2.4c0,0.3-0.1,0.7-0.3,0.6c-1.1-1.6-1.1,0-2.1-0.7c-0.2-0.9,1.1-0.8-0.2-1.3
						c-0.3-0.8,0.5-0.8,0.9-0.9c-1.3-0.2-1.3-1.8-1.7-2.3l0.6,0.2c-0.4-0.1-0.6-0.3-0.8-0.5l-0.2,0.8c-0.2-0.3-0.4-0.5-0.2-0.8
						c-0.6,0.1-0.6,1.1-1.6,1.1c-0.1-0.6-1.3-0.7-0.8-1.5c0.9,1.2,0.5-0.9,1.6-0.1c-0.3-0.1-0.5-0.3-0.7-0.6c0-0.1,0.2-0.1,0.3-0.1
						C64.5,41,63.8,43,62.7,42c0.5-0.3,0.4-1,0.2-1.1c0.4,0.4-0.4,0.9-1.1,0.8c-0.4-1-1-0.4-1.3-0.8l0.3,0.5
						c-0.5,0.3-0.8-0.1-1.4-0.4c0.2-0.4,0.6,0.2,0.6-0.1c-1.2,0.3-0.6-1.9-1.8-2c-0.1-0.6,0.7-0.8,0.5-1.3c-1.3-0.2-0.4-1.4-1.7-1.8
						c-0.2,0.8-0.1,0.7-1.2,0.7l1.8,0.9h-1.7c0.4,0.4,1.3,0.5,1.4,0.8c-0.9,0.1-0.7,0-0.9,0.6c0.1-1.4-1.7-0.6-1.9-1.8l1.3-1.4
						c-0.5-1.6-2.5-0.9-3.6-2.5l0.2,0.6c-0.7,0.4-0.9-0.7-1.6-0.8c0.5-0.4,0.3-0.9,0.4-1.3c-0.3,0.4-1-0.9-1.9-0.1l-0.1-1.2
						c-0.9-1.2-2.5,0.2-3.4-0.9c0.8-0.2,0.6-1,1.6-0.7c-0.4-0.3-0.6-0.7-0.9-0.4c0-0.5-1.6-0.2-1.5-1c-0.3,0.1-0.8,0.5-1.2,0.1
						c0-0.1,0.2-0.2,0.2-0.2c-0.2,0.2-0.9-0.2-1,0.6c0.2-2.4-3.2-2.6-3.1-4.7c-0.9-0.5-2-1.2-2.8-1.8c0.2-0.1,0.2-0.2,0.3-0.1
						c-0.6-1.3-1.8,0.8-2.5-0.7c0.1-1.2,0.9,0.1,0.8-0.5c1.2-1.6-1.5-1-1.5-2.5l0.3,0.1c-0.1-1-1.9-0.7-2.8-1.6c0,0,0.2-0.1,0.2-0.2
						c-1.3,0.2-2.7-0.6-3.8-1.2c0.8-0.3,0.7,0.1,1-0.7c-0.5-0.3-0.7,1-1.6,0.5c0-0.5-0.4-1.3,0.1-2l0.8,0.6c0.3-1.1-1-0.8-1.3-1.3
						l0.3-0.3c-1.3-0.9-2-0.1-3.3-1.2L24,10.6c-1.4,0.2-0.2-0.9-1.4-0.9l0.5-1c-0.6-0.2-2.3-0.6-3.2-1.2c1-0.2,2.2,0.3,3.1,0.5
						c-0.5-0.4-1.6-1.2-2.2-1.1C21.1,7,21.5,7,21.5,7.3c-0.6,0.1-1.1,0-1.6-0.1c-0.2-0.1-0.5-0.2-0.8-0.4s-0.5-0.4-0.8-0.6
						C19,5.1,17.3,4,16,2.6c-0.6,0.6-1.3,1.1-1.8,1c-0.5,0.9-1,1.6-1.6,2.2l-0.4,0.5L12,6.5l-0.2,0.2c-0.2,0.2-0.4,0.4-0.6,0.6
						C10.4,8,9.5,8.8,8.7,9.7c0.8,0.1,0.7,0.3,0.5,0.5C9.1,10.3,9,10.4,9,10.6c0,0.2,0,0.4,0.4,0.5c-0.4,0.6-0.6,0.8-0.8,0.8
						c-0.8,0.5-1.6,1-2.5,1.7c-0.9,0.5,0.2-0.7-0.2-0.7c-0.7,0.8-1.1,1-1.4,1.1c-0.2,0.1-0.3,0.1-0.5,0.2c-0.1,0-0.2,0.1-0.4,0.2
						c0,0-0.1,0-0.1,0.1l-0.1,0.1c0,0.1,0.1,0.1,0.1,0.2C4,14.6,5,15.3,5.7,16.2c-0.2-0.5-0.3-0.9-0.5-1.3c1.5,0.9,1.5,1.3,1.7,1.9
						c0.2,0.5,0.5,1.2,2,2c-0.4-0.1-0.7-0.2-1.1-0.4c0.2,0.1,0.4,0.3,0.6,0.5C8.6,19,8.8,19.2,9,19.4c0.3,0.2,0.6,0.5,1,0.7
						c0.7,0.5,1.5,0.8,2.2,0.7c0,0.2-0.1,0.6-0.4,0.4c1.6,1.5,4.4,2.3,5.3,3.9l-0.3,0.1c0.4,0.2,0.9,0,1.1,0.6
						c-0.1,0.1-0.3,0.1-0.2,0.3c0.2,0.1,1.2,0.3,1.5,0.8h-0.6c1.3,1.7,3,1.5,4.5,2.5c-0.6,0.7,0.5,2,1,2.6L24,32.1
						c1.8,1.7,3.7,2.2,5.6,3.4c0.5,1.6,3.4,3.4,4.8,5.2c-0.2-0.3,0.5-0.4,0.8-0.2c0.3,0.5,1.5,0.5,0.9,1L36,41.4
						c-0.2,0.8,0.8,1.4,1.4,1.9l0.7-0.6c0.8,2.4,4.8,3.4,5,5.1c0.6,0.2,1.1,0.6,1.6,0.8l-0.3,0.3c1.1,1.1,1.6,1.6,3.1,2.7H47
						c0.8,0.7,1.8-0.1,2.6,0.5l-0.2,0.7c1.4,1.2,2.4,2.8,4.2,3.5c-0.1,0-0.2,0.1-0.5,0c0.6,0.6,2.3,2.4,2.6,1.6
						c-0.3,0.4,1.4,1.2,2.3,1.7l-0.4,0.2c1,0.2,1.1,0.1,2,0.7c0.2,0.2,0,0.4-0.2,0.1c0.6,0.7,0.8,0.2,1.5,1.1l-0.5-0.1
						c0.7,0.6,0.7,0.5,1.3,0.6c0.5,0.3,1.3,1.2,1.2,1.6c0.2-0.1,0.8,0.1,1.1,0.5c0,0.1-0.2,0.1-0.3,0c1,1.2,2,1.2,2.6,2.2
						c-0.1,0.1,0,0.2,0,0.3c-0.9-0.8-1.7-1.5-1.6-1.4c-0.2,0.2,0.5,0.9-0.4,0.7c0.8,0.3,2.2,0.9,2.8,1.6c0,0.1,0,0.1,0,0.2H67
						c0.2,0.2,0.3,0.3,0.5,0.4c0.2,0.2,0.3,0.4,0.6,0.6c-0.1,0.3,0.8,0.8,1.2,1.2c0.2-0.3,0.6,0.2,0.3-0.4c0,0.1-0.1,0-0.4-0.2
						c-0.1,0-0.1-0.1-0.2-0.1l0,0c-0.3-0.2-0.6-0.5-1-0.8c0.4,0.1,0.8,0.3,1.1,0.8c0.3,0,0.7,0,0.9,0.1c0.2,0.8,1.1,1.8,1.1,2.1
						c1.3,0.9,2.8,2.3,3.9,2.5c0.4,0.2,0.3,0.4,0.4,0.6c-0.2-0.1-0.5-0.3-0.6-0.4c0.8,0.5,2,1.6,2.4,1.5c0.7,0.8-0.7-0.2,0.5,0.8
						l-0.2-0.1c1.9,2.3,4.2,2.5,6.3,5.2c-0.1-0.2-0.2-0.3-0.2-0.3c2.7,2.6,6,4.9,8.6,7.6c0.8,0.7,0.9,0.7,1.5,1l0.1,0.3l1,0.6
						c1.3,0.9,1.8,2,3.5,3.1l-0.1-0.2c0.5,0.5,1.7,1.4,1.6,1.4c0.1,0,0.2,0.1,0.4,0.3v0.1l1.4,1.1c1,0.9-0.3,0,1.2,1.3
						c0.6,0.5,1.7,1.2,1.5,1s-0.6-0.5-0.5-0.6l0.5,0.4c0.2,0,0.7,0.2-0.5-1l-0.9-0.7l-0.2-0.3l0.7,0.6c-0.4-0.4-0.7-0.6-1-0.8
						c0-0.1-0.1-0.2-0.3-0.4l-0.9-0.6c-0.1-0.1,0.5,0.2-0.1-0.3c-0.4-0.3,0.3,0.5-0.4-0.1c-0.4-0.4-0.2-0.4-0.7-0.8
						c0-0.1,0.1,0,0.3,0.1c-0.5-0.3-1.1-1-1.4-1.1c-0.3-0.5-1.5-1.3-1.3-1.4c-0.2-0.1-0.9-0.6-1.3-0.9c0.9,0.4-1.5-1.3-1.1-1.4
						c-0.7-0.3-2-1.7-3-2.4c0.1,0,0.2,0.1,0.3,0.2c-0.5-0.5-0.6-0.7-0.9-1.1c-0.2,0.1-1.1-0.6-1.6-0.8c-0.5-0.8,0.6,0.1,0.6-0.2
						c-0.1,0.2-1.3-0.9-1.2-0.5c-0.4-0.6-0.4-0.4-0.5-0.8c-0.3,0.2-0.5-0.4-1-0.6c-0.6-0.8,0-0.4-0.8-1.1
						C87.4,81.9,88.1,82.4,88.1,82.4z M69,66.1L69,66.1c0.2,0.1,0.3,0.3,0.4,0.3C69.3,66.4,69.2,66.3,69,66.1z M67.4,64.7
						c0.2,0.2,0.4,0.4,0.7,0.6c0,0.1-0.2,0.2-0.3,0C67.9,65.3,67.5,65,67.4,64.7z M69.3,69.3C69,69.1,69,69,69,68.9
						c0.1,0.1,0.3,0.2,0.5,0.3c0,0,0,0,0.1,0C69.4,69.3,69.3,69.3,69.3,69.3z"/>
					<path class="st1" d="M70,69.4c0,0,0.1,0,0.1,0.1c0-0.1-0.1-0.1-0.1-0.2c-0.1,0-0.1,0-0.2,0C69.9,69.3,70,69.4,70,69.4z"/>
					<path class="st1" d="M91,69.2L91,69.2C91,69.2,91,69.3,91,69.2C90.9,69.3,91,69.2,91,69.2z"/>
					<polygon class="st1" points="46.2,44.5 46.1,44.6 46.3,44.7 					"/>
					<path class="st1" d="M98.4,78.4c0,0.1,0,0.1,0,0.2C98.4,78.6,98.4,78.5,98.4,78.4z"/>
					<path class="st1" d="M102.2,81.7l0.4,0.6C102.4,82.1,102.3,81.9,102.2,81.7z"/>
					<path class="st1" d="M105,84.4c0.1,0,0.1-0.1,0.2-0.1l0,0L105,84.4z"/>
					<path class="st1" d="M57.2,45.5l-0.1-0.1C56.7,45.4,56.9,45.5,57.2,45.5z"/>
					<path class="st1" d="M72.4,56c-0.2,0-0.5,0-0.7-0.1C71.9,56.1,72.1,56.3,72.4,56z"/>
					<path class="st1" d="M41.1,32.9L41.1,32.9L41.1,32.9L41.1,32.9z"/>
					<path class="st1" d="M71.1,55.3c0.1,0.3,0.4,0.5,0.6,0.6C71.6,55.6,71.4,55.4,71.1,55.3z"/>
					<path class="st1" d="M107.7,94.9l-0.1,0.1l0,0L107.7,94.9z"/>
					<path class="st1" d="M107.6,95l-0.1,0.2C107.6,95.1,107.6,95.1,107.6,95z"/>
					<path class="st1" d="M107.3,95.6l0.2-0.4C107.4,95.3,107.3,95.5,107.3,95.6z"/>
					<path class="st1" d="M111,90.9v-0.1V90.9z"/>
					<path class="st1" d="M111.7,90.1c-0.1,0.1-0.2,0.2-0.3,0.2c-0.1,0.1-0.2,0.1-0.4,0.3v0.1c0-0.1,0.1-0.2,0.2-0.2
						c0.1-0.1,0.1-0.1,0.2-0.1C111.5,90.4,111.7,90.2,111.7,90.1z"/>
					<path class="st1" d="M109,85.4l0.9,1c-0.1-0.3-0.2-0.6,0.3-0.2C109.2,84.6,110.2,86.6,109,85.4z"/>
					<path class="st1" d="M106.1,82.4c0.6,0.4,0.2-0.2,0.3-0.2C106,82,105.8,82,106.1,82.4z"/>
					<path class="st1" d="M84.5,62.7l0.5-0.5C84.6,61.9,84.9,62.4,84.5,62.7z"/>
					<polygon class="st1" points="78,61.7 78.1,62.3 78.7,62 					"/>
					<polygon class="st1" points="78.9,55.7 79.1,55.7 78.3,55.3 					"/>
					<path class="st1" d="M41.9,23.3l-0.5,0.9C41.8,24.2,42.6,23.4,41.9,23.3z"/>
					<path class="st1" d="M25.1,10.3c0.1-0.5-0.2-1.1-0.7-1C24.7,9.6,24.9,10.2,25.1,10.3z"/>
					<polygon class="st1" points="39.1,44 38.7,43.9 39.4,44.3 					"/>
				</g>
			</g>
		</g>
	</g>
</g>
</svg>
